<svg xmlns="http://www.w3.org/2000/svg" viewBox="0 0 26.18 20"><defs><style>.cls-1{fill:#fff;}</style></defs><title>Ресурс 9</title><g id="Слой_2" data-name="Слой 2"><g id="Layer_2" data-name="Layer 2"><path class="cls-1" d="M4,0H4a.91.91,0,0,0-.65.27,1,1,0,0,0-.28.67V15a.94.94,0,0,0,.94.94c2.18,0,5.83.46,8.35,3.1V4.32a.86.86,0,0,0-.13-.48C10.16.51,6.19,0,4,0Z"/><path class="cls-1" d="M23.11,15V.94a1,1,0,0,0-.28-.67A.93.93,0,0,0,22.18,0h0C20,0,16,.51,14,3.84a.86.86,0,0,0-.13.48V19c2.52-2.64,6.17-3.09,8.35-3.1a.94.94,0,0,0,.94-.94Z"/><path class="cls-1" d="M25.24,3.24h-.68V15a2.39,2.39,0,0,1-2.39,2.39c-1.85,0-4.9.37-7.05,2.41A22.44,22.44,0,0,1,25,20a1,1,0,0,0,.8-.18,1,1,0,0,0,.35-.74V4.18a.94.94,0,0,0-.94-.94Z"/><path class="cls-1" d="M1.62,15V3.24H.94A.94.94,0,0,0,0,4.18V19.06a.92.92,0,0,0,.35.73,1,1,0,0,0,.8.19,22.44,22.44,0,0,1,9.91-.2c-2.16-2-5.21-2.4-7.06-2.41A2.39,2.39,0,0,1,1.62,15Z"/></g></g></svg>