<svg xmlns="http://www.w3.org/2000/svg" viewBox="0 0 17.49 20"><defs><style>.cls-1{fill:#fff;}</style></defs><title>Ресурс 10</title><g id="Слой_2" data-name="Слой 2"><g id="Layer_2" data-name="Layer 2"><path class="cls-1" d="M17.44,15.61a1.09,1.09,0,0,0-.71-1.36c-2.55-.8-3.64-5.37-3.89-7.06a1.82,1.82,0,0,0-.16-.47c-.47-.89-2.24-1.31-2.44-1.33A.44.44,0,0,1,9.82,5a3.18,3.18,0,0,0,1-2.44c0-1.4-.15-2.54-2.06-2.54H8.66C6.75,0,6.6,1.14,6.6,2.54A3.15,3.15,0,0,0,7.65,5a.47.47,0,0,1-.42.41C7,5.41,5,5.9,4.7,6.93c0,0,0,.15,0,.27a17.39,17.39,0,0,1-.85,3.28c-.54,1.46-1.5,3.29-3,3.77a1.08,1.08,0,0,0,.31,2.12A1.88,1.88,0,0,0,0,18a2,2,0,0,0,.44,1.1A2.62,2.62,0,0,0,2.64,20l.58,0c.81-.09,1.63-.22,2.43-.35l.86-.13a17.87,17.87,0,0,1,2.05-.12H8.9a18.26,18.26,0,0,1,2.06.12l.86.13c.79.13,1.61.26,2.43.35l.57,0A2.61,2.61,0,0,0,17,19.11a2,2,0,0,0,.44-1.1,1.86,1.86,0,0,0-1.05-1.64h0a1.07,1.07,0,0,0,1-.76ZM4.76,15.48a5.1,5.1,0,0,1-1.15.25L3,15.82c-.24,0-.47.06-.67.1a8.23,8.23,0,0,0,3.4-4.45,12.07,12.07,0,0,1,.08,1.41,3,3,0,0,1-1.07,2.6Zm9.68.34-.59-.09c-1.48-.18-2.21-1.18-2.21-2.85a12.84,12.84,0,0,1,.08-1.46,8.28,8.28,0,0,0,3.44,4.51,6.46,6.46,0,0,0-.72-.11Z"/></g></g></svg>