<svg xmlns="http://www.w3.org/2000/svg" viewBox="0 0 17.64 20"><defs><style>.cls-1{fill:#fff;}</style></defs><title>Ресурс 13</title><g id="Слой_2" data-name="Слой 2"><g id="Layer_2" data-name="Layer 2"><path class="cls-1" d="M16.31,0V3.45h.74a.59.59,0,0,0,.59-.58V1.77A1.84,1.84,0,0,0,16.31,0Z"/><path class="cls-1" d="M4.35,0A1.85,1.85,0,0,0,2.51,1.84V16.47H12.56a.58.58,0,0,1,.58.59v1.1a.68.68,0,0,0,.67.67h1.85L15.68,0Zm8.21,13.83H5.33a.59.59,0,1,1,0-1.17h7.23a.59.59,0,0,1,0,1.17Zm0-2.94H5.33a.59.59,0,0,1,0-1.18h7.23a.59.59,0,0,1,0,1.18Zm0-2.95H5.33a.59.59,0,1,1,0-1.17h7.23a.59.59,0,0,1,0,1.17Zm0-2.94H5.33a.59.59,0,0,1,0-1.18h7.23a.59.59,0,0,1,0,1.18Z"/><path class="cls-1" d="M12,18.16v-.52H.52a.52.52,0,0,0-.52.52A1.84,1.84,0,0,0,1.79,20h12A1.85,1.85,0,0,1,12,18.16Z"/></g></g></svg>