<svg xmlns="http://www.w3.org/2000/svg" viewBox="0 0 20 20"><defs><style>.cls-1{fill:#fff;}</style></defs><title>Ресурс 14</title><g id="Слой_2" data-name="Слой 2"><g id="Layer_2" data-name="Layer 2"><path class="cls-1" d="M19.94,9.48a.86.86,0,0,0,0-.63.88.88,0,0,0-.19-.27l-2.49-2.5a.83.83,0,0,0-1.18,1.18l1.08,1.07H12.5a.84.84,0,0,0-.83.84.83.83,0,0,0,.83.83h4.66l-1.08,1.08a.83.83,0,0,0,.59,1.42.86.86,0,0,0,.59-.24l2.49-2.5a.92.92,0,0,0,.19-.28"/><path class="cls-1" d="M14.17,11.67a.84.84,0,0,0-.84.83v4.17H10V3.33a.83.83,0,0,0-.59-.79l-2.9-.87h6.82V5.83a.85.85,0,0,0,.84.84A.84.84,0,0,0,15,5.83v-5A.83.83,0,0,0,14.17,0H.83L.75,0,.64,0a.77.77,0,0,0-.25.1l0,0s0,0,0,0A.82.82,0,0,0,.1.45a.14.14,0,0,0,0,.07A.62.62,0,0,0,0,.71V.78a.43.43,0,0,1,0,0V17.5a.84.84,0,0,0,.67.82L9,20l.17,0a.84.84,0,0,0,.83-.83v-.84h4.17A.83.83,0,0,0,15,17.5v-5a.83.83,0,0,0-.83-.83"/></g></g></svg>