<svg xmlns="http://www.w3.org/2000/svg" viewBox="0 0 19.03 20"><defs><style>.cls-1{fill:#fff;}</style></defs><title>Ресурс 11</title><g id="Слой_2" data-name="Слой 2"><g id="Layer_2" data-name="Layer 2"><path class="cls-1" d="M9.52,10c2.35,0,4.27-2.24,4.27-5,0-3.83-1.92-5-4.27-5S5.25,1.17,5.25,5c0,2.75,1.91,5,4.27,5Z"/><path class="cls-1" d="M18.94,18.49l-2.15-4.85a1,1,0,0,0-.49-.52L13,11.38a.21.21,0,0,0-.23,0,5.29,5.29,0,0,1-6.43,0,.21.21,0,0,0-.23,0L2.73,13.12a1,1,0,0,0-.48.52L.09,18.49a1.09,1.09,0,0,0,.08,1,1.07,1.07,0,0,0,.91.49H18a1.07,1.07,0,0,0,1-1.51Z"/></g></g></svg>