<svg xmlns="http://www.w3.org/2000/svg" viewBox="0 0 20 20"><defs><style>.cls-1{fill: #ffffff}</style></defs><title>Ресурс 15</title><g id="Слой_2" data-name="Слой 2"><g id="Layer_2" data-name="Layer 2"><path class="cls-1" d="M17.63,13.85A8.12,8.12,0,0,0,6.15,2.37a8,8,0,0,0-1.22,9.8.34.34,0,0,1,0,.4L.74,16.71a1.9,1.9,0,0,0-.29,2.71l.13.13a1.9,1.9,0,0,0,2.71-.29l4.13-4.13a.34.34,0,0,1,.41-.06,8,8,0,0,0,9.8-1.22Zm-10-1.5a6,6,0,1,1,8.48,0,6,6,0,0,1-8.48,0Z"/><path class="cls-1" d="M8.17,7.63a.78.78,0,0,1-.33-.07A.82.82,0,0,1,7.4,6.47a5.28,5.28,0,0,1,6.91-2.81.84.84,0,0,1-.66,1.55A3.59,3.59,0,0,0,8.94,7.12a.84.84,0,0,1-.77.51Z"/></g></g></svg>