<svg xmlns="http://www.w3.org/2000/svg" viewBox="0 0 41 41"><defs><style>.cls-1{fill:none;stroke:#babcbe;stroke-miterlimit:10;}</style></defs><title>Ресурс 91</title><g id="Слой_2" data-name="Слой 2"><g id="Layer_2" data-name="Layer 2"><path class="cls-1" d="M5.5,6.75v-5a1.25,1.25,0,0,1,2.5,0v5a1.25,1.25,0,0,1-2.5,0ZM26.75,8A1.25,1.25,0,0,0,28,6.75v-5a1.25,1.25,0,0,0-2.5,0v5A1.25,1.25,0,0,0,26.75,8ZM40.5,30.5a10,10,0,1,1-10-10,10,10,0,0,1,10,10Zm-2.5,0A7.5,7.5,0,1,0,30.5,38,7.5,7.5,0,0,0,38,30.5Zm-27.5-15h-5v5h5ZM5.5,28h5V23h-5ZM13,20.5h5v-5H13ZM13,28h5V23H13ZM3,30.25V13H30.5v5H33V8.25A2.73,2.73,0,0,0,30.29,5.5h-1V6.75a2.5,2.5,0,0,1-5,0V5.5h-15V6.75a2.5,2.5,0,0,1-5,0V5.5h-1A2.73,2.73,0,0,0,.5,8.25v22A2.73,2.73,0,0,0,3.21,33H18V30.5H3.21A.24.24,0,0,1,3,30.25ZM25.5,20.5v-5h-5v5Zm8.75,10H30.5V26.75a1.25,1.25,0,0,0-2.5,0v5A1.25,1.25,0,0,0,29.25,33h5a1.25,1.25,0,0,0,0-2.5Z"/></g></g></svg>