<svg xmlns="http://www.w3.org/2000/svg" viewBox="0 0 41 41"><defs><style>.cls-1{fill:none;stroke:#babcbe;stroke-miterlimit:10;}</style></defs><title>Ресурс 93</title><g id="Слой_2" data-name="Слой 2"><g id="Layer_2" data-name="Layer 2"><path class="cls-1" d="M14.94,40.5c-1.21-.19-2.44-.27-3.62-.57C7.15,38.87,3.5,37,1.18,33.35A3.69,3.69,0,0,1,.9,29.56,2.49,2.49,0,0,1,4,28.07a7.43,7.43,0,0,0,2.44.09,10.32,10.32,0,0,1,6.88,1A12.42,12.42,0,0,0,20,30.58a8.55,8.55,0,0,1,1.65.09c-2.67,2.17-5.9,3.52-8.88,5.21l.12.28c.39-.08.8-.13,1.18-.24a48.21,48.21,0,0,0,9-4.2,47.41,47.41,0,0,1,6.73-3.26c1.37-.49,3-.27,4.56-.33a25.79,25.79,0,0,0,2.64,0c1.94-.3,3.39.65,3.48,2.56A5.09,5.09,0,0,1,40,33.16c-1.64,3.08-4.52,4.84-7.77,6a39,39,0,0,1-5.32,1.16L26,40.5Z"/><path class="cls-1" d="M32.22,20.83l-3.86-4.25-.17.12.65,1.41-.13.18-1.22-.48a9.7,9.7,0,0,0-1.23-.47c-2.33-.53-3-2.2-3.17-4.19a.91.91,0,0,1,1-1.12,13.31,13.31,0,0,1,3.29.29A6.75,6.75,0,0,1,30,13.8c2.58,2.34,5.05,4.8,7.6,7.19.9.84,1,1.12.43,2.18A3.54,3.54,0,0,1,33.32,25a39.92,39.92,0,0,1-11.77-6.09,1.83,1.83,0,0,1-.83-1.61c0-2.05-.06-4.1,0-6.15,0-.28.3-.57.46-.85.22.25.56.47.62.75.35,1.59.61,3.2.95,4.79a1.39,1.39,0,0,0,.54.87,39.17,39.17,0,0,0,8.39,3.73c.29.07.58.12.87.18Z"/><path class="cls-1" d="M12.23,18.11,13,16.56l-.16-.12L8.89,20.91l-.45-.34a2.71,2.71,0,0,0,.57,0,37.84,37.84,0,0,0,8.84-3.85,1.4,1.4,0,0,0,.54-.89c.32-1.56.56-3.14.91-4.7.06-.3.44-.54.67-.81.15.3.42.6.42.89,0,2.08,0,4.16-.11,6.24a2,2,0,0,1-.69,1.36,37.21,37.21,0,0,1-12,6.25,3.57,3.57,0,0,1-4.66-2A1.5,1.5,0,0,1,3.42,21a81.18,81.18,0,0,0,6.85-6.5C12.11,12.39,14.35,12,16.92,12c.79,0,1.15.41,1.06,1.17-.21,1.94-.84,3.57-3.12,4.13a20,20,0,0,0-2.43,1Z"/><path class="cls-1" d="M26.51,25.67c-1-.48-1.84-.85-2.64-1.29a15.65,15.65,0,0,0-2.52-1.28c.52.48,1,1,1.55,1.45,1.15.94,2.35,1.83,3.49,2.79a4.72,4.72,0,0,1,.69,1,5.09,5.09,0,0,1-.95.44c-3.48.88-7,1.48-10.52.31l-.1,0c-1.58-.45-1.56-.45-1.27-2a9.28,9.28,0,0,0,.29-2.32,1.92,1.92,0,0,1,1.21-2A51,51,0,0,0,20,19.83a.76.76,0,0,1,1.06,0c1.66,1.15,3.37,2.24,5,3.38a1,1,0,0,1,.41.61A18.33,18.33,0,0,1,26.51,25.67Z"/><path class="cls-1" d="M16.44,5.06A4.4,4.4,0,0,1,19.29.68a4.15,4.15,0,0,1,5.33,3.48C25,6.42,23.84,8,22.22,9.33a3,3,0,0,1-4-.55C16.46,6.52,16.43,6.45,16.44,5.06Z"/></g></g></svg>