<svg xmlns="http://www.w3.org/2000/svg" viewBox="0 0 41 41"><defs><style>.cls-1{fill:none;stroke:#babcbe;stroke-miterlimit:10;}</style></defs><title>Ресурс 92</title><g id="Слой_2" data-name="Слой 2"><g id="Layer_2" data-name="Layer 2"><circle class="cls-1" cx="34.37" cy="20.89" r="0.78"/><circle class="cls-1" cx="6.53" cy="20.89" r="0.78"/><circle class="cls-1" cx="20.65" cy="34.62" r="0.78"/><path class="cls-1" d="M19.77,27.17H13.11v-.79c0-1.54,1.42-2.84,2.92-4.21,1.24-1.14,2.65-2.43,2.65-3.52a2,2,0,0,0-2-2A2.11,2.11,0,0,0,14.37,19a.78.78,0,1,1-1.56,0,3.63,3.63,0,0,1,3.87-3.87,3.53,3.53,0,0,1,3.57,3.56c0,1.78-1.61,3.25-3.16,4.68A12.69,12.69,0,0,0,15,25.6h4.82a.79.79,0,1,1,0,1.57Z"/><path class="cls-1" d="M26,27.17a.78.78,0,0,1-.78-.79V24H21.28a.79.79,0,0,1-.68-.41.77.77,0,0,1,0-.79l4.71-7.45a.77.77,0,0,1,.88-.34.78.78,0,0,1,.56.75v6.67h1.57a.79.79,0,1,1,0,1.57H26.77v2.35A.78.78,0,0,1,26,27.17Zm-3.28-4.71h2.5v-4Z"/><path class="cls-1" d="M20.5,40.5A20,20,0,1,1,32.74,4.68,1.18,1.18,0,1,1,31.3,6.54,17.49,17.49,0,0,0,20.5,2.85,17.65,17.65,0,1,0,38.15,20.5a1.18,1.18,0,1,1,2.35,0A20,20,0,0,1,20.5,40.5Z"/><path class="cls-1" d="M33.83,8.74H28.34a1.18,1.18,0,0,1,0-2.36h4.32V2A1.18,1.18,0,0,1,35,2V7.56A1.18,1.18,0,0,1,33.83,8.74Z"/><circle class="cls-1" cx="20.65" cy="7.17" r="0.78"/></g></g></svg>