<svg xmlns="http://www.w3.org/2000/svg" viewBox="0 0 61 61"><defs><style>.cls-1{fill:none;stroke:#babcbe;stroke-miterlimit:10;}</style></defs><title>Ресурс 61</title><g id="Слой_2" data-name="Слой 2"><g id="Layer_2" data-name="Layer 2"><path class="cls-1" d="M30.5,16.44A14.06,14.06,0,1,0,44.56,30.5,14.08,14.08,0,0,0,30.5,16.44Zm1.76,22.85H28.74V35.77h3.52Zm1.32-9.78a3.15,3.15,0,0,0-1.32,2.57V34H28.74V32.26a6.78,6.78,0,0,1,2.78-5.6,1.76,1.76,0,1,0-2.78-1.43H25.23a5.27,5.27,0,1,1,8.35,4.28Z"/><path class="cls-1" d="M58.36,41.23A29.7,29.7,0,0,0,60.5,30.5a29.7,29.7,0,0,0-2.14-10.73L47.08,24.9a17.44,17.44,0,0,1,1.12,5.6,17.44,17.44,0,0,1-1.12,5.6Z"/><path class="cls-1" d="M15.38,21.7a17.56,17.56,0,0,1,6.32-6.32L16.56,4.09A30.1,30.1,0,0,0,4.09,16.56Z"/><path class="cls-1" d="M39.3,15.38a17.41,17.41,0,0,1,6.32,6.32l11.29-5.14A30.1,30.1,0,0,0,44.44,4.09Z"/><path class="cls-1" d="M24.9,13.92a17.44,17.44,0,0,1,5.6-1.12,17.44,17.44,0,0,1,5.6,1.12L41.23,2.64A29.7,29.7,0,0,0,30.5.5,29.7,29.7,0,0,0,19.77,2.64Z"/><path class="cls-1" d="M36.1,47.08a17.44,17.44,0,0,1-5.6,1.12,17.44,17.44,0,0,1-5.6-1.12L19.77,58.36A29.74,29.74,0,0,0,30.5,60.5a29.7,29.7,0,0,0,10.73-2.14Z"/><path class="cls-1" d="M45.62,39.3a17.56,17.56,0,0,1-6.32,6.32l5.14,11.29A30.1,30.1,0,0,0,56.91,44.44Z"/><path class="cls-1" d="M21.7,45.62a17.56,17.56,0,0,1-6.32-6.32L4.09,44.44A30.1,30.1,0,0,0,16.56,56.91Z"/><path class="cls-1" d="M2.64,19.77A29.7,29.7,0,0,0,.5,30.5,29.7,29.7,0,0,0,2.64,41.23L13.92,36.1a17.44,17.44,0,0,1-1.12-5.6,17.44,17.44,0,0,1,1.12-5.6Z"/></g></g></svg>