<svg xmlns="http://www.w3.org/2000/svg" viewBox="0 0 60.5 61.2"><defs><style>.cls-1,.cls-2{fill:none;stroke:#babcbe;stroke-miterlimit:10;}.cls-2{stroke-width:1.2px;}</style></defs><title>Ресурс 53</title><g id="Слой_2" data-name="Слой 2"><g id="Layer_2" data-name="Layer 2"><path class="cls-1" d="M32.46,40.23c-.3-.33-.6-.65-.89-1a8.7,8.7,0,0,1-.75-1C30.1,37.14,29.41,36,28.7,34.8l-.27-.42-7.29,3.75-1.42-1.44a6.23,6.23,0,0,1,.84-.65c1.35-.71,2.72-1.4,4.18-2.15l-.48-.19a6.68,6.68,0,0,1-3.55-3.11A3.65,3.65,0,0,1,23.5,25a21.66,21.66,0,0,1,2.55-.12c.67,0,1.33,0,2,0v-2.5H18.63a.86.86,0,0,1-.69-.28c-.35-.37-.74-.72-1.12-1.07A1.25,1.25,0,0,1,18,20.42q11.25,0,22.51,0a1,1,0,0,1,.8.32c.34.37.72.71,1.08,1.05a1.19,1.19,0,0,1-1.18.62c-1,0-2.08,0-3.18,0V23c0,4.69,0,9.39,0,14.08a1.25,1.25,0,0,1-.61,1.17c-.42-.42-.87-.84-1.27-1.29A.86.86,0,0,1,36,36.4c0-4.48,0-9,0-13.43v-.53h-6v3.4a.93.93,0,0,1-1,1c-1.38,0-2.75,0-4.13.06a4.14,4.14,0,0,0-1.14.24,2.37,2.37,0,0,0-.68,4.15,5.12,5.12,0,0,0,2.95,1c.35,0,.7,0,1.12,0-.13-.26-.23-.47-.32-.68a1.62,1.62,0,0,1,.23-2,1.72,1.72,0,0,1,2.08-.29A3.36,3.36,0,0,1,31,31.44,1.44,1.44,0,0,1,30.62,33c-.3.31-.65.57-1,.89l3.5,5.78-.56.59Z"/><path class="cls-1" d="M38.62,15.77,37,17.44,35.4,15.77,37,14.12Z"/><path class="cls-2" d="M35.38,11.06a7.91,7.91,0,0,0-11.58,0h0"/><path class="cls-2" d="M40.52,9.21a15.72,15.72,0,0,0-21.86,0"/><path class="cls-2" d="M45.67,6.93a23.59,23.59,0,0,0-32.16,0"/><path class="cls-2" d="M23.8,50.14a7.91,7.91,0,0,0,11.58,0h0"/><path class="cls-2" d="M18.66,52a15.72,15.72,0,0,0,21.86,0"/><path class="cls-2" d="M13.51,54.27a23.59,23.59,0,0,0,32.16,0"/><path class="cls-2" d="M11.06,24.54a7.9,7.9,0,0,0,0,11.57h0"/><path class="cls-2" d="M9.21,19.4a15.71,15.71,0,0,0,0,21.85"/><path class="cls-2" d="M6.93,14.24a23.59,23.59,0,0,0,0,32.16"/><path class="cls-2" d="M49.44,36.11a7.9,7.9,0,0,0,0-11.57h0"/><path class="cls-2" d="M51.29,41.25a15.71,15.71,0,0,0,0-21.85"/><path class="cls-2" d="M53.57,46.4a23.59,23.59,0,0,0,0-32.16"/></g></g></svg>