<svg xmlns="http://www.w3.org/2000/svg" viewBox="0 0 74.18 61.2"><defs><style>.cls-1{fill:none;stroke:#babcbe;stroke-miterlimit:10;stroke-width:1.2px;}</style></defs><title>Ресурс 60</title><g id="Слой_2" data-name="Слой 2"><g id="Layer_2" data-name="Layer 2"><path class="cls-1" d="M19.91,29.71H54.26a.47.47,0,0,0,.42-.24.48.48,0,0,0,0-.48L48.52,18.9a.49.49,0,0,0-.41-.23h-22a.49.49,0,0,0-.41.23L19.51,29a.47.47,0,0,0,.4.72Z"/><path class="cls-1" d="M10.69,44.85h52.8a.48.48,0,0,0,.41-.73L57.75,34a.49.49,0,0,0-.41-.23H16.84a.49.49,0,0,0-.41.23L10.28,44.12a.48.48,0,0,0,0,.48.48.48,0,0,0,.42.25Z"/><path class="cls-1" d="M29.14,14.58H45a.47.47,0,0,0,.4-.72L37.5.83a.48.48,0,0,0-.82,0l-7.94,13a.47.47,0,0,0,.4.72Z"/><path class="cls-1" d="M73.51,59.88,67,49.16a.48.48,0,0,0-.41-.22h-59a.48.48,0,0,0-.41.22L.67,59.88a.48.48,0,0,0,0,.48.47.47,0,0,0,.42.24h72a.49.49,0,0,0,.42-.24.48.48,0,0,0,0-.48Z"/></g></g></svg>