<svg xmlns="http://www.w3.org/2000/svg" viewBox="0 0 56.68 61"><defs><style>.cls-1{fill:none;stroke:#babcbe;stroke-miterlimit:10;}</style></defs><title>Ресурс 63</title><g id="Слой_2" data-name="Слой 2"><g id="Layer_2" data-name="Layer 2"><path class="cls-1" d="M36.52,44.7A20.5,20.5,0,1,1,37.83,6.23,20.53,20.53,0,0,1,50.56,23.85a20.59,20.59,0,0,1-2.25,10.82l2.8,2.8A24.29,24.29,0,0,0,30.38.5,24,24,0,0,0,20,2.83a24.26,24.26,0,0,0-14,22v4L1,38.33c-1.25,2.39-.07,4.34,2.63,4.34H6v9a5.11,5.11,0,0,0,5.11,5.11l7-1L18,59.14h0a1.4,1.4,0,0,0,1.73,1.33l25.36-.83a2.19,2.19,0,0,0,1.73-2.07V50.65l-7.22-7.23a20.52,20.52,0,0,1-3.07,1.28Z"/><path class="cls-1" d="M55.28,46,44.61,35.34l-.58.58-.58-.59a16,16,0,1,0-3.22,3.22l.59.59-.58.57L50.91,50.38A3.09,3.09,0,1,0,55.28,46Zm-16-11.57a12.3,12.3,0,1,1,0-17.39,12.3,12.3,0,0,1,0,17.39Z"/></g></g></svg>