<svg xmlns="http://www.w3.org/2000/svg" viewBox="0 0 72.71 61"><defs><style>.cls-1{fill:none;stroke:#babcbe;stroke-miterlimit:10;}</style></defs><title>Ресурс 54</title><g id="Слой_2" data-name="Слой 2"><g id="Layer_2" data-name="Layer 2"><path class="cls-1" d="M33.52,60.5l.34-.45c-.68-.54-1.38-1.06-2-1.63-2-1.75-1.59-4.06-1.38-6.29,0-.21.69-.53,1-.48,1.47.19,2.91.61,4.38.72,1.89.14,3.86.59,5.63-.66s2.61-2.09,1.56-4.5a3.13,3.13,0,0,1,.28-2.08c.29-.73,1-1.32,1.22-2.06a5.71,5.71,0,0,0,.13-2.81c-.47-1.78-.33-2.22,1.42-2.66,2.25-.55,2.89-1.94,1.77-4-1.3-2.39-2.7-4.74-4-7.14a2.14,2.14,0,0,1,0-1.33c.32-1.38,1.07-2.76,1-4.1-.31-6-2.11-11.5-6.39-15.84a14.17,14.17,0,0,0-9-4.18A63.8,63.8,0,0,0,19.12.59,19.1,19.1,0,0,0,9.61,4.25a23.56,23.56,0,0,0-7.8,9.94A16.47,16.47,0,0,0,.83,19c-.15,1.2,0,2.44,0,3.65A16.1,16.1,0,0,0,2.89,31C4.84,34.69,7,38.22,9.18,41.77c1.19,2,.9,4,.33,6a24.51,24.51,0,0,1-7.3,11.12,8.73,8.73,0,0,1-1.49.94l.47.65ZM70.58,45.92a4.73,4.73,0,0,0-.19-7.3A4.35,4.35,0,0,0,65.5,38a48.55,48.55,0,0,0-4.73,2.23c-3.86,2.13-7.72,1.75-11.63.19a5,5,0,0,0-1.23-.17,4.28,4.28,0,0,0,.45,1.29c3.58,4.59,9.85,4.45,14,1.69,1.59-1.07,3.11-2.27,5.16-2.38A1.87,1.87,0,0,1,69.57,42a2,2,0,0,1-.5,2.43,1.37,1.37,0,0,1-2,.18,5,5,0,0,0-.78-.36A2.71,2.71,0,0,0,70.58,45.92ZM60.26,52.59A2.52,2.52,0,0,0,63,53c1.35-.71,1.48-2,1.51-3.31a2.5,2.5,0,0,0-2-2.58,19.79,19.79,0,0,0-4.93-.77c-3.14,0-6-.52-8.37-2.78a3.65,3.65,0,0,0-.77-.37c.08.5,0,.88.19,1.1a10.78,10.78,0,0,0,1.85,2.17A12.84,12.84,0,0,0,60,49c.82-.09,1.76-.17,2,.85a1.81,1.81,0,0,1-.36,1.49c-.19.2-.9-.07-1.37-.17a3.27,3.27,0,0,1-.71-.41A1.37,1.37,0,0,0,60.26,52.59Zm-12-13.07c3.17,1,6.36,1.55,9.33-.51,1.51-1.06,2.83-2.34,2.64-4.46a2.85,2.85,0,0,0-1.6-2.25,1.11,1.11,0,0,0-.8,0c-.09,0-.11.45,0,.64a2.88,2.88,0,0,1-1.22,3.83c-2.33,1.54-5,1.74-7.68,1.89l-1.12.09-.05.29C47.9,39.22,48.05,39.45,48.26,39.52Z"/><path class="cls-1" d="M1.19,60.5H33.52l.34-.45c-.68-.54-1.38-1.06-2-1.63-2-1.75-1.59-4.06-1.38-6.29,0-.21.69-.53,1-.48,1.47.19,2.91.61,4.38.72,1.89.14,3.86.59,5.63-.66s2.61-2.09,1.56-4.5a3.13,3.13,0,0,1,.28-2.08c.29-.73,1-1.32,1.22-2.06a5.71,5.71,0,0,0,.13-2.81c-.47-1.78-.33-2.22,1.42-2.66,2.25-.55,2.89-1.94,1.77-4-1.3-2.39-2.7-4.74-4-7.14a2.14,2.14,0,0,1,0-1.33c.32-1.38,1.07-2.76,1-4.1-.31-6-2.11-11.5-6.39-15.84a14.17,14.17,0,0,0-9-4.18A63.8,63.8,0,0,0,19.12.59,19.1,19.1,0,0,0,9.61,4.25a23.56,23.56,0,0,0-7.8,9.94A16.47,16.47,0,0,0,.83,19c-.15,1.2,0,2.44,0,3.65A16.1,16.1,0,0,0,2.89,31C4.84,34.69,7,38.22,9.18,41.77c1.19,2,.9,4,.33,6a24.51,24.51,0,0,1-7.3,11.12,8.73,8.73,0,0,1-1.49.94Z"/></g></g></svg>