<svg xmlns="http://www.w3.org/2000/svg" viewBox="0 0 65.37 41"><defs><style>.cls-1{fill:none;stroke:#babcbe;stroke-miterlimit:10;}</style></defs><title>Ресурс 55</title><g id="Слой_2" data-name="Слой 2"><g id="Layer_2" data-name="Layer 2"><path class="cls-1" d="M64.62,21.49a2,2,0,0,0,0-2,36.33,36.33,0,0,0-63.87,0,2.1,2.1,0,0,0,0,2,36.33,36.33,0,0,0,63.87,0ZM32.69,35.84A15.34,15.34,0,1,1,48,20.5,15.34,15.34,0,0,1,32.69,35.84Z"/><path class="cls-1" d="M32.69,12.68a7.74,7.74,0,0,0-1.88.23,4,4,0,0,1,1,2.65,4.06,4.06,0,0,1-6.71,3.07,8.18,8.18,0,0,0-.22,1.87,7.82,7.82,0,1,0,7.82-7.82Z"/></g></g></svg>