<svg xmlns="http://www.w3.org/2000/svg" viewBox="0 0 20.18 61"><defs><style>.cls-1{fill:none;stroke:#babcbe;stroke-miterlimit:10;}</style></defs><title>Ресурс 66</title><g id="Слой_2" data-name="Слой 2"><g id="Layer_2" data-name="Layer 2"><path class="cls-1" d="M15.25,60.5l.79-.35a.41.41,0,0,0,.09-.76L14.3,58a.77.77,0,0,0-.21-.14,4.55,4.55,0,0,1-1.95-1.54,3.93,3.93,0,0,0,0-2.64,2,2,0,0,1,0-1.56,13,13,0,0,0,.43-1.89c.12-.55.19-1.1.36-1.63A27,27,0,0,0,13.9,43a26.64,26.64,0,0,1,.7-3.24c.17-.73.3-1.47.44-2.2.22-1.17.47-2.34.64-3.52a12.54,12.54,0,0,0,.06-1.94c0-.26,0-.51.32-.53l-.19-3.37,1,.9a.14.14,0,0,1,.07.1c0,.85.6,1.46.85,2.24l-.66.25a3.33,3.33,0,0,0,.71.46,1.47,1.47,0,0,0,1.78-.68,1.3,1.3,0,0,0,0-1,6.6,6.6,0,0,0-1-1.89A18.71,18.71,0,0,1,16,24.27a4.53,4.53,0,0,1-.59-3.15c.19-.81.28-1.64.39-2.47,0-.35,0-.72.06-1.08.08-.63.15-1.26.28-1.88A5.59,5.59,0,0,0,16,13.35a1,1,0,0,0-.35-.5,4.44,4.44,0,0,1-1.3-2c-.11-.28-.21-.57-.31-.86A.94.94,0,0,1,15,8.67c.92,0,1.12-.21,1-1.13a.62.62,0,0,1,0-.23l.41-1.19c.39-.13.42-.18.18-.66-.13-.26-.28-.48,0-.77.12-.12.07-.42,0-.63a2.23,2.23,0,0,0-.16-.56,1.46,1.46,0,0,1,0-1.47A.85.85,0,0,0,15.69.84c-.51,0-1,0-1.54-.08a7.1,7.1,0,0,1-1-.26H13a2.09,2.09,0,0,1-.88.35,1.17,1.17,0,0,0-.65.28,12.52,12.52,0,0,0-.92,1.28,2.59,2.59,0,0,0-.33,2c.08.45.1.91.2,1.36s.24.73.35,1.09c.06.19.15.42.08.57a4.36,4.36,0,0,1-.64,1c-.09.11-.35.09-.54.11-.6.08-1.21.13-1.81.22A1,1,0,0,0,7.32,9c-.49.53-1,1.08-1.42,1.64a2.19,2.19,0,0,0-.56,1.68,1.44,1.44,0,0,1-.14.56c-.38,1.13-.77,2.25-1.15,3.39a3.51,3.51,0,0,0-.14.85,3.09,3.09,0,0,1-.58,1.62,1.3,1.3,0,0,0-.14,1.19c.77,2.14,1.06,4.41,1.72,6.57a4.87,4.87,0,0,1,0,1.94c-.08.77-.17,1.54-.18,2.32A2.2,2.2,0,0,0,6.19,33a.58.58,0,0,1,.31.34c.22,1,.39,2,.62,2.92s.54,2.21.85,3.3a3,3,0,0,1-.81,3.12,29.57,29.57,0,0,0-2,2.46,2.93,2.93,0,0,0-.31.58A13.32,13.32,0,0,1,3,48.8c-.36.42-.62.92-1,1.35A9.73,9.73,0,0,1,.89,51.39a1.18,1.18,0,0,0-.34,1.27c.12.6.2,1.2.29,1.8A7.37,7.37,0,0,0,1.92,58a3.87,3.87,0,0,0,2,1.46.67.67,0,0,0,.87-.54,14.86,14.86,0,0,0,0-2.11c0-.92-.19-1.82-.28-2.73a.6.6,0,0,1,.08-.35q1.17-2.16,2.35-4.31a12.47,12.47,0,0,1,2.58-3c-.12.66-.29,1.31-.37,2-.25,2-.5,4.08-.69,6.12a10.1,10.1,0,0,0,.19,1.8.88.88,0,0,1,0,.28c-.08.69-.19,1.37-.24,2.06s.11.74.68.82c1.27.2,2.55.37,3.83.57.68.11,1.35.27,2,.41Z"/></g></g></svg>