<svg xmlns="http://www.w3.org/2000/svg" viewBox="0 0 50.48 70.75"><defs><style>.cls-1{fill:none;stroke:#babcbe;stroke-miterlimit:10;stroke-width:0.75px;}</style></defs><title>Ресурс 56</title><g id="Слой_2" data-name="Слой 2"><g id="Layer_2" data-name="Layer 2"><path class="cls-1" d="M50,57.9A3.1,3.1,0,0,0,48,54C40.69,51.75,37.61,38.75,36.88,34a4.8,4.8,0,0,0-.45-1.34c-1.33-2.53-6.38-3.72-6.95-3.78a1.27,1.27,0,0,1-1.19-1.17c1.78-1.24,3-4.23,3-6.93,0-4-.42-7.23-5.85-7.23H25c-5.44,0-5.86,3.23-5.86,7.23,0,2.7,1.21,5.69,3,6.93a1.29,1.29,0,0,1-1.19,1.17c-.62.06-6.41,1.43-7.19,4.38,0,0-.09.42-.15.75a49.5,49.5,0,0,1-2.4,9.35C9.65,47.45,6.91,52.66,2.54,54a3.09,3.09,0,0,0,.89,6,5.31,5.31,0,0,0-3,4.67,5.71,5.71,0,0,0,1.23,3.11c.91,1.16,2.73,2.54,6.21,2.54a15.83,15.83,0,0,0,1.64-.1c2.31-.25,4.64-.62,6.9-1l2.45-.39a50.65,50.65,0,0,1,5.85-.33h.95a50.81,50.81,0,0,1,5.85.33L34,69.3c2.26.36,4.59.73,6.9,1a15.83,15.83,0,0,0,1.64.1c3.48,0,5.29-1.39,6.2-2.54A5.66,5.66,0,0,0,50,64.73a5.31,5.31,0,0,0-3-4.67h0A3.1,3.1,0,0,0,50,57.9Zm-36.06-.39a15.4,15.4,0,0,1-3.27.73L9,58.49c-.69.07-1.33.17-1.92.29,4-2.22,7.28-6.46,9.68-12.65a34.49,34.49,0,0,1,.22,4c0,4.77-2.41,7.2-3,7.39Zm27.53,1c-.7-.11-1.24-.2-1.68-.25-4.21-.52-6.29-3.35-6.29-8.12A37.16,37.16,0,0,1,33.7,46c2.42,6.3,5.71,10.6,9.78,12.83a20.55,20.55,0,0,0-2-.31Z"/><circle class="cls-1" cx="25.24" cy="4.74" r="4.36"/></g></g></svg>