<svg xmlns="http://www.w3.org/2000/svg" viewBox="0 0 46.21 61.14"><defs><style>.cls-1{fill:none;stroke:#babcbe;stroke-miterlimit:10;}</style></defs><title>Ресурс 65</title><g id="Слой_2" data-name="Слой 2"><g id="Layer_2" data-name="Layer 2"><path class="cls-1" d="M.65,54.38C2,56.4,3.17,58.21,4.37,60a.65.65,0,0,0,.43.28c1.36,0,2.73,0,4.17,0a4.48,4.48,0,0,0-.61-1.26,2.07,2.07,0,0,0-1.08-.4.89.89,0,0,1-.87-.85A.79.79,0,0,1,6.68,57q4.26-3.86,8.49-7.76a3.59,3.59,0,0,0,.76-1c1.78-3.21,3.54-6.44,5.35-9.75l16.8,22,7.27-4c-.47-.43-.89-.83-1.33-1.2a.65.65,0,0,0-.46-.09l-2.75.58L37.1,49.92q-6-9.56-12-19.12a1.32,1.32,0,0,1-.26-.72c.13-2.26.29-4.52.46-6.91a2,2,0,0,1,.24.36A6.73,6.73,0,0,0,28,26.31c1.25.85,2.44,1.8,3.66,2.71l.54-.4c.5.35,1,.71,1.48,1.05a1.54,1.54,0,1,0,1.86-2.45c-2.13-1.71-4.27-3.42-6.41-5.11a1.32,1.32,0,0,1-.52-.89c-.3-2-.66-4-1-5.94A3.54,3.54,0,0,0,26.37,13c-.82-.67-1.66-1.33-2.45-2a.94.94,0,0,1-.26-.77,1.07,1.07,0,0,1,.68-.58,2.59,2.59,0,0,0,2.29-2.67c0-.41-.06-.83-.08-1.24a4.34,4.34,0,0,1,0-1c.58-2.85-1.62-4.4-4-4.12a5.84,5.84,0,0,0-1.72.54,3.43,3.43,0,0,0-1.76,3.71c.12,1,.43,1.88.57,2.83a8.14,8.14,0,0,1,0,1.91A1.75,1.75,0,0,1,18.52,11c-.87.41-1.73.84-2.62,1.24a4.61,4.61,0,0,0-2.28,2.12c-1.12,2.08-2.28,4.14-3.41,6.23a2.3,2.3,0,0,0-.28.85c-.29,2.58-.56,5.16-.83,7.75,0,.26-.13.56.27.68.05,0,.07.24.06.37,0,.49-.08,1-.1,1.48a1.54,1.54,0,0,0,3.06.3l1.26-8.08a1.15,1.15,0,0,1,.13-.49c.82-1.25,1.65-2.48,2.58-3.88v.64c-.07,2.22-.12,4.44-.21,6.66a2.42,2.42,0,0,1-.32,1.07,6.68,6.68,0,0,0-.68,5.31,1.07,1.07,0,0,1,0,.64c-1.5,3.21-3,6.43-4.56,9.59A16.8,16.8,0,0,1,8.5,46.32a39.41,39.41,0,0,1-2.69,3.09C4.13,51.1,2.37,52.73.65,54.38Z"/></g></g></svg>