<svg xmlns="http://www.w3.org/2000/svg" viewBox="0 0 61 61"><defs><style>.cls-1{fill:none;stroke:#babcbe;stroke-miterlimit:10;}</style></defs><title>Ресурс 62</title><g id="Слой_2" data-name="Слой 2"><g id="Layer_2" data-name="Layer 2"><path class="cls-1" d="M28.88,34.6a4.76,4.76,0,1,1-2.48-2.48l4.3-4.31a10.66,10.66,0,1,0,2.49,2.49Z"/><path class="cls-1" d="M38.68,36.48A14.16,14.16,0,1,1,33.21,25.3l7-7a24.07,24.07,0,1,0,2.49,2.49l-7,7A14.1,14.1,0,0,1,38.68,36.48Z"/><path class="cls-1" d="M54.64,6.32V.5H52L44.18,8.36v6l-4,4a24.39,24.39,0,0,1,2.49,2.49l4-4h6L60.5,9V6.21Z"/></g></g></svg>