<svg xmlns="http://www.w3.org/2000/svg" viewBox="0 0 52.96 86.2"><defs><style>.cls-1{fill:none;stroke:#babcbe;stroke-miterlimit:10;stroke-width:1.2px;}</style></defs><title>Ресурс 64</title><g id="Слой_2" data-name="Слой 2"><g id="Layer_2" data-name="Layer 2"><path class="cls-1" d="M26.69,20.61a29.45,29.45,0,0,1,.56-3.73,3.56,3.56,0,0,1,.43-1.11A6.87,6.87,0,0,1,29.18,14a6.75,6.75,0,0,1,9.44.76,8.17,8.17,0,0,1,1.93,6.34,10.6,10.6,0,0,1-4.17,7.2,9.79,9.79,0,0,1-5.78,1.93l.34-1.41a9.32,9.32,0,0,0,6.26-5.58,5.46,5.46,0,0,0-1.74-6.32,3.9,3.9,0,0,0-5.4.61,5.4,5.4,0,0,0-.9,5.32Z"/><path class="cls-1" d="M14.71,17.88a5.62,5.62,0,1,1,10,3.4,7.28,7.28,0,0,1-2.53,14.18A8.36,8.36,0,0,1,18,34.23a11.1,11.1,0,0,1-3.61-3.57A11.59,11.59,0,0,1,13,27.47a20.21,20.21,0,0,1-.66-4.89l1.42.72a13.54,13.54,0,0,0,1.53,4.31,8.17,8.17,0,0,0,2.86,3,5.61,5.61,0,0,0,4,.73,3.92,3.92,0,0,0,3.11-3.21,5.77,5.77,0,0,0-.83-4,2.46,2.46,0,0,0-1.06-.91c-.33-.15-.67-.28-1-.4a10.33,10.33,0,0,1-2.69.63,2.71,2.71,0,0,1-1.9-.53l1.47-2.59a3.44,3.44,0,0,0,3.25-.63A2.47,2.47,0,0,0,23.28,17a3,3,0,0,0-4.22-1.78,2.38,2.38,0,0,0-1.26,2.48Z"/><path class="cls-1" d="M28.43,2.7a2.11,2.11,0,1,0-2.1,2.11A2.1,2.1,0,0,0,28.43,2.7Z"/><path class="cls-1" d="M20.73,5.48l-1.18.71a17.08,17.08,0,0,0,2,2.89,4.65,4.65,0,0,0,2.08,1.38A15.63,15.63,0,0,0,28,11.2a6.71,6.71,0,0,0,3.47-.87,18.05,18.05,0,0,0,4.09-3.18l-3.19-2a9.55,9.55,0,0,1-5.7,3.25,3.2,3.2,0,0,1-1.27,0,11.66,11.66,0,0,1-2.87-1A3.65,3.65,0,0,1,20.73,5.48Z"/><path class="cls-1" d="M27.55,43.49a1.57,1.57,0,0,0-2.15,0c-.26.27-6.5,6.65-6.5,14.72s6.24,14.44,6.5,14.71a1.51,1.51,0,0,0,1.08.45,1.49,1.49,0,0,0,1.07-.45c.27-.27,6.51-6.65,6.51-14.71S27.82,43.76,27.55,43.49Z"/><path class="cls-1" d="M14.35,79.43a16.7,16.7,0,0,0,9-3A19.71,19.71,0,0,1,6.45,66.62,26.3,26.3,0,0,0,1,70.84a1.5,1.5,0,0,0,0,2C1.23,73.13,7.06,79.43,14.35,79.43Z"/><path class="cls-1" d="M46.51,66.62A19.72,19.72,0,0,1,29.58,76.4a16.7,16.7,0,0,0,9,3c7.29,0,13.12-6.3,13.36-6.57a1.5,1.5,0,0,0,0-2A26.3,26.3,0,0,0,46.51,66.62Z"/><path class="cls-1" d="M46.19,56.69v-3a1.52,1.52,0,0,0-1.52-1.52h-3a16.53,16.53,0,0,0-5.3.86,19.86,19.86,0,0,1,.75,5.21c0,6.78-3.63,12.33-5.82,15.06A16.7,16.7,0,0,0,46.19,56.69Z"/><path class="cls-1" d="M8.28,52.14a1.51,1.51,0,0,0-1.51,1.52v3A16.69,16.69,0,0,0,21.69,73.27c-2.2-2.73-5.83-8.28-5.83-15.06A19.86,19.86,0,0,1,16.62,53a16.53,16.53,0,0,0-5.3-.86Z"/><path class="cls-1" d="M20.8,81.15a20.83,20.83,0,0,0,4.94,4.26,1.48,1.48,0,0,0,.74.19,1.51,1.51,0,0,0,.74-.19,20.83,20.83,0,0,0,4.94-4.26,24,24,0,0,1-5.68-3.23A24,24,0,0,1,20.8,81.15Z"/></g></g></svg>