<svg xmlns="http://www.w3.org/2000/svg" viewBox="0 0 47.62 61.2"><defs><style>.cls-1{fill:none;stroke:#babcbe;stroke-miterlimit:10;stroke-width:1.2px;}</style></defs><title>Ресурс 57</title><g id="Слой_2" data-name="Слой 2"><g id="Layer_2" data-name="Layer 2"><path class="cls-1" d="M35.86,14.35C30.44,7,25,1.13,24.89,1.07a1.48,1.48,0,0,0-2.16,0,170.1,170.1,0,0,0-11,13.28C4.35,24.34.6,32.09.6,37.39a23.21,23.21,0,0,0,46.42,0c0-5.3-3.75-13-11.16-23ZM26.13,53.09A16.22,16.22,0,0,1,6.2,37.32c0-1.23.38-3.46,2.19-7.09A.84.84,0,0,1,10,30.7a8.71,8.71,0,0,0-.06,1A20.22,20.22,0,0,0,26.1,51.45a.82.82,0,0,1,.67.81.84.84,0,0,1-.64.83Z"/></g></g></svg>