<svg xmlns="http://www.w3.org/2000/svg" viewBox="0 0 59.98 61.22"><defs><style>.cls-1{fill:none;stroke:#babcbe;stroke-miterlimit:10;}</style></defs><title>Ресурс 58</title><g id="Слой_2" data-name="Слой 2"><g id="Layer_2" data-name="Layer 2"><path class="cls-1" d="M36.58,60.72c-.68-.76-1.38-1.49-2-2.26a19.85,19.85,0,0,1-1.71-2.19c-1.66-2.65-3.26-5.34-4.88-8-.19-.3-.39-.6-.63-1L10.56,55.9,7.32,52.59A13.7,13.7,0,0,1,9.23,51.1c3.11-1.65,6.26-3.23,9.61-4.94l-1.09-.46a15.21,15.21,0,0,1-8.16-7.14c-3-5.86-.1-11.7,6.4-12.77a44.05,44.05,0,0,1,5.87-.27c1.53,0,3.05,0,4.65,0V19.77H25.38c-6.86,0-13.72,0-20.58,0a2,2,0,0,1-1.58-.63C2.4,18.29,1.5,17.5.65,16.68A2.82,2.82,0,0,1,3.28,15.2q25.88.06,51.75,0a2.23,2.23,0,0,1,1.83.74c.79.86,1.66,1.63,2.48,2.42a2.75,2.75,0,0,1-2.7,1.43c-2.39-.1-4.78,0-7.31,0V21c0,10.79,0,21.58,0,32.37A2.86,2.86,0,0,1,48,56.08c-1-1-2-1.92-2.92-3a1.93,1.93,0,0,1-.26-1.2q0-15.44,0-30.87V19.83H31.11v7.82A2.13,2.13,0,0,1,28.75,30c-3.17,0-6.33,0-9.49.12a9.51,9.51,0,0,0-2.62.56c-4.76,1.59-4.58,7.16-1.58,9.54a11.76,11.76,0,0,0,6.8,2.27c.79.06,1.59,0,2.56,0-.28-.59-.52-1.08-.74-1.57-.86-1.91-.68-3.39.53-4.61a4,4,0,0,1,4.8-.68,7.78,7.78,0,0,1,4.15,4.87A3.33,3.33,0,0,1,32.35,44c-.68.71-1.49,1.3-2.34,2l8.06,13.3-1.29,1.35ZM29,39.72c-1.36.28-1.53.63-1,1.77Z"/><path class="cls-1" d="M50.76,4.51,47.05,8.35,43.35,4.5,47,.72Z"/><path class="cls-1" d="M29,39.72l-1,1.77C27.48,40.35,27.65,40,29,39.72Z"/></g></g></svg>