<svg xmlns="http://www.w3.org/2000/svg" viewBox="0 0 37.04 40"><defs><style>.cls-1{fill:#babcbe;}</style></defs><title>Ресурс 2</title><g id="Слой_2" data-name="Слой 2"><g id="Layer_2" data-name="Layer 2"><path class="cls-1" d="M36.79,23a11.06,11.06,0,0,0-2.73-6.25,6.91,6.91,0,0,0-8.2-2,9.37,9.37,0,0,0-4.2,4.3c-.21.37-.39.76-.57,1.14a12.11,12.11,0,0,1-.88,1.64c-.92,1.36-1.52,1.64-2.15,1.64a2.8,2.8,0,0,1-.66-.09,8.47,8.47,0,0,1-1.65-.68l-.16-.07a8,8,0,0,0,2.49-2.6A7.25,7.25,0,0,0,18.93,14,5.74,5.74,0,0,0,13.4,9.83a13.84,13.84,0,0,0-9.28,2.71.94.94,0,0,0-.32,1.38c.35.64.68,1.28,1,1.93l1.36,2.62.53-.34A2.49,2.49,0,0,0,7,18a14.9,14.9,0,0,1,4.38-2.27,4.54,4.54,0,0,1,3.41.18,1.86,1.86,0,0,1,1.16,1.78,1.82,1.82,0,0,1-1.09,1.66,7.23,7.23,0,0,1-5,.65l-1.07-.22L8,19.57l.21.65a7.84,7.84,0,0,1,.15,2.55c-.06,1.6-.13,3.25,1.36,3.84a4.49,4.49,0,0,0,2.72-.23,3.87,3.87,0,0,1,1.66-.29A3.22,3.22,0,0,1,16.66,28a3.86,3.86,0,0,1-.75,4.06A5.61,5.61,0,0,1,12.2,34a7.69,7.69,0,0,1-7.26-2.46,15,15,0,0,1-3.39-6.81c-.13-.56-.23-1.14-.32-1.7,0-.26-.08-.53-.13-.79l-.05-.3-.76-.08-.12.66c0,.24-.08.47-.11.71a18.93,18.93,0,0,0,2,10,12.06,12.06,0,0,0,6.62,6,10.06,10.06,0,0,0,3.68.7,10.28,10.28,0,0,0,3-.45,7.09,7.09,0,0,0,4.09-3c1.74-2.81,1.91-6,.5-9.78a6.73,6.73,0,0,0-.32-.73c.32,0,.62.07.93.08h.31a7.4,7.4,0,0,0,2-.24l-.38.73c-.07.12-.11.22-.16.31a1.07,1.07,0,0,0-.08.33,10.89,10.89,0,0,0,.83,6.27,6.12,6.12,0,0,0,5.63,3.53A6.7,6.7,0,0,0,32,36.21c3.12-1.77,4.78-4.65,5.05-8.77a20.92,20.92,0,0,0-.21-4.4Zm-.58,4.34c-.26,3.85-1.78,6.5-4.66,8.14a5.77,5.77,0,0,1-2.84.75,5.32,5.32,0,0,1-4.91-3.08,9.46,9.46,0,0,1-.86-4.71,4.43,4.43,0,0,0,3.29,2.85,6,6,0,0,0,1.41.16,7.26,7.26,0,0,0,6.75-5.1A9.66,9.66,0,0,0,34,19.47a3.24,3.24,0,0,0-3-2,3.47,3.47,0,0,0-2.17.79,10,10,0,0,0-2.12,2.65l-.16.27a12.23,12.23,0,0,1-2.39,3.17,4.73,4.73,0,0,1-3.31,1h-.29a10,10,0,0,1-1-.1L19,25.17l-.7-.07.3.64c.08.16.15.31.23.45.14.3.28.58.39.87,1.33,3.57,1.2,6.46-.44,9.09a6.23,6.23,0,0,1-3.64,2.64A9.31,9.31,0,0,1,9,38.56a11.23,11.23,0,0,1-6.18-5.65A18.2,18.2,0,0,1,.8,25a15.62,15.62,0,0,0,3.56,7.07,8.47,8.47,0,0,0,8,2.71,6.38,6.38,0,0,0,4.2-2.18,4.61,4.61,0,0,0,.89-4.84,4,4,0,0,0-3.19-2.45,4.49,4.49,0,0,0-2.06.32,3.87,3.87,0,0,1-2.18.25c-.91-.36-.93-1.4-.86-3.07a11.48,11.48,0,0,0,0-2.2l.62.13A8,8,0,0,0,15.18,20a2.67,2.67,0,0,0-.1-4.85,5.34,5.34,0,0,0-4-.23,15.46,15.46,0,0,0-4.62,2.4l-1-1.84c-.34-.66-.68-1.31-1-2-.11-.2-.11-.21.09-.35a13,13,0,0,1,8.76-2.56,5,5,0,0,1,4.83,3.59,6.5,6.5,0,0,1-.77,5.48,7,7,0,0,1-2.55,2.53l-.22.15-.66.47.64.28.79.37a9.79,9.79,0,0,0,1.81.73c1.54.38,2.47-.11,3.66-1.88a13.85,13.85,0,0,0,.94-1.73c.17-.38.34-.75.54-1.1a8.62,8.62,0,0,1,3.83-4,6.12,6.12,0,0,1,7.3,1.77A10.35,10.35,0,0,1,36,23.15a20.67,20.67,0,0,1,.2,4.23Zm-13-1.59a4.63,4.63,0,0,0,1.48-.87,12.86,12.86,0,0,0,2.56-3.36l.16-.27a9.45,9.45,0,0,1,1.94-2.45A2.7,2.7,0,0,1,31,18.23a2.43,2.43,0,0,1,2.24,1.57,8.84,8.84,0,0,1,.39,6.36,6.44,6.44,0,0,1-6,4.54,5.75,5.75,0,0,1-1.24-.14,3.64,3.64,0,0,1-2.85-2.88c0-.23-.09-.46-.13-.71Z"/><path class="cls-1" d="M18.89,10.93a7.62,7.62,0,0,0,4.87,2.26c.33,0,.65,0,1,0a13.37,13.37,0,0,0,6.66-1.88,10.51,10.51,0,0,0,2.49-2,1,1,0,0,0,.33-.78c0-.77-.91-1.48-1.92-2.3a10,10,0,0,1-1.48-1.36l-.31-.38L30,5.18l-.36.44a9.21,9.21,0,0,1-2.88,2.15A6.57,6.57,0,0,1,19.25,7a6.86,6.86,0,0,1-2.46-3.39l-.46-1.52L16,3.69a6.47,6.47,0,0,0,.23,3.22,9.56,9.56,0,0,0,2.63,4Zm-.14-3.27a7.36,7.36,0,0,0,8.34.82,9.85,9.85,0,0,0,3.13-2.34c.1-.11.2-.24.3-.37A16,16,0,0,0,31.8,6.89c.71.58,1.6,1.3,1.62,1.71a.22.22,0,0,1-.09.19A9.79,9.79,0,0,1,31,10.66a12.31,12.31,0,0,1-7.18,1.74,6.82,6.82,0,0,1-4.37-2A8.78,8.78,0,0,1,17,6.69a7.63,7.63,0,0,1-.27-1.21,8.78,8.78,0,0,0,2,2.18Z"/><path class="cls-1" d="M20.42,5.13c.59.55,1.18,1.11,1.77,1.64l1,1,1.07-1c.82-.8,1.62-1.58,2.41-2.37a.84.84,0,0,0,0-1C25.87,2.41,25,1.57,24.17.81L23.32,0l-.27.25-.9.79c-.62.54-1.2,1-1.76,1.6s-.85.83-.85,1.25.32.71.88,1.24Zm.52-1.92c.55-.53,1.13-1,1.74-1.58l.62-.55.32.3c.79.75,1.65,1.55,2.49,2.37-.78.79-1.57,1.56-2.39,2.35l-.53.52-.46-.43L21,4.55a3.87,3.87,0,0,1-.62-.66c0-.11.35-.44.6-.68Z"/></g></g></svg>