<svg xmlns="http://www.w3.org/2000/svg" viewBox="0 0 43.91 70.73"><defs><style>.cls-1,.cls-2{fill:none;stroke:#babcbe;stroke-miterlimit:10;}.cls-1{stroke-width:0.5px;}.cls-2{stroke-width:0.75px;}</style></defs><title>Ресурс 59</title><g id="Слой_2" data-name="Слой 2"><g id="Layer_2" data-name="Layer 2"><path class="cls-1" d="M22.86,16.75c-.18-.2-.38-.41-.56-.62a5.2,5.2,0,0,1-.46-.59c-.46-.73-.89-1.46-1.34-2.19a2.92,2.92,0,0,0-.17-.27l-4.58,2.35-.88-.9a3.62,3.62,0,0,1,.52-.41c.85-.45,1.71-.88,2.63-1.35l-.3-.12a4.15,4.15,0,0,1-2.23-2,2.29,2.29,0,0,1,1.75-3.49,12.16,12.16,0,0,1,1.6-.08h1.27V5.56H14.18a.5.5,0,0,1-.43-.18c-.23-.23-.47-.45-.71-.67a.79.79,0,0,1,.72-.41c4.72,0,9.43,0,14.14,0a.59.59,0,0,1,.5.2c.22.23.46.45.68.66a.74.74,0,0,1-.74.39c-.65,0-1.3,0-2,0v.35c0,2.94,0,5.89,0,8.84a.75.75,0,0,1-.38.73c-.26-.26-.54-.52-.8-.8a.59.59,0,0,1-.06-.33c0-2.81,0-5.63,0-8.44V5.58H21.37V7.72a.58.58,0,0,1-.65.64c-.86,0-1.73,0-2.59,0a2.57,2.57,0,0,0-.72.15A1.49,1.49,0,0,0,17,11.16a3.29,3.29,0,0,0,1.86.62h.7c-.08-.16-.14-.3-.2-.43a1,1,0,0,1,.14-1.26,1.08,1.08,0,0,1,1.31-.18,2.13,2.13,0,0,1,1.14,1.32.91.91,0,0,1-.22,1c-.19.2-.41.36-.64.56l2.2,3.63-.35.37ZM20.79,11c-.37.07-.42.17-.28.48Z"/><path class="cls-1" d="M26.73,1.4l-1,1-1-1,1-1Z"/><path class="cls-1" d="M20.79,11l-.28.48C20.37,11.19,20.42,11.09,20.79,11Z"/><path class="cls-2" d="M43.41,59.53a2.67,2.67,0,0,0-1.75-3.35c-6.3-2-9-13.26-9.6-17.42a4.1,4.1,0,0,0-.4-1.16c-1.15-2.2-5.53-3.23-6-3.29a1.1,1.1,0,0,1-1-1c1.55-1.08,2.59-3.68,2.59-6,0-3.46-.37-6.27-5.08-6.27h-.37c-4.72,0-5.09,2.81-5.09,6.27,0,2.34,1.05,4.94,2.59,6a1.1,1.1,0,0,1-1,1c-.53.06-5.56,1.25-6.23,3.81,0,0-.09.36-.14.65a41.57,41.57,0,0,1-2.08,8.11c-1.33,3.58-3.71,8.1-7.51,9.3A2.68,2.68,0,0,0,3,61.41a4.61,4.61,0,0,0-2.58,4,4.94,4.94,0,0,0,1.07,2.7c.79,1,2.37,2.2,5.38,2.2a14.18,14.18,0,0,0,1.43-.08c2-.22,4-.54,6-.86l2.13-.33a44.46,44.46,0,0,1,5.07-.29h.83a44.8,44.8,0,0,1,5.07.29l2.13.33c1.95.32,4,.64,6,.86a14.15,14.15,0,0,0,1.42.08c3,0,4.59-1.2,5.38-2.2a5,5,0,0,0,1.08-2.7,4.61,4.61,0,0,0-2.59-4h0a2.68,2.68,0,0,0,2.55-1.88Zm-31.29-.34a13.38,13.38,0,0,1-2.83.64L7.83,60c-.61.07-1.16.15-1.67.26,3.5-1.93,6.31-5.61,8.4-11a30.18,30.18,0,0,1,.19,3.46c0,4.14-2.1,6.25-2.63,6.41ZM36,60c-.62-.09-1.08-.17-1.46-.21-3.66-.45-5.47-2.91-5.47-7a30.11,30.11,0,0,1,.21-3.6c2.1,5.46,4.95,9.2,8.49,11.14A16.45,16.45,0,0,0,36,60Z"/></g></g></svg>