<svg xmlns="http://www.w3.org/2000/svg" viewBox="0 0 60 70"><defs><style>.cls-1{fill:#babcbe;}</style></defs><title>Ресурс 95</title><g id="Слой_2" data-name="Слой 2"><g id="Layer_2" data-name="Layer 2"><path class="cls-1" d="M59.43,37.84c-1.51-3.48-6.29-3.7-8.28-3.64a1.65,1.65,0,0,0-1.56,1.44l-.12.87-1-.19c-.09-1.37-.46-6.23-1.38-8.4a9,9,0,0,1-.63-2.23c-.26-1.82-.65-4-.74-4.47a15.31,15.31,0,0,0,.2-6.48,14.14,14.14,0,0,1,0-5.57l.92-1.52a3,3,0,0,0,.44-1.35,2.75,2.75,0,0,1,.23-1c.17-.4.41-.78.69-.85a.39.39,0,0,0,.29-.24.46.46,0,0,0-.51-.63,1.87,1.87,0,0,0-1.07,1,2.91,2.91,0,0,0-.73-.88l-.18-.15L46.42,1a.48.48,0,0,0-.26-.52.43.43,0,0,0-.59.34l-.5,2.64-.31.16L44.37.39A.45.45,0,0,0,43.88,0a.45.45,0,0,0-.38.5L43.93,4l-.26.14L42.34.91a.44.44,0,0,0-.5-.28.45.45,0,0,0-.31.61l1.36,3.29-.51.26L40.67,2.55a.43.43,0,0,0-.67,0,.47.47,0,0,0,0,.58l1.85,2.44.71,2.69c-.12,1.09-1.13,10.75-.64,12.88-.22,4.62-.13,7.77.27,9.38-1.32,1.13-6.87,3.7-9,4.66-.74.19-9.52,2.49-12.82,6.86-3.06,4.07-5.33,7.62-5.65,8.11a15.34,15.34,0,0,1-3.36,2.2C9.62,53,4.81,57.73,3,61.17c-1.77,1.74-3,4.42-3,5.75,0,1,1.24,2,2.65,2.16a1.28,1.28,0,0,0,1-.36,1.42,1.42,0,0,0,.39-1l-.12-2.41a2,2,0,0,1,.48-1.39l0,0a12.87,12.87,0,0,1,2.64-2.3,28.48,28.48,0,0,0,5.28-4.11c1.66-.64,7.37-4.53,10.82-7.74a4.59,4.59,0,0,1,5.4-.94A19.12,19.12,0,0,0,32.47,50a58.81,58.81,0,0,0,9.37,1.39,36.85,36.85,0,0,0,1.58,3.79c0,.19,0,.38.06.55a4.23,4.23,0,0,1,0,1.33c-.44,2.48-.09,8.17.08,10.49a2,2,0,0,0,1.51,1.78l2.23.47a7.32,7.32,0,0,0,1.54.16l.56,0a12.27,12.27,0,0,0,2.49-.41.4.4,0,0,0,.28-.24.5.5,0,0,0,0-.38,5,5,0,0,0-3-2.15l.17,0a15.41,15.41,0,0,0,3,.25c.64,0,1.24,0,1.76,0a.89.89,0,0,0,.83-.75.88.88,0,0,0-.54-1c-2.64-1-4.55-2.17-5.37-3.17-1.24-1.49-1.45-6.8-1.42-9.68A5.24,5.24,0,0,1,47.81,51a85.52,85.52,0,0,0,1.65-9.07,4.4,4.4,0,0,1,1.79.93,5.42,5.42,0,0,0,3,1.31,10.29,10.29,0,0,0-.45,3.1,13.62,13.62,0,0,0,1.74,6.07.42.42,0,0,0,.37.22H56a.45.45,0,0,0,.36-.35A32.77,32.77,0,0,0,57.19,47a10.85,10.85,0,0,0-.74-3,4.57,4.57,0,0,0,3-1.88c.72-1.13.7-2.58,0-4.29ZM42.37,31.48a3.06,3.06,0,0,1,0,1,.43.43,0,0,0,.3.55.25.25,0,0,0,.12,0,.44.44,0,0,0,.41-.32,4.72,4.72,0,0,0,0-1.92c0-.14-.14-.57-.18-.75-.25-1.2-.44-3.71-.19-9a.38.38,0,0,0,0-.15c-.42-1.55.33-9.69.65-12.69a.33.33,0,0,0,0-.17l-.65-2.5L45.4,4.24l.18.14A2.18,2.18,0,0,1,46,7.18l-.95,1.57a.47.47,0,0,0-.05.1,14.36,14.36,0,0,0,0,6,14.25,14.25,0,0,1-.2,6.16.45.45,0,0,0,0,.23s.45,2.49.75,4.54a10.33,10.33,0,0,0,.69,2.46,28.19,28.19,0,0,1,1.19,6.62A5.45,5.45,0,0,1,43,34.31,3.88,3.88,0,0,1,41.59,32c.29-.18.56-.35.78-.51Zm-9,4.56.07,0c.61-.27,4.67-2.07,7.35-3.57A4.72,4.72,0,0,0,42.48,35a5.18,5.18,0,0,0,3.2,1,9.58,9.58,0,0,0,1.85-.2c0,.16,0,.31,0,.43a4.4,4.4,0,0,0-3.11,1,2.91,2.91,0,0,0-.81,2.4c.17,2.8.34,4.55,1.2,5.27a1.44,1.44,0,0,0,.94.33l.27,0a4.52,4.52,0,0,0,2.24-1.26c0,.28-.09.57-.13.88a22,22,0,0,0-4.64,1.71l-.64-.66a.4.4,0,0,0-.46-.1,3.94,3.94,0,0,1-4-.9.42.42,0,0,0-.61,0,.45.45,0,0,0-.11.41,24.12,24.12,0,0,0-5.87,1.41l-.45.16a1.57,1.57,0,0,1-1.07,0c-4.49-1.7-5.14-6.33-5.23-7.5A38.22,38.22,0,0,1,33.38,36ZM6.63,60.78a13.72,13.72,0,0,0-2.82,2.45l0,0a2.94,2.94,0,0,0-.7,2l.12,2.4a.44.44,0,0,1-.13.36.42.42,0,0,1-.34.12C1.66,68.1.87,67.36.87,66.92a9.52,9.52,0,0,1,2.78-5.15.27.27,0,0,0,.09-.12,28.19,28.19,0,0,1,5.32-6.49,5.31,5.31,0,0,0,1.79,2.55,45.57,45.57,0,0,1-4.22,3.07Zm36.71-7.89c-.44-1.07-.78-2-.78-2a.46.46,0,0,0-.4-.29,56.68,56.68,0,0,1-9.5-1.39A18.68,18.68,0,0,1,29,47.93,5.45,5.45,0,0,0,22.62,49C19.28,52.13,13.3,56.2,12,56.62a.41.41,0,0,0-.23.16,2.61,2.61,0,0,1-.24.3,4.47,4.47,0,0,1-1.75-2.57,9,9,0,0,1,1.87-1.34,16.7,16.7,0,0,0,3.64-2.38l.09-.1s2.38-3.78,5.64-8.11a11.92,11.92,0,0,1,3.22-2.77c.23,1.75,1.26,6.16,5.74,7.85a2.25,2.25,0,0,0,.85.16,2.34,2.34,0,0,0,.79-.13l.46-.16a21.91,21.91,0,0,1,6.48-1.43,4.76,4.76,0,0,0,3.9.57l1.64,1.68a13.76,13.76,0,0,0-.75,4.54Zm5,9.83c1.17,1.42,3.72,2.63,5.69,3.41A18.77,18.77,0,0,1,49.5,66a6.3,6.3,0,0,0-3.23,0c.12-1.29.43-4.59.72-7.73a9.7,9.7,0,0,0,1.34,4.48ZM47,50.72a7.94,7.94,0,0,0-.33,1.72c-.32,3.51-1.29,13.91-1.3,14a.45.45,0,0,0,.38.49c1.19.13,4.17.71,5.31,1.91a13.83,13.83,0,0,1-1.71.22A6.43,6.43,0,0,1,47.47,69l-2.23-.47a1.05,1.05,0,0,1-.82-1c-.17-2.3-.51-7.89-.09-10.27a5.17,5.17,0,0,0,0-1.62c0-.18-.05-.37-.06-.58a.06.06,0,0,1,0,0A14.87,14.87,0,0,1,45,48.44a.46.46,0,0,0-.09-.51l-.73-.76A24.45,24.45,0,0,1,48,45.72a44.68,44.68,0,0,1-1,5Zm9.34-3.67a24.91,24.91,0,0,1-.55,4.71,11.77,11.77,0,0,1-1.07-4.5,9.14,9.14,0,0,1,.5-3.09l.36,0a10.26,10.26,0,0,1,.76,2.9Zm2.42-5.4c-.76,1.21-2.56,1.64-4,1.64a4.64,4.64,0,0,1-3-1.16A4.59,4.59,0,0,0,49.11,41a.44.44,0,0,0-.45.39s0,.39-.14,1a5.17,5.17,0,0,1-2.59,1.93.63.63,0,0,1-.54-.11c-.63-.53-.77-2.71-.89-4.64A2.06,2.06,0,0,1,45,37.84a4.19,4.19,0,0,1,2.92-.7l1.8.33a.46.46,0,0,0,.34-.08.48.48,0,0,0,.17-.3l.19-1.33a.75.75,0,0,1,.72-.66c1.81-.06,6.16.12,7.45,3.1a3.61,3.61,0,0,1,.11,3.45Z"/></g></g></svg>