<svg xmlns="http://www.w3.org/2000/svg" viewBox="0 0 43.63 61"><defs><style>.cls-1{fill:none;stroke:#babcbe;stroke-miterlimit:10;}</style></defs><title>Ресурс 97</title><g id="Слой_2" data-name="Слой 2"><g id="Layer_2" data-name="Layer 2"><path class="cls-1" d="M43,49.81a2.66,2.66,0,0,0-1.73-3.32c-6.23-2-8.87-13.09-9.49-17.2a4.27,4.27,0,0,0-.39-1.15C30.26,26,25.94,25,25.45,24.9a1.08,1.08,0,0,1-1-1C26,22.83,27,20.27,27,18c0-3.42-.37-6.19-5-6.19H21.6c-4.66,0-5,2.77-5,6.19,0,2.32,1,4.88,2.56,5.94a1.12,1.12,0,0,1-1,1c-.52.05-5.48,1.23-6.15,3.76,0,0-.08.36-.13.64a42.11,42.11,0,0,1-2.06,8c-1.32,3.54-3.67,8-7.42,9.18a2.65,2.65,0,0,0,.77,5.17,4.55,4.55,0,0,0-2.56,4,4.9,4.9,0,0,0,1.06,2.67c.78,1,2.34,2.17,5.32,2.17a13.6,13.6,0,0,0,1.4-.08c2-.21,4-.53,5.92-.84l2.1-.33a43.63,43.63,0,0,1,5-.29h.82a43.47,43.47,0,0,1,5,.29l2.1.33c1.94.31,3.94.63,5.92.84a13.76,13.76,0,0,0,1.4.08c3,0,4.54-1.18,5.32-2.17A4.9,4.9,0,0,0,43,55.66a4.54,4.54,0,0,0-2.55-4h0A2.65,2.65,0,0,0,43,49.81ZM12.1,49.47a12.94,12.94,0,0,1-2.8.63l-1.44.21c-.59.06-1.14.15-1.64.25,3.45-1.9,6.23-5.54,8.29-10.84a29.58,29.58,0,0,1,.19,3.42c0,4.08-2.07,6.17-2.6,6.33Zm23.6.84-1.44-.21c-3.61-.45-5.39-2.88-5.39-7a29.54,29.54,0,0,1,.2-3.56c2.07,5.4,4.88,9.09,8.38,11-.53-.11-1.11-.2-1.75-.27Z"/><circle class="cls-1" cx="21.81" cy="4.24" r="3.74"/></g></g></svg>