<svg xmlns="http://www.w3.org/2000/svg" viewBox="0 0 75 60"><defs><style>.cls-1{fill:#babcbe;}</style></defs><title>Ресурс 94</title><g id="Слой_2" data-name="Слой 2"><g id="Layer_2" data-name="Layer 2"><path class="cls-1" d="M74.86,40.28a1.74,1.74,0,0,0-1.24-1.07l-3.29-.68a3,3,0,0,0-1.11,0l-1.11.18a5.39,5.39,0,0,1-2.52-.22A57.38,57.38,0,0,1,53.77,32.8a48.62,48.62,0,0,1-3.45-8.15l0-.24c-.39-1.81-1.2-5.59-3.48-6.68a11.45,11.45,0,0,0-3.72-1,8.87,8.87,0,0,1-1.63-.32c-.6-.21-1.39-.75-1.3-2.91a6.4,6.4,0,0,0,1-1.39,12.29,12.29,0,0,0,1.32-5.62c0-3.9-2-6.52-4.92-6.52s-4.92,2.62-4.92,6.52a11.15,11.15,0,0,0,2.28,6.86v0c.13,2.27-.67,2.82-1.29,3a8.87,8.87,0,0,1-1.63.32,11.45,11.45,0,0,0-3.72,1c-2.28,1.09-3.09,4.87-3.48,6.68l-.05.24a48.62,48.62,0,0,1-3.45,8.15A57.38,57.38,0,0,1,9.41,38.46a5.39,5.39,0,0,1-2.52.22L5.78,38.5a3,3,0,0,0-1.11,0l-3.29.68A1.74,1.74,0,0,0,.14,40.28,1.92,1.92,0,0,0,.27,42L1,43.22a3.91,3.91,0,0,0,3.22,1.94l.62,0a3.82,3.82,0,0,0,2.58-1l.49-.45a4.32,4.32,0,0,1,.87-.62C8.9,45,10.31,46,12.48,47.62L14,48.8c2.34,1.81,5.7,2.81,9.26,3.86,2.07.61,4.22,1.25,6.34,2.09,4.15,1.63,4.68,3.35,4.71,4a1.33,1.33,0,0,0,.79,1.15,1.15,1.15,0,0,0,.44.09,1.27,1.27,0,0,0,1.23-1.15l.67-5.51a2.32,2.32,0,0,0-.64-1.92A2,2,0,0,0,35,50.84l-.64.13-.17,0L37.47,50l3.33.92-.16,0L40,50.84a2,2,0,0,0-1.84.58,2.32,2.32,0,0,0-.64,1.92l.67,5.51A1.27,1.27,0,0,0,39.42,60a1.15,1.15,0,0,0,.44-.09,1.33,1.33,0,0,0,.79-1.15c0-.66.56-2.38,4.71-4,2.12-.84,4.27-1.48,6.34-2.09,3.56-1,6.92-2,9.26-3.86l1.56-1.18C64.69,46,66.1,45,66.2,43.09a4.32,4.32,0,0,1,.87.62l.49.45a3.82,3.82,0,0,0,2.58,1l.62,0A3.91,3.91,0,0,0,74,43.22L74.73,42a1.92,1.92,0,0,0,.13-1.7ZM46.2,39.67A11,11,0,0,1,45,33.4l0-.11a8.2,8.2,0,0,0,1.18-4.24,41.49,41.49,0,0,0,3.36,6.75,3.46,3.46,0,0,0,1.29,1.26A40.11,40.11,0,0,0,55,39l-.42,0c-4.89.46-7.54.63-8.36.67Zm-2.26-6.56a2.28,2.28,0,0,1-2.08.37.48.48,0,0,0-.58.39.51.51,0,0,0,.37.62,4,4,0,0,0,.93.11,3.08,3.08,0,0,0,1.4-.32A12,12,0,0,0,45.25,40a16.22,16.22,0,0,1-11.34,1.78,13,13,0,0,1-4.19-1.73A11.76,11.76,0,0,0,31,34.27a3.05,3.05,0,0,0,1.43.33,4,4,0,0,0,.93-.11.51.51,0,0,0,.37-.62.48.48,0,0,0-.58-.39A2.26,2.26,0,0,1,31,33a2.83,2.83,0,0,1-.3-.44,7.72,7.72,0,0,1-.95-4.48c1.15-.85,1.89-2.89,2.2-6.07a35.71,35.71,0,0,0,.15-4.26l.36-.05c.23,5.89,2.35,10.26,5,10.26s4.78-4.37,5-10.27l.36.05A35.86,35.86,0,0,0,43,22c.31,3.23,1.07,5.28,2.26,6.11a7.6,7.6,0,0,1-1,4.62,1.81,1.81,0,0,1-.26.34ZM30,33.35a11.83,11.83,0,0,1-.51,4.77,8.61,8.61,0,0,1-.68,1.55c-.82,0-3.47-.21-8.36-.67L20,39a40.11,40.11,0,0,0,4.11-1.9,3.46,3.46,0,0,0,1.29-1.26,41.49,41.49,0,0,0,3.36-6.75A8.31,8.31,0,0,0,30,33.35ZM37.49,1c2.4,0,3.94,2.15,3.94,5.48,0,3.81-1.83,7.29-3.85,7.29s-4-3.55-4-7.29C33.55,3.19,35.09,1,37.49,1ZM33.87,17.43c1.21-.43,1.87-1.5,2-3.16a3.07,3.07,0,0,0,1.75.57,3,3,0,0,0,1.6-.48,3.13,3.13,0,0,0,2,3.07l.39.11a18.83,18.83,0,0,1-1.34,6.7C39.42,26,38.44,27,37.47,27s-1.95-1-2.7-2.72a18.71,18.71,0,0,1-1.34-6.68l.44-.13ZM8.9,41.92a5.25,5.25,0,0,0-1.6,1l-.5.45a2.85,2.85,0,0,1-2,.77l-.5,0a3,3,0,0,1-2.43-1.46l-.75-1.24A.85.85,0,0,1,1,41.08a3.93,3.93,0,0,0,1.78.46,3.36,3.36,0,0,0,1.62-.43.53.53,0,0,0,.2-.7.48.48,0,0,0-.66-.22,2.55,2.55,0,0,1-2.35,0l3.28-.68a1.91,1.91,0,0,1,.79,0l1.11.17a6.08,6.08,0,0,0,3-.26,57.86,57.86,0,0,0,12.13-5.82.52.52,0,0,0,.16-.17,47.79,47.79,0,0,0,3.63-8.57l.05-.24c.33-1.52,1.09-5.09,2.93-6a8.79,8.79,0,0,1,2.52-.75,33.21,33.21,0,0,1-.15,4,11.82,11.82,0,0,1-1.13,4.54c0-.37.07-.77.12-1.19a.51.51,0,0,0-.38-.57.5.5,0,0,0-.57.37A37.44,37.44,0,0,1,24.6,35.25a2.61,2.61,0,0,1-.92.89,50.54,50.54,0,0,1-6.08,2.67c-5.29-.17-8.21.87-8.7,3.11ZM34.45,52l.73-.15a1.09,1.09,0,0,1,1,.31,1.27,1.27,0,0,1,.35,1l-.68,5.51a.27.27,0,0,1-.26.24.15.15,0,0,1-.09,0,.29.29,0,0,1-.17-.23,1.5,1.5,0,0,0,0-.29c-.18-1.82-.17-4,.2-4.39a.56.56,0,0,0-.05-.74.48.48,0,0,0-.69.05c-.16.2-.57.91-.56,3A11.44,11.44,0,0,0,30,53.77c-2.16-.85-4.33-1.49-6.42-2.11a42.67,42.67,0,0,1-7-2.51,18.75,18.75,0,0,1,.85-2.27A7,7,0,0,1,20,43.51a11.69,11.69,0,0,1,5.25,3.8l.36.41a33,33,0,0,0,5.58,3.41,6.9,6.9,0,0,0,2.08.7l1.06.18a.43.43,0,0,0,.16,0Zm17-.35c-2.09.62-4.26,1.26-6.42,2.11a11.34,11.34,0,0,0-4.24,2.61,12,12,0,0,0-.32-3,.47.47,0,0,0-.59-.36.52.52,0,0,0-.35.63,14.93,14.93,0,0,1,.19,4.68c0,.12,0,.23,0,.33a.26.26,0,0,1-.16.23.15.15,0,0,1-.09,0,.27.27,0,0,1-.26-.24l-.68-5.51a1.27,1.27,0,0,1,.35-1,1.09,1.09,0,0,1,1-.31l.73.15a.43.43,0,0,0,.16,0l1.06-.18a6.9,6.9,0,0,0,2.08-.7,33,33,0,0,0,5.58-3.41l.36-.41a11.7,11.7,0,0,1,5.13-3.76c1.92,1.09,3.08,4.58,3.4,5.68a44.72,44.72,0,0,1-6.88,2.43ZM62,46.77q-.72.52-1.59,1.2a10,10,0,0,1-1.18.78,13.48,13.48,0,0,0-3-5.49,7.22,7.22,0,0,1,1.8,0,.5.5,0,0,0,.54-.46.53.53,0,0,0-.44-.58c-4.73-.54-7.75,2.91-9,4.38l-.34.38a30.6,30.6,0,0,1-5.32,3.22l-.55.25L37.59,49a.49.49,0,0,0-.24,0l-5.22,1.47-.55-.25A30.6,30.6,0,0,1,26.26,47l-.34-.38c-1.29-1.47-4.31-4.92-9-4.38a.53.53,0,0,0-.44.58.51.51,0,0,0,.54.46,6.93,6.93,0,0,1,1.64,0,13.19,13.19,0,0,0-3,5.41,11.53,11.53,0,0,1-1-.69q-.87-.67-1.59-1.2C10.58,45,9.56,44.19,9.81,42.39v0s0-.08,0-.12c.38-2.31,5.06-2.5,7.82-2.4h0c.82,0,1.72.09,2.67.18,5.23.5,7.92.65,8.54.69a13.62,13.62,0,0,0,4.77,2.07,15.48,15.48,0,0,0,3.45.39,18.52,18.52,0,0,0,9-2.46c.54,0,3.23-.18,8.58-.69,1-.09,1.85-.15,2.67-.18h0c2.76-.1,7.44.09,7.82,2.4,0,0,0,.08,0,.12h0c.25,1.81-.77,2.57-3.22,4.39Zm11.94-5.35-.75,1.24a3,3,0,0,1-2.43,1.46l-.5,0a2.87,2.87,0,0,1-2-.77l-.5-.45a5.37,5.37,0,0,0-1.6-1c-.49-2.24-3.41-3.29-8.7-3.11a50.54,50.54,0,0,1-6.08-2.67,2.61,2.61,0,0,1-.92-.89A37.44,37.44,0,0,1,46,25.09a.5.5,0,0,0-.57-.37.51.51,0,0,0-.38.57c0,.47.1.89.13,1.29A11.38,11.38,0,0,1,44,21.94a35.16,35.16,0,0,1-.14-4,8.89,8.89,0,0,1,2.57.76c1.84.88,2.6,4.45,2.93,6l0,.24A47.79,47.79,0,0,0,53,33.45a.52.52,0,0,0,.16.17,57.86,57.86,0,0,0,12.13,5.82,6.08,6.08,0,0,0,3,.26l1.11-.17a2.1,2.1,0,0,1,.79,0l3.24.67a2.56,2.56,0,0,1-2.37,0,.47.47,0,0,0-.65.22.52.52,0,0,0,.2.7,3.34,3.34,0,0,0,1.62.43A3.87,3.87,0,0,0,74,41.05a.7.7,0,0,1-.11.37Z"/></g></g></svg>