<svg xmlns="http://www.w3.org/2000/svg" viewBox="0 0 36.5 61.5"><defs><style>.cls-1{fill:none;stroke:#babcbe;stroke-miterlimit:10;stroke-width:1.5px;}</style></defs><title>Ресурс 96</title><g id="Слой_2" data-name="Слой 2"><g id="Layer_2" data-name="Layer 2"><path class="cls-1" d="M1.63,60.75c0-1.24.06-2.44,0-3.63-.14-2.33-.27-4.68-.57-7a34,34,0,0,1-.16-7.54,24,24,0,0,1,2.48-8.68c1.32-2.64,2.69-5.29,3.75-8a8,8,0,0,0-.59-7.68c-.4-.59-.78-1.2-1.19-1.79A8.07,8.07,0,0,1,4.4,9.15C5.87,4.24,9.23,1.28,14.19.8a10.77,10.77,0,0,1,8.68,3.28c2.24,2.22,3,5.07,3.5,8A9.43,9.43,0,0,1,31.44,17a21.54,21.54,0,0,0,1.6,2.9A8.31,8.31,0,0,1,34,23.91c.12,1.52.32,3,.47,4.55,0,.45,0,.91.08,1.36.18,1.72.37,3.45.55,5.17s.36,3.15.47,4.73.18,3.18.21,4.78a39.29,39.29,0,0,1-1.32,10.23,18.31,18.31,0,0,1-1.13,3c-.6,1.38-2.19,1.6-3.65.6-1.17-.8-2.41-1.52-3.6-2.32s-2.27-1.62-3.47-2.48c-1.58,2.24-.64,4.77-.82,7.2Zm25.11-39.6-.19.07c-.12.48-.2,1-.36,1.44-.36,1-.76,2-1.13,3.06a1.89,1.89,0,0,1-1.9,1.34,4.4,4.4,0,0,1-1.67-.25c-1.17-.56-2,0-2.78.74-1.56,1.51-1.82,5.14-.57,6.92a23.42,23.42,0,0,1,2,3.2,18.08,18.08,0,0,0,3.78,5.52c1,1,2.05,1.92,3,2.92a15.67,15.67,0,0,1,1.19,1.5,13.71,13.71,0,0,0,.19-2c.17-1.48.34-3,.63-4.43.39-2,1-4,1.32-6a36.06,36.06,0,0,0,0-4.41,3,3,0,0,0-.84-2.29,6.9,6.9,0,0,1-1.67-3.7C27.52,23.5,27.09,22.33,26.74,21.15Zm1-1.86c.44.76.7,1.29,1,1.76a.93.93,0,0,0,.62.26c.09,0,.31-.29.28-.39a5.76,5.76,0,0,0-.64-1.6C28.93,19.14,28.36,19.29,27.76,19.29Zm-.49-1.62,1-.66-1.69-1.55-.24.16Z"/><path class="cls-1" d="M29.42,21.31a.93.93,0,0,1-.62-.26c-.34-.47-.6-1-1-1.76.6,0,1.17-.15,1.3,0"/></g></g></svg>