<svg xmlns="http://www.w3.org/2000/svg" viewBox="0 0 41 37"><defs><style>.cls-1{fill:none;stroke:#fff;stroke-miterlimit:10;}</style></defs><title>Ресурс 73</title><g id="Слой_2" data-name="Слой 2"><g id="Layer_2" data-name="Layer 2"><path class="cls-1" d="M17.12,3.28,9.52,9H2.58A2.1,2.1,0,0,0,.5,11.15V25.82a2.1,2.1,0,0,0,2.08,2.11H9.52l7.6,5.76A2.07,2.07,0,0,0,20.45,32V5a2.08,2.08,0,0,0-3.33-1.69Z"/><path class="cls-1" d="M27.32,6.72a2.43,2.43,0,0,0-3.44,0,2.52,2.52,0,0,0,0,3.48,11.8,11.8,0,0,1,0,16.54,2.51,2.51,0,0,0,0,3.47,2.39,2.39,0,0,0,1.7.71,2.36,2.36,0,0,0,1.7-.74,16.66,16.66,0,0,0,0-23.46Z"/><path class="cls-1" d="M30,1.21a2.51,2.51,0,0,0,0,3.47,19.67,19.67,0,0,1,0,27.61,2.51,2.51,0,0,0,0,3.47,2.37,2.37,0,0,0,3.4,0,24.63,24.63,0,0,0,0-34.56,2.36,2.36,0,0,0-3.4,0Z"/></g></g></svg>