<svg xmlns="http://www.w3.org/2000/svg" viewBox="0 0 35 20"><defs><style>.cls-1{fill:#fff;}</style></defs><title>Ресурс 70</title><g id="Слой_2" data-name="Слой 2"><g id="Layer_2" data-name="Layer 2"><g id="_Группа_" data-name="&lt;Группа&gt;"><path id="_Составной_контур_" data-name="&lt;Составной контур&gt;" class="cls-1" d="M34.2,17.08H.8a1.34,1.34,0,0,0-.56.1c-.16.08-.24.16-.24.26v2.2c0,.09.08.18.24.25A1.33,1.33,0,0,0,.8,20H34.2a1.33,1.33,0,0,0,.56-.11c.16-.07.24-.16.24-.25v-2.2c0-.1-.08-.18-.24-.26a1.34,1.34,0,0,0-.56-.1Z"/></g><g id="_Группа_2" data-name="&lt;Группа&gt;"><path id="_Составной_контур_2" data-name="&lt;Составной контур&gt;" class="cls-1" d="M34.2,8.42H.8a1.33,1.33,0,0,0-.56.11C.08,8.6,0,8.69,0,8.79V11c0,.1.08.18.24.26a1.33,1.33,0,0,0,.56.11H34.2a1.33,1.33,0,0,0,.56-.11c.16-.08.24-.16.24-.26V8.79c0-.1-.08-.19-.24-.26a1.33,1.33,0,0,0-.56-.11Z"/></g><g id="_Группа_3" data-name="&lt;Группа&gt;"><path id="_Составной_контур_3" data-name="&lt;Составной контур&gt;" class="cls-1" d="M34.2,0H.8A1.33,1.33,0,0,0,.24.11C.08.18,0,.27,0,.37V2.56c0,.1.08.18.24.26a1.34,1.34,0,0,0,.56.1H34.2a1.34,1.34,0,0,0,.56-.1c.16-.08.24-.16.24-.26V.37c0-.1-.08-.19-.24-.26A1.33,1.33,0,0,0,34.2,0Z"/></g></g></g></svg>