<svg xmlns="http://www.w3.org/2000/svg" viewBox="0 0 31.03 37.03"><defs><style>.cls-1{fill:none;stroke:#fff;stroke-miterlimit:10;}</style></defs><title>Ресурс 72</title><g id="Слой_2" data-name="Слой 2"><g id="Layer_2" data-name="Layer 2"><path class="cls-1" d="M17.75,15.53a2.2,2.2,0,0,1-1.59-.65,2.17,2.17,0,0,1-.66-1.6V.53H2.75a2.15,2.15,0,0,0-1.59.66A2.14,2.14,0,0,0,.5,2.78v31.5a2.17,2.17,0,0,0,.66,1.6,2.14,2.14,0,0,0,1.59.65h25.5a2.22,2.22,0,0,0,2.25-2.25V15.53ZM24.5,29.78a.72.72,0,0,1-.75.75H7.25a.72.72,0,0,1-.75-.75v-1.5a.72.72,0,0,1,.75-.75h16.5a.72.72,0,0,1,.75.75Zm0-6a.72.72,0,0,1-.75.75H7.25a.72.72,0,0,1-.75-.75v-1.5a.72.72,0,0,1,.75-.75h16.5a.72.72,0,0,1,.75.75Z"/><path class="cls-1" d="M28.91,9.44,21.6,2.12A5.69,5.69,0,0,0,18.5.6V12.53H30.43a5.66,5.66,0,0,0-1.52-3.09Z"/></g></g></svg>