<?xml version="1.0" encoding="utf-8"?>
<!-- Generator: Adobe Illustrator 19.2.1, SVG Export Plug-In . SVG Version: 6.00 Build 0)  -->
<svg version="1.1" id="Слой_1" xmlns="http://www.w3.org/2000/svg" xmlns:xlink="http://www.w3.org/1999/xlink" x="0px" y="0px"
	 viewBox="0 0 652 652" style="enable-background:new 0 0 652 652;" xml:space="preserve">
<style type="text/css">
	.st0{fill:url(#SVGID_1_);}
	.st1{fill:url(#SVGID_2_);}
	.st2{fill:url(#SVGID_3_);}
	.st3{fill:url(#SVGID_4_);}
	.st4{fill:url(#SVGID_5_);}
	.st5{fill:url(#SVGID_6_);}
	.st6{fill:url(#SVGID_7_);}
	.st7{fill:url(#SVGID_8_);}
	.st8{fill:url(#SVGID_9_);}
</style>
<g>
	<linearGradient id="SVGID_1_" gradientUnits="userSpaceOnUse" x1="215.978" y1="176.3133" x2="249.1635" y2="176.3133">
		<stop  offset="0" style="stop-color:#57C4BF"/>
		<stop  offset="0.985" style="stop-color:#9AD7D5"/>
	</linearGradient>
	<circle class="st0" cx="232.6" cy="176.3" r="16.6"/>
	<linearGradient id="SVGID_2_" gradientUnits="userSpaceOnUse" x1="409.5603" y1="176.3133" x2="442.7459" y2="176.3133">
		<stop  offset="0" style="stop-color:#57C4BF"/>
		<stop  offset="0.985" style="stop-color:#9AD7D5"/>
	</linearGradient>
	<circle class="st1" cx="426.2" cy="176.3" r="16.6"/>
	<linearGradient id="SVGID_3_" gradientUnits="userSpaceOnUse" x1="310.0037" y1="109.9389" x2="343.1892" y2="109.9389">
		<stop  offset="0" style="stop-color:#57C4BF"/>
		<stop  offset="0.985" style="stop-color:#9AD7D5"/>
	</linearGradient>
	<circle class="st2" cx="326.6" cy="109.9" r="16.6"/>
	<linearGradient id="SVGID_4_" gradientUnits="userSpaceOnUse" x1="242.0518" y1="325.6437" x2="411.1345" y2="325.6437">
		<stop  offset="0" style="stop-color:#57C4BF"/>
		<stop  offset="0.985" style="stop-color:#9AD7D5"/>
	</linearGradient>
	<path class="st3" d="M242.1,325.6c0,79.9,70.6,142.6,73.6,145.2c3.1,2.7,7,4.1,10.9,4.1s7.8-1.4,10.9-4.1
		c3-2.6,73.6-65.3,73.6-145.2S340.5,183,337.5,180.4c-6.2-5.5-15.6-5.5-21.8,0C312.7,183,242.1,245.7,242.1,325.6z"/>
	<linearGradient id="SVGID_5_" gradientUnits="userSpaceOnUse" x1="384.3315" y1="361.9669" x2="535.648" y2="361.9669">
		<stop  offset="0" style="stop-color:#57C4BF"/>
		<stop  offset="0.985" style="stop-color:#9AD7D5"/>
	</linearGradient>
	<path class="st4" d="M482.5,423.2c57.8-56.5,53.2-149.7,53-153.6c-0.5-8.4-7.2-15.2-15.7-15.6c-2.3-0.1-42.3-1.9-86,11.6
		c6.3,18.5,10.5,38.6,10.5,60.1c0,63-34.7,114.9-60,144.5C415.7,464.2,453.7,451.3,482.5,423.2z"/>
	<linearGradient id="SVGID_6_" gradientUnits="userSpaceOnUse" x1="72.1742" y1="470.0635" x2="284.078" y2="470.0635">
		<stop  offset="0" style="stop-color:#57C4BF"/>
		<stop  offset="0.985" style="stop-color:#9AD7D5"/>
	</linearGradient>
	<path class="st5" d="M77.4,470.5c2.4,2.2,58.8,54.3,130.2,54.3c28.8,0,55-8.5,76.4-18.7c-66.3-7.7-125.8-34.6-162-90.7
		c-26.6,14.2-43.5,29.9-44.6,30.9C70.4,452.8,70.4,464,77.4,470.5z"/>
	<linearGradient id="SVGID_7_" gradientUnits="userSpaceOnUse" x1="369.1094" y1="470.0646" x2="581.0121" y2="470.0646">
		<stop  offset="0" style="stop-color:#57C4BF"/>
		<stop  offset="0.985" style="stop-color:#9AD7D5"/>
	</linearGradient>
	<path class="st6" d="M445.5,524.8c71.4,0,127.9-52,130.2-54.3c7-6.5,7-17.7,0-24.2c-1.1-1-18.1-16.7-44.6-30.9
		c-36.2,56.1-95.7,83-162,90.7C390.5,516.3,416.7,524.8,445.5,524.8z"/>
	<linearGradient id="SVGID_8_" gradientUnits="userSpaceOnUse" x1="285.4386" y1="539.1785" x2="367.7466" y2="539.1785">
		<stop  offset="0" style="stop-color:#57C4BF"/>
		<stop  offset="0.985" style="stop-color:#9AD7D5"/>
	</linearGradient>
	<path class="st7" d="M285.4,541.8c15.7,8.3,30.8,13.6,36,15.3c3.3,1.1,6.9,1.1,10.3,0c5.2-1.7,20.3-7,36-15.3
		c-15.8-6.5-29.7-14.1-41.1-21.4C315.2,527.7,301.3,535.3,285.4,541.8z"/>
	<linearGradient id="SVGID_9_" gradientUnits="userSpaceOnUse" x1="117.5376" y1="361.9618" x2="268.8481" y2="361.9618">
		<stop  offset="0" style="stop-color:#57C4BF"/>
		<stop  offset="0.985" style="stop-color:#9AD7D5"/>
	</linearGradient>
	<path class="st8" d="M133.4,254c-8.4,0.5-15.2,7.2-15.7,15.6c-0.2,3.9-4.8,97.1,53,153.6c28.7,28.1,66.7,41,98.1,46.9
		c-25.2-29.5-60-81.5-60-144.5c0-21.5,4.2-41.6,10.5-60.1C175.7,252,135.7,253.9,133.4,254z"/>
</g>
</svg>
