<svg id="Слой_1" data-name="Слой 1" xmlns="http://www.w3.org/2000/svg" viewBox="0 0 651.29 651.29">
  <defs>
    <style>
      .cls-1 {
        fill: #57c4bf;
      }

      .cls-2 {
        fill: #fffefe;
      }
    </style>
  </defs>
  <title>фавикон белый</title>
  <rect class="cls-1" x="0.95" width="651.29" height="651.29" transform="translate(0 652.24) rotate(-90)"/>
  <g>
    <circle class="cls-2" cx="231.62" cy="176.31" r="16.59"/>
    <circle class="cls-2" cx="425.2" cy="176.31" r="16.59"/>
    <circle class="cls-2" cx="325.65" cy="109.94" r="16.59"/>
    <path class="cls-2" d="M242.05,325.64c0,79.92,70.62,142.6,73.62,145.23a16.58,16.58,0,0,0,21.84,0c3-2.62,73.62-65.31,73.62-145.23S340.52,183,337.51,180.42a16.57,16.57,0,0,0-21.84,0C312.67,183,242.05,245.72,242.05,325.64Z" transform="translate(-0.95 0)"/>
    <path class="cls-2" d="M482.45,423.2c57.82-56.46,53.25-149.66,53-153.61A16.61,16.61,0,0,0,519.81,254a274.13,274.13,0,0,0-86,11.57,184.8,184.8,0,0,1,10.5,60.11c0,63-34.73,114.93-60,144.46C415.74,464.18,453.72,451.27,482.45,423.2Z" transform="translate(-0.95 0)"/>
    <path class="cls-2" d="M77.43,470.51c2.37,2.21,58.84,54.25,130.25,54.25,28.78,0,55-8.48,76.4-18.72-66.35-7.7-125.79-34.58-162-90.67-26.55,14.22-43.49,29.86-44.61,30.9A16.6,16.6,0,0,0,77.43,470.51Z" transform="translate(-0.95 0)"/>
    <path class="cls-2" d="M445.51,524.76c71.41,0,127.88-52,130.25-54.25a16.6,16.6,0,0,0,0-24.24c-1.11-1-18.05-16.68-44.6-30.9-36.25,56.1-95.7,83-162,90.67C390.47,516.28,416.73,524.76,445.51,524.76Z" transform="translate(-0.95 0)"/>
    <path class="cls-2" d="M285.44,541.79a243.18,243.18,0,0,0,36,15.33,16.61,16.61,0,0,0,10.35,0,243.13,243.13,0,0,0,36-15.33,264.65,264.65,0,0,1-41.13-21.37A262.33,262.33,0,0,1,285.44,541.79Z" transform="translate(-0.95 0)"/>
    <path class="cls-2" d="M133.38,254A16.61,16.61,0,0,0,117.7,269.6c-0.22,3.94-4.79,97.15,53,153.61,28.74,28.07,66.71,41,98.12,46.9-25.25-29.51-60-81.49-60-144.46a184.81,184.81,0,0,1,10.5-60.12A273.29,273.29,0,0,0,133.38,254Z" transform="translate(-0.95 0)"/>
  </g>
</svg>
