<svg id="Слой_1" data-name="Слой 1" xmlns="http://www.w3.org/2000/svg" viewBox="0 0 26.47 24.17">
  <defs>
    <style>
      .cls-1 {
        fill: #fffefe;
      }
    </style>
  </defs>
  <title>фавиконка</title>
  <g>
    <circle class="cls-1" cx="8.34" cy="4.32" r="0.86"/>
    <circle class="cls-1" cx="18.42" cy="4.32" r="0.86"/>
    <circle class="cls-1" cx="13.24" cy="0.86" r="0.86"/>
    <path class="cls-1" d="M14.43,15.2c0,4.16,3.67,7.42,3.83,7.56a0.86,0.86,0,0,0,1.14,0c0.16-.14,3.83-3.4,3.83-7.56S19.56,7.78,19.4,7.64a0.86,0.86,0,0,0-1.14,0C18.11,7.78,14.43,11,14.43,15.2Z" transform="translate(-5.6 -3.12)"/>
    <path class="cls-1" d="M26.94,20.28c3-2.94,2.77-7.79,2.76-8a0.86,0.86,0,0,0-.82-0.81,14.26,14.26,0,0,0-4.47.6A9.61,9.61,0,0,1,25,15.2a12,12,0,0,1-3.12,7.52A9.89,9.89,0,0,0,26.94,20.28Z" transform="translate(-5.6 -3.12)"/>
    <path class="cls-1" d="M5.87,22.74a11.07,11.07,0,0,0,6.78,2.82,9.26,9.26,0,0,0,4-1c-3.45-.4-6.54-1.8-8.43-4.72a11.87,11.87,0,0,0-2.32,1.61A0.86,0.86,0,0,0,5.87,22.74Z" transform="translate(-5.6 -3.12)"/>
    <path class="cls-1" d="M25,25.56a11.07,11.07,0,0,0,6.78-2.82,0.86,0.86,0,0,0,0-1.26,11.88,11.88,0,0,0-2.32-1.61c-1.89,2.92-5,4.32-8.43,4.72A9.26,9.26,0,0,0,25,25.56Z" transform="translate(-5.6 -3.12)"/>
    <path class="cls-1" d="M16.69,26.45a12.65,12.65,0,0,0,1.87.8,0.86,0.86,0,0,0,.54,0,12.65,12.65,0,0,0,1.87-.8,13.77,13.77,0,0,1-2.14-1.11A13.65,13.65,0,0,1,16.69,26.45Z" transform="translate(-5.6 -3.12)"/>
    <path class="cls-1" d="M8.78,11.47a0.86,0.86,0,0,0-.82.81c0,0.21-.25,5.05,2.76,8a9.89,9.89,0,0,0,5.1,2.44,12,12,0,0,1-3.12-7.52,9.61,9.61,0,0,1,.55-3.13A14.22,14.22,0,0,0,8.78,11.47Z" transform="translate(-5.6 -3.12)"/>
  </g>
</svg>
