<svg xmlns="http://www.w3.org/2000/svg" viewBox="0 0 70.56 80"><defs><style>.cls-1{fill:#babcbe;}</style></defs><title>Ресурс 40</title><g id="Слой_2" data-name="Слой 2"><g id="Layer_2" data-name="Layer 2"><path class="cls-1" d="M69.89,43.24c-1.78-4-7.4-4.22-9.73-4.15a1.92,1.92,0,0,0-1.84,1.64l-.14,1L57,41.51c-.1-1.56-.54-7.12-1.62-9.6a10.21,10.21,0,0,1-.73-2.55c-.31-2.08-.77-4.53-.87-5.11A17.08,17.08,0,0,0,54,16.84a15.6,15.6,0,0,1,0-6.36L55,8.75a3.51,3.51,0,0,0,.51-1.55,3.34,3.34,0,0,1,.27-1.12c.2-.45.49-.9.81-1A.44.44,0,0,0,57,4.83a.52.52,0,0,0-.6-.71,2.18,2.18,0,0,0-1.26,1.09,3.24,3.24,0,0,0-.85-1L54,4l.57-2.94A.53.53,0,0,0,54.28.5a.5.5,0,0,0-.69.37l-.58,3-.37.19L52.18.45A.53.53,0,0,0,51.61,0a.52.52,0,0,0-.45.58l.51,4-.31.16L49.79,1a.52.52,0,0,0-.58-.32.51.51,0,0,0-.37.7l1.6,3.76-.6.3-2-2.56a.51.51,0,1,0-.79.64l2.18,2.8.83,3.07c-.14,1.24-1.32,12.28-.75,14.72-.26,5.28-.15,8.88.32,10.72C48.06,36.16,41.53,39.1,39,40.2,38.11,40.41,27.77,43,23.9,48c-3.6,4.64-6.27,8.7-6.64,9.27a18.77,18.77,0,0,1-4,2.51c-2,.79-7.64,6.16-9.77,10.09C1.45,71.9,0,75,0,76.48,0,77.66,1.45,78.81,3.11,79a1.51,1.51,0,0,0,1.66-1.62l-.13-2.75A2.18,2.18,0,0,1,5.2,73l0,0a15.32,15.32,0,0,1,3.1-2.63c2.33-1.48,5.24-3.47,6.22-4.69,2-.74,8.67-5.18,12.73-8.85a5.52,5.52,0,0,1,6.35-1.08,22.27,22.27,0,0,0,4.55,1.48,69.24,69.24,0,0,0,11,1.6,43.65,43.65,0,0,0,1.86,4.33c0,.22,0,.43.08.63a4.76,4.76,0,0,1,0,1.51c-.51,2.84-.11,9.34.09,12a2.26,2.26,0,0,0,1.79,2l2.62.54a9.11,9.11,0,0,0,1.81.18l.65,0A15.64,15.64,0,0,0,61,79.51a.5.5,0,0,0,.32-.28.54.54,0,0,0,0-.43c-.56-1.18-2-2-3.53-2.46l.2,0a18.49,18.49,0,0,0,3.53.29c.74,0,1.45,0,2.06-.07a1,1,0,0,0,1-.85A1,1,0,0,0,64,74.64c-3.11-1.19-5.36-2.48-6.33-3.62C56.17,69.31,55.92,63.25,56,60a5.43,5.43,0,0,1,.27-1.69,95.85,95.85,0,0,0,1.94-10.36A5.12,5.12,0,0,1,60.27,49a6.62,6.62,0,0,0,3.56,1.49A11.49,11.49,0,0,0,63.3,54a15.24,15.24,0,0,0,2,6.94.51.51,0,0,0,.44.25h.08a.5.5,0,0,0,.42-.39,36.19,36.19,0,0,0,1-7.1,12.43,12.43,0,0,0-.88-3.4,5.43,5.43,0,0,0,3.56-2.15c.85-1.29.83-2.95,0-4.91ZM49.83,36a3.35,3.35,0,0,1,0,1.15.51.51,0,0,0,.35.63.36.36,0,0,0,.14,0,.5.5,0,0,0,.49-.37,5.33,5.33,0,0,0,0-2.19c0-.16-.17-.65-.21-.85-.3-1.37-.52-4.25-.22-10.25a.88.88,0,0,0,0-.16c-.49-1.78.39-11.08.77-14.51a.4.4,0,0,0,0-.19L50.29,6.4,53.4,4.84l.2.17a2.45,2.45,0,0,1,.55,3.2L53,10a.67.67,0,0,0-.06.12A15.72,15.72,0,0,0,53,17a15.8,15.8,0,0,1-.24,7,.57.57,0,0,0,0,.26s.53,2.85.88,5.19a11.33,11.33,0,0,0,.81,2.81c.76,1.74,1.19,5.29,1.4,7.56-2.24.45-4,.22-5.22-.67a4.44,4.44,0,0,1-1.67-2.65c.35-.21.66-.4.92-.58Zm-10.58,5.2.09,0c.72-.31,5.5-2.38,8.64-4.08a5.33,5.33,0,0,0,2,3,6.23,6.23,0,0,0,3.77,1.1,12.17,12.17,0,0,0,2.16-.22c0,.18,0,.34,0,.48a5.36,5.36,0,0,0-3.66,1.11,3.26,3.26,0,0,0-1,2.74c.2,3.2.4,5.21,1.42,6a1.68,1.68,0,0,0,1.09.38,1.84,1.84,0,0,0,.33,0,5.37,5.37,0,0,0,2.63-1.44c0,.32-.1.66-.16,1a26.79,26.79,0,0,0-5.45,2l-.75-.75a.51.51,0,0,0-.55-.12,4.74,4.74,0,0,1-4.74-1,.5.5,0,0,0-.72,0,.51.51,0,0,0-.13.47,28.82,28.82,0,0,0-6.91,1.61l-.53.18a1.85,1.85,0,0,1-1.25,0c-5.29-1.94-6-7.23-6.15-8.57a46.47,46.47,0,0,1,9.8-3.76ZM7.79,69.46a16.44,16.44,0,0,0-3.31,2.8l0,0a3.21,3.21,0,0,0-.83,2.32l.14,2.76a.5.5,0,0,1-.15.41.48.48,0,0,1-.4.13C2,77.83,1,77,1,76.48c0-1.14,1.28-4,3.27-5.89a.35.35,0,0,0,.11-.13A32.47,32.47,0,0,1,10.66,63,6,6,0,0,0,12.76,66a49.61,49.61,0,0,1-5,3.51Zm43.18-9c-.52-1.23-.92-2.33-.92-2.34a.52.52,0,0,0-.47-.34,67.52,67.52,0,0,1-11.17-1.59,21.75,21.75,0,0,1-4.35-1.41A6.55,6.55,0,0,0,26.6,56c-3.93,3.56-11,8.21-12.5,8.68a.54.54,0,0,0-.27.2,3.56,3.56,0,0,1-.29.34,5.18,5.18,0,0,1-2-2.94,9.91,9.91,0,0,1,2.2-1.53A20,20,0,0,0,18,58.05l.1-.12s2.8-4.31,6.64-9.26a13.75,13.75,0,0,1,3.78-3.17c.28,2,1.49,7,6.75,9a3,3,0,0,0,1,.18,2.86,2.86,0,0,0,.92-.15c.18,0,.36-.12.54-.18a26.75,26.75,0,0,1,7.62-1.63,5.7,5.7,0,0,0,4.6.64l1.92,1.92a15.48,15.48,0,0,0-.88,5.2Zm5.87,11.23c1.38,1.62,4.38,3,6.68,3.9a22.3,22.3,0,0,1-5.31-.21c-.69-.13-2.73-.48-3.8,0,.14-1.48.51-5.25.85-8.84.27,2.14.74,4.14,1.58,5.12ZM55.25,58a9.17,9.17,0,0,0-.39,2c-.37,4-1.52,15.9-1.53,16a.51.51,0,0,0,.45.56c1.4.15,4.91.81,6.25,2.18A15.55,15.55,0,0,1,58,79a7.58,7.58,0,0,1-2.18-.14l-2.63-.54a1.21,1.21,0,0,1-1-1.1c-.19-2.62-.6-9-.1-11.73a5.73,5.73,0,0,0,0-1.85c0-.21-.06-.43-.08-.66a.09.09,0,0,0,0,0c-.2-2.18-.08-5.55.86-7.52a.52.52,0,0,0-.1-.58L52,53.91a27.82,27.82,0,0,1,4.5-1.65,48.67,48.67,0,0,1-1.2,5.7Zm11-4.19a27.56,27.56,0,0,1-.64,5.39A13.06,13.06,0,0,1,64.33,54a10.32,10.32,0,0,1,.58-3.53,3.25,3.25,0,0,0,.44,0,11.56,11.56,0,0,1,.88,3.32Zm2.86-6.17c-.9,1.38-3,1.87-4.69,1.87a5.46,5.46,0,0,1-3.54-1.33,5.46,5.46,0,0,0-3.1-1.3.5.5,0,0,0-.53.44s-.07.44-.17,1.13c-.51.63-1.84,2-3,2.2a.78.78,0,0,1-.64-.13c-.74-.61-.9-3.1-1-5.3A2.26,2.26,0,0,1,53,43.25c1.1-1,3.27-.82,3.43-.8l2.12.37a.45.45,0,0,0,.39-.09.48.48,0,0,0,.21-.34l.22-1.52a.9.9,0,0,1,.85-.76c2.13-.06,7.24.15,8.77,3.55.72,1.62.77,3,.13,3.94Z"/></g></g></svg>