<svg xmlns="http://www.w3.org/2000/svg" viewBox="0 0 80.55 60"><defs><style>.cls-1{fill:#babcbe;}</style></defs><title>Ресурс 39</title><g id="Слой_2" data-name="Слой 2"><g id="Layer_2" data-name="Layer 2"><path class="cls-1" d="M79.64,1.47A1.4,1.4,0,0,0,78,2c-.68,1-1.49,2.13-2.32,3.35L76,1.48V1.42A1.43,1.43,0,0,0,73.26.79c-1.8,3.55-4.8,9.7-5.71,12.08a96.16,96.16,0,0,1-7.91,14.4,2.43,2.43,0,0,1-.3.34,7.41,7.41,0,0,1-.78.65l-4.3,3c-3.06-.54-14.2-2-16.73-1.34-.93.23-3.22,0-6.13-.71a41.83,41.83,0,0,1-6.45-2c-2.21-1-5.63-.32-6.95,0l-.58-1.63,1.77-.44a2.63,2.63,0,0,0,2-2.57c0-2.8-.22-6.52-1-8.27-1.75-3.71-6.67-3.53-8.77-2.86a7.62,7.62,0,0,0-5.5,6.88c-.3-.09-.58-.12-.94-.19A3.9,3.9,0,0,0,.75,20c-3.13,5.21,4.49,15.47,4.82,15.91a.58.58,0,0,0,.47.23.54.54,0,0,0,.22,0,.59.59,0,0,0,.37-.62c0-.08-1-9-1-12.33a2.81,2.81,0,0,1,.65-2.07,13.52,13.52,0,0,0,3,4.08,12.49,12.49,0,0,1,1.62,1.91c.9,1.5.51,4.27.38,5A3.57,3.57,0,0,0,10,34.59c-.43,4.72,7.31,10.76,10.57,12.19C23.41,48,28.36,54.53,28.73,55s3.05,5,8.43,5h.34a4.34,4.34,0,0,0,1.36-.28,9,9,0,0,0,1.46.12,9.3,9.3,0,0,0,1.39-.11c2.41-.36,5.66-3.47,9.64-9.25A103.48,103.48,0,0,0,58,39.32l.44,0a4,4,0,0,0,2.13-.8l.38-.29a2.44,2.44,0,0,0,.9-2.6l.11-.07c.43-.24,5.33-3,7.69-7.51.81-1.55,1.54-3.24,2.24-4.87,1.13-2.6,2.4-5.54,3.32-5.85l2-.66a2.82,2.82,0,0,0,2-2.88L79,10.29a3.77,3.77,0,0,1,.1-1.11l1.44-6.13s0,0,0-.06a1.4,1.4,0,0,0-.9-1.52Zm-11,11.82c.89-2.34,3.87-8.44,5.66-12a.23.23,0,0,1,.28-.13.23.23,0,0,1,.2.22l-.52,5.93c-1.56,2.31-3,4.56-3.7,5.79A82.84,82.84,0,0,1,64.26,22a75.69,75.69,0,0,0,4.39-8.73Zm-44.19,15c2.42,1.12,10.72,3.45,13.36,2.78,1.55-.38,7.71.19,12.29.78-4.25.09-10.18.22-11.65.22h-.09a7.54,7.54,0,0,0-2.95.54,6.2,6.2,0,0,1-1.73.44h-.21a67.39,67.39,0,0,1-7.23-1c-.46-.67-2-2.29-6.5-4a8.82,8.82,0,0,1,4.71.22Zm-2.38,2.11a14.54,14.54,0,0,1,2.15,1.35c-1.11-.19-2.16-.38-3.05-.55a3.31,3.31,0,0,0,.9-.8ZM4.4,23.16c0,2.36.48,7.2.79,10.11a38.81,38.81,0,0,1-2.13-3.76C1.7,26.73.37,22.93,1.76,20.62a2.71,2.71,0,0,1,2.92-1.3,6.49,6.49,0,0,1,1.2.4.77.77,0,0,0,0,.15,3.51,3.51,0,0,0-1.5,3.29Zm7.44,3.31a13.75,13.75,0,0,0-1.77-2.11C8.64,22.86,7,21.15,7,19.11a6.53,6.53,0,0,1,4.7-6.51c1.72-.55,5.95-.74,7.35,2.24.56,1.2.9,4,.93,7.78A1.43,1.43,0,0,1,18.9,24l-2.4.6a.61.61,0,0,0-.41.77s1,2.76,1,2.77a.59.59,0,0,0,.36.35A32.8,32.8,0,0,1,21,29.88a3.33,3.33,0,0,1-2.54.83,15.4,15.4,0,0,0-1.78-.1,10.47,10.47,0,0,0-4.16.71,8.58,8.58,0,0,0-.67-4.85ZM37.46,58.82c-4.4.16-7-3.25-7.57-4.18.57-1.32,3.3-7.18,7.93-10.48l9.55-6.64c2-.09,4.51-.22,5.7-.3a4.6,4.6,0,0,0,3.11,2,10.62,10.62,0,0,0-.73,1.06c-1.87,3.11-12.9,18.4-18,18.59Zm0-15.83c-1-.55-3.78-2.29-5-4.13,2.55-.42,4.43-.81,4.75-.88l8-.35c-3.6,2.5-6.75,4.68-7.71,5.36ZM50.38,49.8c-3.69,5.34-6.83,8.45-8.85,8.76a5.42,5.42,0,0,1-.58.06C44.89,56,49.64,50.3,52.86,46c-.78,1.26-1.62,2.56-2.48,3.81Zm9.87-12.53-.39.29a2.76,2.76,0,0,1-1.5.56,8.3,8.3,0,0,1-1,0c-1.71-.09-2.87-.69-3.44-1.79a.56.56,0,0,0-.57-.32c-.77.06-2.92.18-6.21.33-4.6.22-10,.45-10.08.45l-.1,0s-2.38.51-5.57,1c-4.27.68-12,1.66-15.76.57a.59.59,0,1,0-.33,1.13,18.68,18.68,0,0,0,5,.54,74.31,74.31,0,0,0,10.84-1c1.13,2,3.9,3.86,5.27,4.69a28.14,28.14,0,0,0-7.34,9.79c-1.5-1.92-5.43-6.69-8.07-7.84-3.1-1.36-10.23-7.07-9.87-11,.1-1.08.95-2.9,5.53-2.9a15.41,15.41,0,0,1,1.65.09c.73.14,12.49,2.38,15.16,2.38l.32,0a7.39,7.39,0,0,0,2-.5,6.48,6.48,0,0,1,2.63-.48c2,0,12.22-.24,15.3-.31l2.39-.06h.06a2.4,2.4,0,0,1,1.39.45l2.62,1.87a1.2,1.2,0,0,1,.39.45,1.27,1.27,0,0,1-.36,1.61Zm1.13-2.76,0,0-.07,0a2.82,2.82,0,0,0-.36-.33l-2.62-1.87a3.6,3.6,0,0,0-2.08-.67h-.53c1.88-1.32,3-2.12,3.57-2.51a9.23,9.23,0,0,0,1.07-.92.52.52,0,0,0,.11-.1h0a57.9,57.9,0,0,0,4.31-4.9c1.24.37,3.64,1.35,4.53,2.84-.22.46-.44.91-.67,1.35-2.24,4.3-7.17,7-7.22,7ZM77.94,8.91a4.79,4.79,0,0,0-.12,1.46l.23,3.48a1.64,1.64,0,0,1-1.15,1.68c-.69.22-1.43.45-2.07.67-1.34.44-2.4,2.76-4,6.5-.32.73-.64,1.48-1,2.21a10.28,10.28,0,0,0-4.31-2.59A80.5,80.5,0,0,0,71.6,13.7c1.22-2.19,5.13-7.94,7.31-11a.24.24,0,0,1,.3-.09.23.23,0,0,1,.16.25Z"/></g></g></svg>