<svg xmlns="http://www.w3.org/2000/svg" viewBox="0 0 79.79 60"><defs><style>.cls-1{fill:#babcbe;}</style></defs><title>Ресурс 36</title><g id="Слой_2" data-name="Слой 2"><g id="Layer_2" data-name="Layer 2"><path class="cls-1" d="M79.65,40.28a1.86,1.86,0,0,0-1.33-1.07l-3.49-.68a3.41,3.41,0,0,0-1.19,0l-1.18.18a6.08,6.08,0,0,1-2.68-.22A62.84,62.84,0,0,1,57.21,32.8a46.81,46.81,0,0,1-3.68-8.15l-.05-.24c-.42-1.81-1.27-5.59-3.7-6.68a12.81,12.81,0,0,0-4-1,9.94,9.94,0,0,1-1.73-.32c-.65-.21-1.48-.75-1.38-2.91a7.33,7.33,0,0,0,1-1.39,11.73,11.73,0,0,0,1.4-5.62C45.12,2.62,43,0,39.88,0s-5.23,2.62-5.23,6.52a10.72,10.72,0,0,0,2.43,6.86v0c.14,2.27-.72,2.82-1.38,3a9.94,9.94,0,0,1-1.73.32,12.81,12.81,0,0,0-4,1c-2.43,1.09-3.28,4.87-3.7,6.68l0,.24a47.45,47.45,0,0,1-3.67,8.15A63.11,63.11,0,0,1,10,38.46a6.07,6.07,0,0,1-2.68.22L6.15,38.5a3.41,3.41,0,0,0-1.19,0l-3.49.68A1.82,1.82,0,0,0,.15,40.28,1.8,1.8,0,0,0,.29,42l.79,1.24a4.23,4.23,0,0,0,3.43,1.94l.66,0a4.17,4.17,0,0,0,2.74-1l.53-.45a4.71,4.71,0,0,1,.93-.62C9.47,45,11,46,13.27,47.62l1.67,1.18c2.48,1.81,6.06,2.81,9.85,3.86,2.2.61,4.49,1.25,6.75,2.09,4.41,1.63,5,3.35,5,4a1.3,1.3,0,0,0,.84,1.15,1.27,1.27,0,0,0,.47.09,1.32,1.32,0,0,0,1.3-1.15l.72-5.51a2.26,2.26,0,0,0-2.64-2.5l-.69.13-.18,0,3.5-.92,3.54.92-.17,0-.68-.13a2.24,2.24,0,0,0-2,.58,2.2,2.2,0,0,0-.68,1.92l.71,5.51A1.32,1.32,0,0,0,41.93,60a1.36,1.36,0,0,0,.48-.09,1.33,1.33,0,0,0,.84-1.15c0-.66.59-2.38,5-4,2.26-.84,4.55-1.48,6.76-2.09,3.78-1,7.36-2,9.84-3.86l1.67-1.18c2.3-1.61,3.8-2.66,3.9-4.53a4.19,4.19,0,0,1,.93.62l.53.45a4.19,4.19,0,0,0,2.74,1l.66,0a4.22,4.22,0,0,0,3.43-1.94L79.5,42a1.83,1.83,0,0,0,.15-1.7Zm-30.5-.61a10.43,10.43,0,0,1-1.27-6.27.36.36,0,0,0,0-.11,7.85,7.85,0,0,0,1.25-4.24,40.46,40.46,0,0,0,3.58,6.75,3.54,3.54,0,0,0,1.37,1.26A44.08,44.08,0,0,0,58.49,39l-.44,0c-5.21.46-8,.63-8.9.67Zm-2.4-6.56a2.57,2.57,0,0,1-2.22.37.52.52,0,1,0-.22,1,4.54,4.54,0,0,0,1,.11,3.47,3.47,0,0,0,1.49-.32A11.32,11.32,0,0,0,48.14,40a18.22,18.22,0,0,1-12.06,1.78,14.24,14.24,0,0,1-4.46-1.73A11.24,11.24,0,0,0,33,34.27a3.42,3.42,0,0,0,1.52.33,4.56,4.56,0,0,0,1-.11.52.52,0,1,0-.23-1A2.52,2.52,0,0,1,33,33a2.92,2.92,0,0,1-.32-.44,7.3,7.3,0,0,1-1-4.48c1.23-.85,2-2.89,2.35-6.07a35.71,35.71,0,0,0,.15-4.26l.38-.05C34.78,23.62,37,28,39.86,28S45,23.62,45.2,17.72l.38.05A35.86,35.86,0,0,0,45.73,22c.34,3.23,1.15,5.28,2.41,6.11A7.29,7.29,0,0,1,47,32.77a2.63,2.63,0,0,1-.28.34Zm-14.84.24a11.2,11.2,0,0,1-.55,4.77,8,8,0,0,1-.72,1.55c-.87,0-3.69-.21-8.9-.67l-.44,0a43,43,0,0,0,4.37-1.9,3.64,3.64,0,0,0,1.38-1.26,41.12,41.12,0,0,0,3.57-6.75,8,8,0,0,0,1.29,4.3ZM39.88,1c2.55,0,4.2,2.15,4.2,5.48,0,3.81-1.95,7.29-4.1,7.29s-4.29-3.55-4.29-7.29C35.69,3.19,37.34,1,39.88,1ZM36,17.43a3.14,3.14,0,0,0,2.08-3.16,3.45,3.45,0,0,0,1.87.57,3.29,3.29,0,0,0,1.7-.48,3.13,3.13,0,0,0,2.08,3.07l.41.11a18.14,18.14,0,0,1-1.42,6.7C41.94,26,40.89,27,39.86,27S37.79,26,37,24.24a17.82,17.82,0,0,1-1.43-6.68l.47-.13ZM9.47,41.92a5.6,5.6,0,0,0-1.7,1l-.53.45a3.18,3.18,0,0,1-2.17.77l-.53,0A3.2,3.2,0,0,1,2,42.66l-.79-1.24A.73.73,0,0,1,1,41.08a4.42,4.42,0,0,0,1.9.46,3.73,3.73,0,0,0,1.72-.43.52.52,0,0,0,.22-.7.53.53,0,0,0-.7-.22,2.89,2.89,0,0,1-2.51,0l3.49-.68a2.16,2.16,0,0,1,.84,0l1.18.17a6.87,6.87,0,0,0,3.15-.26,63.51,63.51,0,0,0,12.9-5.82.58.58,0,0,0,.18-.17,47.45,47.45,0,0,0,3.86-8.57l.06-.24c.34-1.52,1.15-5.09,3.1-6a9.88,9.88,0,0,1,2.69-.75,33.66,33.66,0,0,1-.16,4,11.47,11.47,0,0,1-1.2,4.54c0-.37.08-.77.13-1.19a.52.52,0,0,0-.41-.57.53.53,0,0,0-.61.37,36,36,0,0,1-4.7,10.16,2.63,2.63,0,0,1-1,.89,55,55,0,0,1-6.46,2.67c-5.63-.17-8.74.87-9.26,3.11ZM36.65,52l.77-.15a1.21,1.21,0,0,1,1.43,1.35l-.72,5.51a.27.27,0,0,1-.27.24.16.16,0,0,1-.1,0,.28.28,0,0,1-.18-.23,1.5,1.5,0,0,0,0-.29c-.2-1.82-.18-4,.2-4.39a.52.52,0,0,0,0-.74.53.53,0,0,0-.73.05c-.17.2-.61.91-.6,3a12.21,12.21,0,0,0-4.47-2.58c-2.3-.85-4.61-1.49-6.84-2.11a47.08,47.08,0,0,1-7.48-2.51,16.13,16.13,0,0,1,.9-2.27,7.07,7.07,0,0,1,2.76-3.37,12.38,12.38,0,0,1,5.58,3.8l.38.41a35.69,35.69,0,0,0,5.94,3.41,7.8,7.8,0,0,0,2.21.7l1.13.18a.48.48,0,0,0,.17,0Zm18.08-.35c-2.23.62-4.54,1.26-6.84,2.11a12.19,12.19,0,0,0-4.5,2.61,11.58,11.58,0,0,0-.34-3,.52.52,0,0,0-.64-.36.51.51,0,0,0-.36.63,14.41,14.41,0,0,1,.2,4.68c0,.12,0,.23,0,.33a.29.29,0,0,1-.17.23.22.22,0,0,1-.11,0,.27.27,0,0,1-.27-.24l-.72-5.51a1.21,1.21,0,0,1,1.43-1.35l.77.15a.48.48,0,0,0,.17,0l1.13-.18a7.7,7.7,0,0,0,2.21-.7,35.69,35.69,0,0,0,5.94-3.41l.38-.41a12.45,12.45,0,0,1,5.46-3.76c2,1.09,3.27,4.58,3.62,5.68a49.81,49.81,0,0,1-7.32,2.43Zm11.19-4.89c-.5.35-1.07.75-1.68,1.2a12,12,0,0,1-1.25.78,13.31,13.31,0,0,0-3.18-5.49,8.21,8.21,0,0,1,1.92,0,.52.52,0,0,0,.57-.46.53.53,0,0,0-.46-.58c-5-.54-8.25,2.91-9.63,4.38l-.36.38a33.09,33.09,0,0,1-5.66,3.22l-.58.25L40,49a.61.61,0,0,0-.27,0l-5.54,1.47-.59-.25A33.09,33.09,0,0,1,27.94,47l-.36-.38C26.2,45.13,23,41.68,18,42.22a.52.52,0,0,0,.12,1,7.8,7.8,0,0,1,1.74,0,13,13,0,0,0-3.16,5.41,12.92,12.92,0,0,1-1.1-.69c-.61-.45-1.18-.85-1.68-1.2-2.61-1.82-3.7-2.58-3.43-4.38v0a.5.5,0,0,1,0-.12c.4-2.31,5.38-2.5,8.32-2.4h0c.87,0,1.83.09,2.84.18,5.56.5,8.42.65,9.09.69a15,15,0,0,0,5.07,2.07,17.49,17.49,0,0,0,3.67.39A20.68,20.68,0,0,0,49,40.72c.58,0,3.44-.18,9.13-.69,1-.09,2-.15,2.85-.18h0c2.94-.1,7.92.09,8.33,2.4,0,0,0,.08,0,.12h0c.27,1.81-.81,2.57-3.43,4.39Zm12.71-5.35-.79,1.24a3.2,3.2,0,0,1-2.59,1.46l-.53,0a3.21,3.21,0,0,1-2.17-.77L72,42.92a5.49,5.49,0,0,0-1.7-1c-.52-2.24-3.63-3.29-9.26-3.11a55.73,55.73,0,0,1-6.46-2.67,2.63,2.63,0,0,1-1-.89,36.28,36.28,0,0,1-4.7-10.16.53.53,0,0,0-.6-.37.52.52,0,0,0-.42.57c.06.47.11.89.14,1.29a10.92,10.92,0,0,1-1.27-4.64,33.88,33.88,0,0,1-.16-4,9.93,9.93,0,0,1,2.75.76c2,.88,2.76,4.45,3.11,6l.05.24a46.87,46.87,0,0,0,3.87,8.57.46.46,0,0,0,.17.17,63.29,63.29,0,0,0,12.91,5.82,6.81,6.81,0,0,0,3.14.26l1.18-.17a2.37,2.37,0,0,1,.84,0l3.45.67a2.87,2.87,0,0,1-2.52,0,.52.52,0,1,0-.48.92,3.73,3.73,0,0,0,1.72.43,4.34,4.34,0,0,0,2-.49.71.71,0,0,1-.12.37Z"/></g></g></svg>