<svg xmlns="http://www.w3.org/2000/svg" viewBox="0 0 117.82 50"><defs><style>.cls-1{fill:#babcbe;}</style></defs><title>Ресурс 46</title><g id="Слой_2" data-name="Слой 2"><g id="Layer_2" data-name="Layer 2"><path class="cls-1" d="M117.78,41.66c-.07-.72-.49-1.47-.36-2.13a2.69,2.69,0,0,0-1.26-3.06,5.6,5.6,0,0,1-2.83-3.83c-.08-.53-.94-1.11-1.56-1.34-1.89-.71-2.79-1.83-2.69-3.83.24-4.9-2.38-8.72-4.75-12.64h0c-1.16-1.19-2.25-2.47-3.5-3.57A48.16,48.16,0,0,0,80.42,1.05a34.09,34.09,0,0,0-18.2.39C57,3,51.76,4.45,47.56,8.17a7.37,7.37,0,0,0-1.09,1.74L46,9.76A14.76,14.76,0,0,0,38.21,9c-4.29.85-6.48,4.72-9.93,6.78-.79.46-1.2,1.54-1.81,2.32a2,2,0,0,0,.38,3.23c.51.41,1,.87,1.67,1.49-4.38,2.21-8.46,4.07-13,4.69a3.12,3.12,0,0,1-3.29-1.65A9.77,9.77,0,0,0,7.77,22c-2.12-.83-5.63.81-6.32,3a21.16,21.16,0,0,1-.91,2.86C-.57,30.18,0,32,2.36,32.82a2.61,2.61,0,0,1,1.82,2.9c0,3.64,2,5.08,5.41,3.79,2.19-.82,4.34-1.77,6.53-2.62,2.75-1.06,5.47-2.11,8.56-1.35a32.43,32.43,0,0,0,5.48.77c5,.37,10,.29,14.4-2.71,1.33-.89,2.65-1.78,4-2.64a2.69,2.69,0,0,1,1.07-.38,71.65,71.65,0,0,0,7.2-1,33.86,33.86,0,0,1,11.1-1.25c.53.05,1.37,0,1.54.34.76,1.33,2,1.1,3.12,1.17a38.48,38.48,0,0,1,5.17.39c1.53.32,2.95,1.18,4.48,1.6A1.66,1.66,0,0,1,83.67,34c-.91,4.43,1.83,8,2.81,12a2.54,2.54,0,0,0,.6.85,8,8,0,0,0,8.3,2.93C99,49,101,46.3,102.45,43.05c.88-2,1.9-3.95,2.85-5.92l.5.08c-.13,2.16.38,4,2.61,4.65a12.32,12.32,0,0,0,2.78.45c1.67.1,3.38-.27,4.9.87a1.61,1.61,0,0,0,1.52,0C117.89,42.91,117.83,42.16,117.78,41.66Zm-69-32.92C50.31,6,53.45,4.53,56.3,3.47a34.48,34.48,0,0,1,9.94-2l.49,0c2-1,4.11-1,6.18-.91A46,46,0,0,1,96.68,8.69a67.84,67.84,0,0,1,6,5.07,12.4,12.4,0,0,1-1.65.54c-2,.3-4,.47-6,.87A22,22,0,0,0,91,16.51c-2.24.91-4.43,1.95-6.65,2.9a2.26,2.26,0,0,1-1.31.22,12.07,12.07,0,0,1-1.94-.81,10,10,0,0,1,1.1-1.24A18.19,18.19,0,0,0,85,14.92c-1.22.84-2.46,1.65-3.66,2.52-2.43,1.76-4.16.57-6.19-.56a45.39,45.39,0,0,1-5.06,4.17,10.5,10.5,0,0,1-8.7.77,5.51,5.51,0,0,1-1.38-1,6.09,6.09,0,0,1,1.24-1.33c3.37-1.85,6.79-3.59,10.15-5.45a10.94,10.94,0,0,0,1.84-1.65L73,12.07A19.7,19.7,0,0,1,70.53,14c-3,1.61-6.09,3.2-9.2,4.65A7.89,7.89,0,0,0,57.5,22a11.58,11.58,0,0,1-4.25,4.46c-.37-3.53-2.7-5-5.66-5.85a4.32,4.32,0,0,1,.64-2.19,1.8,1.8,0,0,1-.41-.64,12.15,12.15,0,0,1-1.31,2,1.82,1.82,0,0,1-1.4.29,4.5,4.5,0,0,0-4,.82c1.5-2.47,4.33-2.28,6.66-3.18A11.54,11.54,0,0,1,48.74,8.74ZM37.2,27.34c.29-1,.6-2.08.89-3.09l3.83.68-3.54,3.14h0Zm1.15.75c-.37.23-.76.65-1.09.61-3.94-.54-7.75.27-11.58.94-1,.18-2.05.21-3.08.32l-.23-.51c1.67-.87,3.29-1.84,5-2.57a13,13,0,0,1,3.36-.68,5.12,5.12,0,0,1,1.72.25C34.43,27,36.38,27.54,38.35,28.09Zm2.44-6.5C42,23,42,23,43.85,21.61l-1-.18c0-.1.06-.26.09-.26a5.35,5.35,0,0,1,1.56.11c.15,0,.25.77.11,1.07a2.1,2.1,0,0,1-2.56,1.17C41.06,23.35,40.64,22.79,40.79,21.59Zm-3.41-11-5.83,3.6c1.1-2.32,5.32-4.79,8.61-4.81a21.41,21.41,0,0,1,3.57.3c.37.06.68.53,1,.81l0,0,.1.06a3.59,3.59,0,0,1,1,.87l.84.16v.36l-.5,0a5.77,5.77,0,0,1,.27.56h.09c.05.14.09.27.13.4l-.09,0a3.43,3.43,0,0,1,0,1.53c0,.13-.06.26-.1.38H47c-.22,2-1.73,2.64-3,3.46-.62.4-1.4.53-2.05.9-1.93,1.11-2.3,3-1.12,4.9l-2.52-1.49-.1.15.29.31c-.41.65-.75,1.18-1.1,1.7-.54.77-.94,1.9-1.68,2.21a2.07,2.07,0,0,1-2.56-1.18,10.42,10.42,0,0,0-1.73-1.93l.29-.3,3.38,1.13.11-.25-3.41-1.8.19-.46H36.6l0-.3-1.29-.1a14.84,14.84,0,0,1-2.51-.3c-.35-.1-.58-.66-.87-1,.33-.24.64-.65,1-.7,1.56-.21,3.12-.32,4.73-.69-1.34,0-2.68,0-4,0A9.75,9.75,0,0,1,32,18.64c.42-.54.73-1.29,1.28-1.55a13.61,13.61,0,0,1,2.81-.71L36.07,16,31.6,17c.62-2.06,2.59-2.09,3.52-3.48l-3.49,1.83L31.42,15l6.15-4.12Zm-8.26,11,1.59.1-1.54-1,1.63-.86L29,19.4l1.67-1.61-1.61.55c.19-1.31,1.26-1.18,2.08-1.37.14,0,.53.3.52.45a33.43,33.43,0,0,1-.34,4.6c-.32,1.68-.79,1.76-2.68.45l1.43.19Zm-.36-5.67-.08-.33a5.25,5.25,0,0,1,1.81-.53c.29,0,.54.78,1,1.49a8.66,8.66,0,0,0-1.58.14,8.86,8.86,0,0,0-1.36.7l1.14-1.47Zm-.39,1.54c.2,1.28.39,2.55.64,4.19C27.58,20.75,27.17,18.34,28.37,17.46ZM20.61,26.7c2.23-.71,4.38-1.65,6.54-2.54,1.9-.79,2.78-.53,4.18,1.54-3.73.07-6.73,1.8-9.78,3.5-1.73,1-3.55,1.15-5.21-.43-.38-.36-1.15-.31-2.12-.53C16.62,27.67,18.66,27.33,20.61,26.7ZM7.67,23.26c1.8.89,3.55,1.79,4.62,3.63a12.07,12.07,0,0,0,1.59,1.78c.57.62,1,1.35.36,2.09s-1.56.54-2.24-.11a21.68,21.68,0,0,1-1.46-1.74l-.08.73c-2.21-1.11-3.1-3.07-3.64-5.25l.36-.32,2.68,2.12.25-.3A8.81,8.81,0,0,0,7.84,24a9.49,9.49,0,0,0-3.08-.08A2.34,2.34,0,0,1,7.67,23.26Zm5.42,8.83A3,3,0,0,1,9.38,29.9ZM19.71,35c-1.47.52-3,1-4.42,1.57s-3.11,1.35-4.71,1.89A11.5,11.5,0,0,1,7,39.26a2.21,2.21,0,0,1-2.27-2.58c.48-1.78-.35-3.23-.72-4.81,0-.13,0-.27.35-.68l2.73,3L7.35,34c-.4-.6-.77-1.22-1.2-1.79-.86-1.11-2.17-1.94-2-3.65,0-.26-.55-.64-.91-.86A14.77,14.77,0,0,0,1.52,27l1.88-.88c0,.56-.06.91-.08,1.26l.25.09a23.92,23.92,0,0,1,1.49-2.6c.22-.3.82-.34,1.06-.43,1.54,3.18,1.87,6.92,5.59,8.35a29.59,29.59,0,0,0,3.71.61c1.46.34,2.88.84,4.31,1.27ZM47,31.4c-5.87,5-12.73,5.19-19.83,4.05-3.19-.52-6.35-1.23-9.5-2-1.86-.44-2-.91-1.27-2.6a1.44,1.44,0,0,1,1.14-.71C22,31,26.2,30,30.5,29.38a60.16,60.16,0,0,1,7.6-.06H40c-1.15-.82-.82-1.52-.11-2.11,1.83-1.53,3.67-3.05,5.58-4.48,1.33-1,2.56-.05,3.69.53a4.24,4.24,0,0,1,2.25,3.62,2.17,2.17,0,0,1-.63,1.56C49.59,29.5,48.24,30.37,47,31.4ZM68.73,28c-4.2-.62-8.23.14-12.25,1.26-1.84.51-3.74.78-5.61,1.16l-.27-.73a13.07,13.07,0,0,0,1.9-1.36C54.24,26.55,56,24.8,57.59,23a1.68,1.68,0,0,1,2.1-.71A13.8,13.8,0,0,0,70,21.69a14,14,0,0,0,3.46-2.52,2.66,2.66,0,0,1,3.41-.7,7,7,0,0,0,2.25.55,3.39,3.39,0,0,1,2.74,2.33c.27,1.2.65,2.37.81,3.57A1.72,1.72,0,0,1,80.92,27c-1.48,0-3-.09-4.45-.18-.54,0-1.24-.43-1.58-.22-1.49.95-3.26.75-4.83,1.33A2.84,2.84,0,0,1,68.73,28ZM106,34.28c-.08,1.54-1.28,3.06-2.12,4.51-.17.28-1,.16-1.66.24-.21,6.08-3.88,10.72-8.61,10.56-5-.17-8.15-4.2-8.3-10-.4-.6-1.14-1.21-1.13-1.8a47.2,47.2,0,0,1,.66-5.55,4.89,4.89,0,0,0,.33-1.53c-.27.42-.54.83-.84,1.31-4.54-1.9-9-3.32-13.86-2.79,0-.31,0-.61,0-.92.54,0,1.09-.05,1.62-.14a3.23,3.23,0,0,0,1.55-.39,2.26,2.26,0,0,1,2.74-.46c2.41,1.15,4.61.4,6.79-.66.45-.22.87-.49,1.3-.74,2.13-1.22,2.82-.67,3.88,1.41A9.54,9.54,0,0,1,89.12,34c-.3,1.52.53,3.27.85,4.91.11.52.2,1,.37,1.91.64-.83,1.28-1.63,1.87-2.47s1.09-1.66,1.65-2.51c-1.77,0-1.51,2.35-3.2,3A8.22,8.22,0,0,1,91.83,29c-.9,0-1.9.26-2.13-.05a6.67,6.67,0,0,1-1.1-2.71c-.21-1.1,1.86-3.32,3-3.58a2.13,2.13,0,0,0,1.27-1c.93-1.83,2.09-3.05,4.39-2.83a3.76,3.76,0,0,0,2.11-.91,1.57,1.57,0,0,1,2.45.41C105.36,23.08,106.31,28.57,106,34.28Zm10.18,8.44c-1.4-1.15-2.94-1.06-4.54-.92a9.2,9.2,0,0,1-1,0c-3-.1-4.45-1.66-4.35-4.68a46.07,46.07,0,0,0,.08-7.33c-.49-3.7-.88-7.53-3.53-10.56a5.31,5.31,0,0,1-.55-1.06c-.69-1.3-1.82-1.62-2.93-.67a3.09,3.09,0,0,1-2.73.74c-1.86-.25-2.84,1.16-3.79,2.45a6.31,6.31,0,0,0-.55,1.21l-.31-.32c-.71.62-1.43,1.23-2.14,1.86-.9.79-1.55,1.82-3.13,1.5-1-.19-2.07.34-3.45.61l.9-1.62c-1.46-.29-.55-1.15-.38-1.62l-1.28-.59c.36-.51.61-1.31,1.08-1.46,3-1,5.79-2.66,9.14-2.47l-1.14-.4c0-.15-.09-.3-.14-.45,1-.4,2.1-.83,3.17-1.18a3.18,3.18,0,0,1,1.34-.1c2,.26,3.77-.47,5.64-.86a11.62,11.62,0,0,1,2.76,0c-.26,2,1.54,3.07,2.28,4.63a17.87,17.87,0,0,1,2,8.26c0,1.55.12,3.1.19,4.65l.54,0c-.12-.69-.24-1.38-.35-2.06,1.12.58,2.16,1.09,3.18,1.66.28.16.68.51.66.74-.13,2.25,1.89,2.9,3,4.21a22.74,22.74,0,0,1,1.3,1.9l-.34.27-.89-.11c.12.24.21.41.29.59a18.56,18.56,0,0,1,1,2.44C117.53,43,116.82,43.24,116.18,42.72Z"/></g></g></svg>