<svg xmlns="http://www.w3.org/2000/svg" viewBox="0 0 63.32 60"><defs><style>.cls-1{fill:#babcbe;}</style></defs><title>Ресурс 47</title><g id="Слой_2" data-name="Слой 2"><g id="Layer_2" data-name="Layer 2"><path class="cls-1" d="M22.86,34.83l-.39.22,1,2.46-.14.11-1.71-2.15-.28.16,1.8,4.45-.32,0a14.39,14.39,0,0,0-.62,1.58,2.69,2.69,0,0,0,2.08,3.59A27.88,27.88,0,0,0,37,45.51a2.76,2.76,0,0,0,2.17-1.95,4.78,4.78,0,0,0-.3-3.77l-.73.94-.27-.15,1.77-3.73-1.53.82-.29-.31,1.86-1.07-.38-.42-1.12.35,1.62-1.78-.26-.24-1,.74-.12-.12,1.52-2.13a5.36,5.36,0,0,1-4.69-.13,3.19,3.19,0,0,1,.75-.05c2.63.52,4.43-1.5,5-3.5.09-.32.22-.64.28-1,.18-1.13.82-1.47,1.88-1.16,0,.1,0,.22,0,.23-1.58.62-1.82,1.24-.89,2.72S44.3,33,45.35,34.55c.18.27.33.56.61,1-2.35-1.42-3.05-3.77-4.45-6a3,3,0,0,0,.68,2.7,25.67,25.67,0,0,0,3.35,3.56c2.3,1.92,3.86,4.49,6,6.59a27.43,27.43,0,0,0,5.85,4.25l.29-.25L55.5,43.2c1.18.57,2.93,3.17,2.86,4.2a1,1,0,0,1-.27.6c-1.22.93-.91,2.25-.89,3.47,0,.28.32.55.53.87l-.1.87.43.07a19.62,19.62,0,0,1,.28-2,11.82,11.82,0,0,1,.58-1.58,10.5,10.5,0,0,1,1.19,1.64,2.86,2.86,0,0,1,.37,1.8,24.14,24.14,0,0,1-1.58,3.18A3.5,3.5,0,0,0,61.41,54a4.78,4.78,0,0,1,.5-1.63c1.63-2.3.2-4.21-.91-6a55,55,0,0,0-4.8-6.21c-1.07-1.26-2.4-2.3-3.53-3.52a41,41,0,0,1-3-3.67c-1.12-1.51-2.12-3.11-3.31-4.88l.77.23,0,0c1.43,2.07,2.84,4.15,4.3,6.2A5.12,5.12,0,0,0,52.91,36a12.89,12.89,0,0,1,3.86,4c1.45,2,3.17,3.73,4.42,5.79,1,1.69,2.16,3.69,2.13,5.54,0,2.28-.57,4.89-3.27,6.06-.72.31-1.27,1.12-2,1.28a16.89,16.89,0,0,1-3.83.3c-3.29,0-6.58,0-9.86-.24-3.07-.23-6.12-.82-9.19-1.14-2.31-.24-4.65-.31-7-.46-.8-.05-1.6-.19-2.4-.19a9.75,9.75,0,0,0-2.65.16A56.45,56.45,0,0,1,10.6,59.44a1,1,0,0,0-.34,0c-1.86,1-3.68.36-5.56,0C2.23,59,1.34,57.39.41,55.21c-1.22-2.84.57-4.46,1.65-6.44C3.58,46,5.19,43.28,6.72,40.51a17.42,17.42,0,0,1,3.45-4.36c1.05-1,1.55-2.55,2.23-3.9.35-.7.5-1.51.84-2.23a13.23,13.23,0,0,0,1.44-4.87A11.06,11.06,0,0,1,17,19.26c1.17-1.51,2.94-1.5,4.73-1.67-6.05,1.12-6.24,5.8-6.81,10.59A7.74,7.74,0,0,0,14,29.6c-.67,1.61-1.18,3.31-1.92,4.88a6.37,6.37,0,0,1-1.82,2.26c-1.9,1.45-2.92,3.49-4.06,5.47C4.55,45.15,2.93,48.13,1.17,51a1.91,1.91,0,0,0,0,2.4c.69,1,1.3,2,2,3a8.47,8.47,0,0,0,1.11,1.05l-2-4.7c1.08-.52,1.93-.89,1.48-2.11,1.21,1,.37,2.57,1.12,3.77.15-.2.3-.31.34-.45a24.58,24.58,0,0,0,.66-2.76,6.08,6.08,0,0,0,0-2.21,3.67,3.67,0,0,1,1-3.67c-.12,1.21-1.19,2.25-.35,3.43,2.54-2,5.61-4.13,7.79-9.54l-.09,1.38.19,0,.84-2.52-1.89.19c3.89-1.1,4.22-4.87,5.85-7.61a9.81,9.81,0,0,0,.6-1.37c.61-1.44.39-2-1.07-2.69l-.48-.27a2.48,2.48,0,0,1,2.43,1.44,6.59,6.59,0,0,0,4.81,4.25c.05,0,.08.11.25.35L23.18,32a5,5,0,0,0,.58,1,4.17,4.17,0,0,0,.92.6l-.39.45L21,32c0,1.08.95,1.69,1.84,2.52l.25-.74,1.95,2.87-.18.19M3.72,52.67c-.84.24-1,.29-.67,1a35.56,35.56,0,0,0,1.64,3.19c.26.48.8.89,0,1.43-.11.08,0,.79.11.8A20.73,20.73,0,0,0,9,59.3c1-.1,1.68-.82,3-.66a15.73,15.73,0,0,0,5.62-.81c3.24-.83,6.38-2.17,9.66-2.74,5.64-1,11.34-1.55,17-2.31a7.51,7.51,0,0,0,1.29-.36l0-.31c-.74-.11-1.5-.18-2.22-.35A22,22,0,0,0,40.4,51c-2.2-.24-4.23-.66-5.95-2.28s-3.52-1.3-4.8.8l.83.42-.18.4-10,.88c.06.5.39,1.27.14,1.59a5.68,5.68,0,0,1-1.8,1.06l-.1-.21,1.88-1.31,0-.48a7.16,7.16,0,0,0-2.61-.76,29.44,29.44,0,0,0-5.21,1.09A12.59,12.59,0,0,1,8.66,53c5.48-3.19,11.54-2.34,17.41-2.89a17.72,17.72,0,0,0-9.32-1.34c-3.16.46-6.29,1.2-9.47,1.83,5.08-2.59,10.48-2.81,16-2.3A6,6,0,0,0,21,47.56,40.48,40.48,0,0,0,7.38,49.91a1.43,1.43,0,0,0-.79.83c-.39,1.19-.65,2.42-1,3.62-.08.27-.42.65-.63.64a1.05,1.05,0,0,1-.72-.59A14.47,14.47,0,0,1,3.72,52.67Zm21.84,3.38v.43c.48.06,1,.14,1.45.17,3.28.2,6.57.32,9.84.62,2.19.2,4.36.79,6.55,1,2.51.22,5.05.19,7.57.25,1.1,0,2.2,0,3.3,0v-.28l-1.53-.45.09-.35a23.93,23.93,0,0,0,2.34.53A12.51,12.51,0,0,0,58,58c.41,0,.91-.37.44-1.09a1.77,1.77,0,0,1,.16-1.36c.38-.82,1-1.55,1.35-2.37a1.19,1.19,0,0,0-1.18-1.74,2.61,2.61,0,0,1,0,1,11.36,11.36,0,0,1-.87,1.45c-.33-.38-.91-.74-.93-1.14-.11-1.56,0-3.14,0-4.73a48.33,48.33,0,0,0-15.79-1.23,11.94,11.94,0,0,0-2.79,1c5.87-.11,11.62-.4,17.2,1.55a45.07,45.07,0,0,0-19,0,16.44,16.44,0,0,0,3.31.85,14.88,14.88,0,0,1,2.71.42c1.1.4,2,.84,3.24.17a6.17,6.17,0,0,1,3.25-.3c2.24.22,4.46.61,6.69,1,.11,0,.2.18.3.27l-.06.36c-3.46-.06-6.86-1.61-10.4-.66l.72,1.14a6.5,6.5,0,0,1-1.6.74C40.35,53.88,36,54.41,31.72,55,29.66,55.3,27.61,55.7,25.56,56.05Zm15-9.74a47.19,47.19,0,0,1,16.48,1,15.46,15.46,0,0,1-6-4.58,41.74,41.74,0,0,0-2.79-3.31c-2.07-2.21-4.19-4.37-6.3-6.55,0,0-.13,0-.07,0-.54,1.36-1,2.68-1.57,4s-1.08,2.36-.36,3.77A3.08,3.08,0,0,1,40,43C39.45,44.27,40,45.2,40.54,46.31ZM7.24,49.2A43.87,43.87,0,0,1,21.16,47c.11-1.46.21-2.86.32-4.27,0-.45.09-.9.16-1.35a6,6,0,0,0-.3-3.81c-.82-1.6-1.61-3.22-2.44-4.87-.31.6-.64,1.35-1.07,2-.71,1.17-1.92,2.21-2.14,3.45-.49,2.68-2.38,4.39-3.83,6.36A41.1,41.1,0,0,1,7.24,49.2Zm28.39-.54,1.86-.91a13.08,13.08,0,0,0,1.92-1c.24-.18.24-.68.35-1a2.54,2.54,0,0,0-.88-.13c-.58.14-1.14.43-1.72.57a25.36,25.36,0,0,1-10.12.1c-1.67-.28-3.31-.78-5.05-1.2l-.49,1.84c.95.49,1.73.88,2.49,1.31s1.51.89,2.25,1.36a2,2,0,0,0,2.66-.25c.31-.33.56-.72.87-1.06A3,3,0,0,1,34,47.61C34.55,48,35.12,48.34,35.63,48.66Zm-31.32,10L.43,53.4A7.66,7.66,0,0,0,4.31,58.62ZM20.8,29.27l-.33-.05a4.16,4.16,0,0,0-.27,4.54Zm20.64,1.94-.75-.15L40.08,35l.32.08Zm-20-.8-.39.28,1.82,2.37C23.41,31.24,21.84,31.26,21.47,30.41ZM59.23,57.09c1.43-.35,2.56-1.38,2.54-2.3ZM21.76,35.21l.39-.19c.17-.92-.75-1.11-1.14-1.66l-.29.18Z"/><path class="cls-1" d="M47.1,28.32c-.5-1.47-1-2.94-1.49-4.42-.74-2.31-1.76-4.29-4.57-4.6-.59-.07-1.09-.75-1.67-1.08-1.26-.7-2.54-1.36-3.89-2.08L35,17.37l-.15,0V15c-.12,0-.17,0-.18,0-2.4,2.83-3.74,2.32-6.05.11-.38-.37-.8-.7-1.42-1.22l-.09,1.66-4.63,1.7-.16-.43c.78-.3,1.55-.62,2.34-.87a3.51,3.51,0,0,0,2.23-4.43c0-.08,0-.21-.06-.22-1.41-.39-1.19-1.71-1.54-2.7-.24-.64-.46-1.31.26-1.87.13-.1.12-.49.07-.72C25.12,3.3,28.09-.14,31,0c3.76.19,6.23,2.81,5.71,6.57a1.22,1.22,0,0,0,.1.65,4.7,4.7,0,0,1-.6,4.14,7.13,7.13,0,0,0-.64,3.76c0,.5,1.06,1,1.69,1.41,1,.62,1.94,1.17,2.91,1.75.22.13.45.34.67.34,2.86-.05,4.24,1.82,5.12,4.12a38.29,38.29,0,0,1,1.23,4.88,1.84,1.84,0,0,1-.11.67ZM29.2,13.92l-1.51-1.84-.37.22c.18.51.22,1.17.56,1.52a18.37,18.37,0,0,0,2.81,2.31,2.35,2.35,0,0,0,1.62.22c1-.18,2.67-2.36,2.78-3.59l-.8,1.35c-.1-.18-.17-.25-.16-.29.27-.66.59-1.3.81-2,.44-1.4.74-2.84,1.24-4.21C37.35,4.41,34.65.46,31.64.49a5.25,5.25,0,0,0-4.55,2.13,4.42,4.42,0,0,0-.5,4.74,4.87,4.87,0,0,1,.58,1.72,4.86,4.86,0,0,0,1.49,3.35M26,8.21l-.5.19,1,2.36.35-.13-.16-1.52-.38.85Z"/><path class="cls-1" d="M25.33,17.38l.13-.39"/><path class="cls-1" d="M33.58,14.05l.05.34"/></g></g></svg>