<svg xmlns="http://www.w3.org/2000/svg" viewBox="0 0 36.43 61"><defs><style>.cls-1{fill:none;stroke:#babcbe;stroke-miterlimit:10;}</style></defs><title>Ресурс 45</title><g id="Слой_2" data-name="Слой 2"><g id="Layer_2" data-name="Layer 2"><path class="cls-1" d="M1.39,60.5c0-1.24.06-2.44,0-3.63-.15-2.33-.27-4.68-.57-7a33.38,33.38,0,0,1-.17-7.54,24,24,0,0,1,2.51-8.68c1.34-2.64,2.72-5.29,3.8-8a7.91,7.91,0,0,0-.6-7.68c-.4-.59-.79-1.2-1.2-1.79a8,8,0,0,1-1-7.24C5.68,4,9.08,1,14.1.55a11,11,0,0,1,8.79,3.28c2.27,2.22,3,5.07,3.55,8a9.51,9.51,0,0,1,5.13,4.85,20.62,20.62,0,0,0,1.62,2.9,8.32,8.32,0,0,1,.93,4.06c.12,1.52.32,3,.48,4.55,0,.45,0,.91.08,1.36.17,1.72.37,3.45.55,5.17s.36,3.15.48,4.73.18,3.18.22,4.78a39.31,39.31,0,0,1-1.34,10.23,19.35,19.35,0,0,1-1.15,3c-.61,1.38-2.22,1.6-3.69.6-1.19-.8-2.45-1.52-3.64-2.32s-2.31-1.62-3.52-2.48c-1.6,2.24-.65,4.77-.83,7.2ZM26.81,20.9l-.2.07a12.12,12.12,0,0,1-.36,1.44c-.36,1-.77,2-1.14,3.06a1.92,1.92,0,0,1-1.92,1.34,4.47,4.47,0,0,1-1.69-.25c-1.19-.56-2,0-2.82.74-1.58,1.51-1.84,5.14-.58,6.92a22.61,22.61,0,0,1,2,3.2,18.23,18.23,0,0,0,3.83,5.52c1,1,2.08,1.92,3.08,2.92a17.62,17.62,0,0,1,1.21,1.5,13.71,13.71,0,0,0,.19-2c.17-1.48.34-3,.63-4.43.41-2,1.05-4,1.34-6a38.16,38.16,0,0,0,0-4.41,3,3,0,0,0-.85-2.29,6.8,6.8,0,0,1-1.7-3.7C27.6,23.25,27.16,22.08,26.81,20.9Zm1-1.86c.45.76.72,1.29,1.06,1.76a.93.93,0,0,0,.62.26c.1,0,.32-.29.29-.39a5.51,5.51,0,0,0-.66-1.6C29,18.89,28.44,19,27.84,19Zm-.49-1.62,1-.66-1.72-1.55-.23.16Z"/><path class="cls-1" d="M29.52,21.06a.93.93,0,0,1-.62-.26c-.34-.47-.61-1-1.06-1.76.6,0,1.18-.15,1.31,0"/></g></g></svg>