<svg xmlns="http://www.w3.org/2000/svg" viewBox="0 0 49.01 61.2"><defs><style>.cls-1{fill:none;stroke:#babcbe;stroke-miterlimit:10;stroke-width:1.2px;}</style></defs><title>Ресурс 38</title><g id="Слой_2" data-name="Слой 2"><g id="Layer_2" data-name="Layer 2"><path class="cls-1" d="M22.08.63a1.37,1.37,0,0,0-1.53.8L11.3,23.13c-2.86,6.3-.22,13.85.9,16.53L1.09,48.86a1.36,1.36,0,0,0-.49.94,1.38,1.38,0,0,0,.34,1l8.2,9.33a1.37,1.37,0,0,0,1,.46h.07a1.35,1.35,0,0,0,1-.57L22.9,43.72a1.3,1.3,0,0,0,.25-.79V41c0-8.29,0-37.49,0-39A1.36,1.36,0,0,0,22.08.63Z"/><path class="cls-1" d="M48.4,49.8a1.32,1.32,0,0,0-.49-.94l-11.1-9.2c1.12-2.68,3.76-10.23.9-16.53L28.45,1.43a1.35,1.35,0,0,0-1.52-.8A1.37,1.37,0,0,0,25.83,2c0,1.54,0,30.75,0,39v1.94a1.31,1.31,0,0,0,.26.79L37.74,60a1.35,1.35,0,0,0,1,.57h.07a1.37,1.37,0,0,0,1-.46l8.2-9.33a1.38,1.38,0,0,0,.33-1Z"/></g></g></svg>