<svg xmlns="http://www.w3.org/2000/svg" viewBox="0 0 34.65 81"><defs><style>.cls-1{fill:none;stroke:#babcbe;stroke-miterlimit:10;}</style></defs><title>Ресурс 41</title><g id="Слой_2" data-name="Слой 2"><g id="Layer_2" data-name="Layer 2"><path class="cls-1" d="M17.76,46.23a100.32,100.32,0,0,0,1.31,11.62c.23,1.37.86,3.59.64,4.78a17.16,17.16,0,0,0-.25,5c.12.75.47,4.22,0,5.5a36.52,36.52,0,0,0-.76,4.07c-1.27,3.22-.56,3.06-.56,3.06.39.49,1.07,0,1.07,0a.64.64,0,0,0,.87-.08.79.79,0,0,0,1,0A1,1,0,0,0,22.08,80c.32.15.39,0,.39,0,1-.06-.53-3.12-.53-3.12a8.49,8.49,0,0,1,.35-4.28c2.33-6.91,2.45-8.74,1.53-11.34-.27-.75-.34-1-.21-1.36.28-.76.07-3.79.41-5a104.37,104.37,0,0,0,1.64-10.93c.46-3.69-1.61-8.65-1.61-8.65-.44-2,.21-9.2.21-9.2a8.61,8.61,0,0,1,.89,4c-.14,2.66,2.15,6.73,2.15,6.73a10.61,10.61,0,0,1,1.52,3.38c0,.49-.1,1.66-.1,1.66l0,1a15.17,15.17,0,0,1,.14,1.59c-.17,2.65.25,2.16.25,2.16.36,0,.75-2.14.75-2.14a9.36,9.36,0,0,0,.16,2.82c.35.75.61-.13.63-.29.09-3.39.29-2.51.29-2.51.2,2.75.44,3.37.88,3.16s0-3.3,0-3.3c.57,1.87,1,2.16,1,2.16.95.65.36-1.16.23-1.52a10.18,10.18,0,0,1-.71-2.56c.86,1.71,1.51,1.65,1.51,1.65.85-.27-.73-2.7-1.65-3.86A9.8,9.8,0,0,1,31,38.28a23.38,23.38,0,0,1-.5-3.36,9.89,9.89,0,0,0-.84-4.34c-1.28-2.06-1.51-5.87-1.51-5.87l-.06-6.46c-.45-4.39-3.7-4.42-3.7-4.42-3.27-.5-3.73-1.55-3.73-1.55a4.62,4.62,0,0,1-.29-2.91,3.46,3.46,0,0,0,.79-1.72c1-.73.91-1.8.47-1.79s-.27-.28-.27-.28C21.94.75,17.66.5,17.66.5H17s-4.3.25-3.7,5.08c0,0,.08.29-.28.28s-.48,1.06.47,1.79a3.51,3.51,0,0,0,.8,1.72A4.62,4.62,0,0,1,14,12.28s-.46,1.05-3.73,1.55c0,0-3.26,0-3.7,4.42l-.06,6.46S6.29,28.52,5,30.58a10.2,10.2,0,0,0-.83,4.34,23.38,23.38,0,0,1-.5,3.36A10.12,10.12,0,0,1,2.4,40.14C1.47,41.3-.1,43.72.74,44c0,0,.66.06,1.52-1.65a10.31,10.31,0,0,1-.71,2.56c-.14.35-.72,2.17.22,1.52,0,0,.43-.29,1-2.16,0,0-.31,3.14,0,3.3s.67-.41.87-3.16c0,0,.2-.88.29,2.51,0,.16.26,1,.63.29a9.33,9.33,0,0,0,.16-2.82s.39,2.14.75,2.14c0,0,.42.49.26-2.16a9.88,9.88,0,0,1,.14-1.59l0-1s-.11-1.17-.11-1.66a10.88,10.88,0,0,1,1.52-3.38S9.65,32.65,9.51,30a8.68,8.68,0,0,1,.88-4s.67,7.18.22,9.2c0,0-2.07,5-1.61,8.65A104,104,0,0,0,10.64,54.8c.35,1.21.14,4.23.42,5,.11.32.06.62-.22,1.36-.92,2.6-.8,4.43,1.53,11.34a8.22,8.22,0,0,1,.35,4.28s-1.49,3.06-.53,3.12c0,0,.07.2.39,0a1,1,0,0,0,1.07.23.79.79,0,0,0,1,0,.63.63,0,0,0,.86.08s.69.45,1.09,0c0,0,.71.16-.56-3.06,0,0-.49-3.4-.75-4.07-.52-1.28-.16-4.76-.05-5.5a17.48,17.48,0,0,0-.24-5c-.23-1.18.4-3.41.64-4.78a104.69,104.69,0,0,0,1.31-11.62l.39.14a.8.8,0,0,0,.46-.14Z"/></g></g></svg>