<svg xmlns="http://www.w3.org/2000/svg" viewBox="0 0 60 82.27"><defs><style>.cls-1{fill:#babcbe;}</style></defs><title>Ресурс 37</title><g id="Слой_2" data-name="Слой 2"><g id="Layer_2" data-name="Layer 2"><path class="cls-1" d="M52.07,18.14c-.14-1.94-1.32-5.28-5-5.28a7.62,7.62,0,0,0-1.15.09,92.7,92.7,0,0,1-9.74,1L25.08,6.67l-.86-.6c-.85-.61-4-2.27-14.47-4.49a2,2,0,0,1-.93-.5L8.77,1A3.83,3.83,0,0,0,6.13,0a4.89,4.89,0,0,0-.66.05L1.78.67A2.13,2.13,0,0,0,.69,4.34l.42.39A4.14,4.14,0,0,0,3.39,5.8l.82.1A9.86,9.86,0,0,0,7.86,7.35c1.6,1.06,8.84,4.93,13.75,5.78a4.39,4.39,0,0,1,2.45,1.32c-.24.46-.5,1-.76,1.54-1.2,2.57-1.69,4.52-1.45,5.79a5.93,5.93,0,0,0,2.79,3.84,7.42,7.42,0,0,0,3.92,1.09h.31A13.13,13.13,0,0,0,27.46,33a19.33,19.33,0,0,0,2.61,8.83.54.54,0,0,0,.45.26h.08a.52.52,0,0,0,.43-.4c.06-.26,1.41-6.31,1.24-9.07a19.43,19.43,0,0,0-1.86-6.06,3.89,3.89,0,0,0,.49-.12,5.74,5.74,0,0,0,3.45-3.56l.35.2c.43.23,4.28,2.28,7.64,4.53,4.54,3.05,4.57,4.06,4.55,4.2-.53.76-5.26,7.86-1.87,11.42-.42,1.46-1.14,3.54-1.83,5.56-.82,2.4-1.6,4.68-1.91,5.93-1.93,2.43-5.23,7-6.14,10.59a76.08,76.08,0,0,1-2.56,7.39c-.43,1.15-.85,2.24-1.15,3.11a7.65,7.65,0,0,0-.3,3.13v0a2,2,0,0,0,1.37,1.61,34.81,34.81,0,0,0,9.23,1.76,4.58,4.58,0,0,0,2.95-.73,1.2,1.2,0,0,0,.49-1,2.11,2.11,0,0,0-1-1.84A9,9,0,0,0,43,78.12a1.21,1.21,0,0,0,.42-.69,1.15,1.15,0,0,0-.6-1.23L38.58,74c1.63-1.85,7.15-8.17,8.37-10.63A17.61,17.61,0,0,1,51,58.44a27,27,0,0,0,4.44-5.29,25.29,25.29,0,0,0,4.31-13.32c0-.22,0-1,.06-1.28.31-3.13,1.14-11.41-7.76-20.41ZM30.31,40a17.29,17.29,0,0,1-1.8-7,12.52,12.52,0,0,1,1.17-5.52,17.12,17.12,0,0,1,1.54,5.2A37.47,37.47,0,0,1,30.31,40ZM21.79,12.09C17,11.26,9.52,7.25,8.34,6.4A.57.57,0,0,0,8,6.3,4,4,0,0,1,6.66,6c.25,0,.49,0,.71-.07a4.07,4.07,0,0,1,2.4.46C13,8.1,19.39,11.27,23.22,12.18a4.34,4.34,0,0,1,1.66.8q-.14.21-.3.51a5.42,5.42,0,0,0-2.79-1.4Zm8.82,13.28a6.68,6.68,0,0,1-5.41-.64,5,5,0,0,1-2.32-3.14c-.36-1.9,1.62-5.85,2.76-7.85a61.22,61.22,0,0,0,7.82,8.45,4.76,4.76,0,0,1-2.85,3.18ZM26.38,13a5.27,5.27,0,0,0-2.92-1.83c-3.72-.88-10-4-13.19-5.72a5,5,0,0,0-3-.57A10.35,10.35,0,0,1,5.92,5a19.15,19.15,0,0,1-2.39-.18A3.14,3.14,0,0,1,1.82,4L1.4,3.57a1.06,1.06,0,0,1-.31-1.1A1.11,1.11,0,0,1,2,1.7l3.69-.61a2.52,2.52,0,0,1,.48,0,2.85,2.85,0,0,1,1.93.75l0,0a2.93,2.93,0,0,0,1.43.76C20.12,4.85,23,6.48,23.62,6.93l.88.61,10.65,7.05s.86.58,1.18.77a4.82,4.82,0,0,0,2.2.76,1.58,1.58,0,0,0,.38,0,.52.52,0,1,0-.23-1,1.64,1.64,0,0,1-.82-.13c.65,0,1.46-.11,2.38-.2.73.42,4.33,2.62,3,5.32a8.63,8.63,0,0,1-4.33,4.12c-1.39-.82-2.7-1.55-3.7-2.07-2.46-1.31-6.91-6.78-8.81-9.11ZM47.79,32.3a.59.59,0,0,0,0-.08c.38-.79.17-2.13-4.91-5.54C42,26.06,41,25.42,40,24.82a9.79,9.79,0,0,0,4.18-4.3c1.24-2.48-.52-4.67-2.25-6,1.27-.14,2.67-.33,4.13-.56a5.82,5.82,0,0,1,1-.08c3.76,0,4,4.19,4,4.46a1.64,1.64,0,0,1-.4,1.05.53.53,0,0,0,.07.74.54.54,0,0,0,.34.12.5.5,0,0,0,.4-.19,2.74,2.74,0,0,0,.41-.67c8,8.44,7.23,16.1,6.93,19l0,.37C49.9,43,46,36.68,45.87,36.4c0-.07-.08-.17-.14-.28a21,21,0,0,1,2.06-3.82Zm-2.52,5.08c.18.23.43.55.76.9a7.62,7.62,0,0,0-.92,3.09,6.39,6.39,0,0,1,.16-4Zm-3.1,17.84a.53.53,0,0,0,.11-.21c.27-1.17,1.1-3.59,1.9-5.94.59-1.71,1.19-3.47,1.62-4.87a5.28,5.28,0,0,0,1.4,1.44C45.81,48.51,43.29,55.85,42.89,57a19,19,0,0,0-1.83,1.74l-.82-1c.7-1,1.38-1.87,1.93-2.56Zm-5.93,10a24.88,24.88,0,0,1,3.38-6.51l.73.88a43,43,0,0,0-4.11,5.63Zm6.11,11.95a.11.11,0,0,1,0,.11c0,.07-.07.07-.09.08l-.52.05a1.81,1.81,0,0,1-.92-.12L37.05,75.7l.82-.92Zm-5-3.36h0l-1.57,1.79a.53.53,0,0,0,.2.84l5.06,2h0a13.34,13.34,0,0,1,2.49,1.16,1.14,1.14,0,0,1,.55.74.53.53,0,0,1,0,.31l-.06,0a3.52,3.52,0,0,1-2.3.5,34.38,34.38,0,0,1-8.9-1.7,1,1,0,0,1-.67-.78,6.77,6.77,0,0,1,.25-2.65c.3-.85.71-1.93,1.14-3.07.31-.8.62-1.63.93-2.45a48.56,48.56,0,0,1,5.18-8.5l4.08,4.1c-2.61,3.36-6.34,7.54-6.4,7.6Zm13-16.14A18.7,18.7,0,0,0,46,62.87a17,17,0,0,1-1.62,2.45l-4.07-4.08a22.39,22.39,0,0,1,3.34-3.48.53.53,0,0,0,.17-.25c0-.09,3.15-9.25,4.51-11.81a.51.51,0,0,0-.19-.69c-2.86-1.72-2-4.57-1.32-6a9.31,9.31,0,0,0,1.65,1.12,9.57,9.57,0,0,0,4.6,1.14A14.2,14.2,0,0,0,58.71,40c-.24,10.52-8.29,17.58-8.36,17.64Z"/></g></g></svg>