<svg xmlns="http://www.w3.org/2000/svg" viewBox="0 0 52.22 80"><defs><style>.cls-1{fill:#babcbe;}</style></defs><title>Ресурс 48</title><g id="Слой_2" data-name="Слой 2"><g id="Layer_2" data-name="Layer 2"><path class="cls-1" d="M37.26,77c.33,1.89,0,2.26-1.53,2.92a.88.88,0,0,1-.53,0,12.56,12.56,0,0,0-4.45-.14A1.06,1.06,0,0,1,30,79.7c-.31-.24-.72-.58-.75-.91a1.29,1.29,0,0,1,.64-.93,4.41,4.41,0,0,0,1.87-2.38c1.23-2.69.24-5-.51-7.51S29.69,62.78,29,60.18a4.79,4.79,0,0,1-.12-1.36A5.76,5.76,0,0,0,28,55.19a7,7,0,0,1-.59-2.11l-3.14.71c1.61,3.16.55,6.25.48,9.31-.07,2.85.08,5.65,1.49,8.26.74,1.37.39,2.12-1.14,2.49a23.52,23.52,0,0,1-3,.27,3.1,3.1,0,0,0-1.09.3,3.24,3.24,0,0,1-2.89.27c-.27-.12-.64,0-1,0a5.79,5.79,0,0,1-1.57-.24c-.23-.1-.36-.59-.4-.92,0-.12.33-.35.55-.42a4.89,4.89,0,0,1,1.6-.4,2.24,2.24,0,0,0,1.83-1,4.32,4.32,0,0,1,.66-.62c1.7-1.39,1.72-1.39,1-3.42-.57-1.54-1.12-3.09-1.8-4.59a20.2,20.2,0,0,1-1.28-6.87,14.62,14.62,0,0,0-.49-2c-.32-1.47-.65-2.95-.91-4.44a1.75,1.75,0,0,1,.31-.94,7.78,7.78,0,0,0,.5-6.35,26.68,26.68,0,0,1-1-4.27,6.65,6.65,0,0,1,0-2.27,8.23,8.23,0,0,0-.25-3.42,33.28,33.28,0,0,1-1.06-8.95,2.18,2.18,0,0,0-.35-.86c-.07-.16-.26-.33-.23-.46.21-.92-.34-1.59-.63-2.37a22.61,22.61,0,0,1-.73-3.17,1.61,1.61,0,0,0-.8.09,1.19,1.19,0,0,1-1.43-.13c-.44-.3-1-.49-1.38-.81a1.61,1.61,0,0,0-1.52-.2,1.72,1.72,0,0,1-1.09-.32,22.66,22.66,0,0,1-2.54-1.55A6,6,0,0,1,1.4,9.28c0-.27,0-.55,0-.82,0-1.12.23-2.19-.66-3.27a5.82,5.82,0,0,1-.69-3C-.09,1,.93.35,2.09.73a4.62,4.62,0,0,0,1,.12c.36,0,.84-.1,1.07.08.87.73,1.6.22,2.4-.11A8.63,8.63,0,0,1,16,2.2a57,57,0,0,0,6.31,4.51c1.65,1,3.51,1.66,5.26,2.51,2.47,1.2,5,2.32,6.8,4.51a13.49,13.49,0,0,1,2.14,3.56c1,2.73,1.93,5.52,2.79,8.31a11.55,11.55,0,0,0,4.89,6.31,15.53,15.53,0,0,1,3,2.85,34.93,34.93,0,0,1,3.61,4.79,11.88,11.88,0,0,1,.85,3.39,3.4,3.4,0,0,0,.23.86c.62,1.09.07,2-.4,2.93-.23.44-.7.23-1-.36-.14-.28-.44-.69-.64-.67a2,2,0,0,0-1.22.5c-3.25,3.73-6.78,7.08-11.56,8.82l-.67.27c-1.63.72-1.78,1.07-1.22,2.79.46,1.39.94,2.76,1.38,4.15a11.28,11.28,0,0,1,0,4.52,34.14,34.14,0,0,0-.08,5.72c0,.69.76,1.33,1.15,2a4.69,4.69,0,0,1,.64,1.18C38.56,76.47,38.08,76.9,37.26,77Zm0-25.84-1.77-.24L37,53.17l-1-.09.36,1.15L35,53.62v1.14l-.41.3-1.17-1.58c-.72-.93-1.51-1.82-2.14-2.81a1.52,1.52,0,0,0-2.66.14,4.65,4.65,0,0,0,.05,4.84,12.39,12.39,0,0,1,1.69,2.57C31,60.07,31.48,62,32,63.89a1.33,1.33,0,0,1,0,.44c-.92-2.29-1.06-4.83-2.61-6.87a15.1,15.1,0,0,0,.29,4c.63,2.43,1.5,4.81,2.23,7.22.66,2.17,1.56,4.35.16,6.59a1.05,1.05,0,0,0-.1.44,2.66,2.66,0,0,1-1.85,2.37c-.61.24-.65.78-.14,1.19.67.54,1.18.28,1.55-.76l.49.94.68-.67c.65.91.78.93,1.67.24.61,1.26,1.37.14,2,0,.23,0,.42-.89.47-1.39a10.73,10.73,0,0,0-.09-1.78H37l.15.79c1.12-.51,1.06-1.18-.16-2.3l-.31.37A10.19,10.19,0,0,1,36,72.46a15.57,15.57,0,0,1,.06-4.15,14.88,14.88,0,0,0-1-9.79,3.3,3.3,0,0,1-.14-3.12A7.94,7.94,0,0,0,36.23,55c4.29-1.42,7.63-4.23,10.73-7.38a8.76,8.76,0,0,0,2.39-4,.92.92,0,0,0,0-.57c-.2-.51-.44-1-.69-1.51-.5-1-.22-2.64-2.07-2.54-.08,0-.17-.08-.23-.14-1.14-1.07-2.4-.83-3.67-.33a21.49,21.49,0,0,0-9.3,7.4.93.93,0,0,0,0,.8,5.78,5.78,0,0,0,.8,1C35.13,48.76,36.09,49.84,37.26,51.17ZM31.32,11.73l.07-.17c-1.53-.76-3-1.55-4.58-2.25-.47-.21-1.26-.46-1.55-.23-.85.65-1.44.11-2.13-.15-.05,0-.11,0-.17,0l.14.6c-.68-.19-1.21-.37-1.76-.47-1.14-.2-2.3-.32-3.43-.55-.65-.13-1.27-.56-1.69.36-.07.15-.38.2-.57.29.69-1,.58-1.35-.56-1.63a10.72,10.72,0,0,0-1.88-.21c-.14,0-.3.22-.45.34.16.07.33.22.49.21.66,0,.66-.06.72.44a6.26,6.26,0,0,0-2-.12A29.27,29.27,0,0,0,8.69,9.47c.37,2.11-.83,3.81-3,4.53.85.74,1.5,1.67,2.85,1.09.29-.13.81.11,1.16.3s.68.62,1.06.86a1.34,1.34,0,0,0,.92.24c1.09-.32,2.15-.73,3.24-1.12l-.62.91.13.11.91-.62v.31c.32,0,.71.14.95,0a3.79,3.79,0,0,0,2-2.81,5.21,5.21,0,0,0-.68-3.47,3.67,3.67,0,0,1,1.1,3.09h5.53c.56,0,1.12.07,1.77.12l-.66.7c-.41-.17-.75-.45-1.08-.44-1.64.05-3.27.15-4.91.28a1.17,1.17,0,0,0-.8.36c-.56.8-1.05,1.64-1.56,2.47a10,10,0,0,1,4.85-1.78.41.41,0,0,1-.26.23,6.61,6.61,0,0,0-3.84,1.93c-.11.12-.43.08-.64.06-.44,0-.88-.17-1.33-.19-.7,0-1.4,0-2.15,0a4.44,4.44,0,0,0,1,4.05c.16.19.49.23.75.35l.07-.17-.59-.94c1.34.92,2.48,2.1,4.45,2.24L18,19.08l.25-.18c1.29,3.73,4.17,5.25,7.8,5.78a9.53,9.53,0,0,1-5.32-1.35,4.88,4.88,0,0,0,5.16,2.74l-.11.27-.94.27,2.89,2.59c-.07-.39-.08-.5-.1-.62a57.35,57.35,0,0,1-1.17-6.2A6.9,6.9,0,0,0,26,20a10,10,0,0,1-.43-1.56l.24-.06c.27.65.52,1.32.81,2a2.47,2.47,0,0,0,2.7,1.7c1.08-.11,2.18-.1,3.25-.27.48-.07,1.25-.38,1.32-.71.44-1.95.86-3.93-.25-5.86a10.51,10.51,0,0,0-2.91-3.59ZM29.61,42.36c-.34.1-.54.15-.74.22a37.77,37.77,0,0,0-8,4.54c-1.45,1-2.51,1.87-2.12,3.79.06.31-.3.71-.47,1.07l-.22-.1-.61-2.17h-.25A4.68,4.68,0,0,0,17,51.21c.23,1.22.6,2.4.93,3.6.07.25.27.5.26.75a16.83,16.83,0,0,0,1.34,7.88c.79,1.84,1.36,3.77,2,5.68a1.17,1.17,0,0,1-.15,1,36.32,36.32,0,0,1-2.72,2.54,3.34,3.34,0,0,1-2.55.78,2.52,2.52,0,0,0-.65.11c.32.81.93.77,1.53.76a3.6,3.6,0,0,1,1.23,0A2.91,2.91,0,0,0,21,73.91a14.15,14.15,0,0,1,2-1l.11.22-.76.52a4.24,4.24,0,0,0,3-.31c.9-.41,1-.75.56-1.66a13.89,13.89,0,0,1-1.57-6.23c0-2.19.25-4.37.31-6.56,0-1.7.21-3.45-1.09-5.09l4.23-1.51-.77-.7a20.34,20.34,0,0,0,1.14-2c.39-.91.53-1.93,1.53-2.5A1,1,0,0,0,30,46.3C29.92,45,29.76,43.71,29.61,42.36ZM33.48,50l.13-.12,2.3,2.9.32-.25c-.66-.93-1.33-1.84-2-2.78A2.51,2.51,0,0,1,34,49l.22-.06a3,3,0,0,0,2.19,1.81c-1-1.12-1.92-2.21-2.88-3.26a2.37,2.37,0,0,1-.63-2.34,22.33,22.33,0,0,0,.59-2.67c.17-1.53.28-3.08.32-4.62s0-3.24,0-4.86a2.51,2.51,0,0,1,0-.27c.25-2.36.53-4.71.71-7.07a22.21,22.21,0,0,0-.12-2.91,2.56,2.56,0,0,1-.51.22,18.85,18.85,0,0,1-5.79.52c-.89-.11-1,.37-.84.94A54.22,54.22,0,0,0,29,31.13a5.13,5.13,0,0,1,.25,2.2,37.05,37.05,0,0,0,0,5.16c.22,2,.81,4,1.13,6,.16,1,.49,2-.33,3a26.32,26.32,0,0,0-2,3.06l.21.13a5.73,5.73,0,0,1,.63-.67,2,2,0,0,1,2.49.05c.83,1.21,1.69,2.4,2.54,3.61.17.24.31.5.47.76l.44-.33-2.15-4L32.8,50l2.58,3.59.28-.2Zm-4.11-8.24s0-.23-.07-.43a22.84,22.84,0,0,1-.67-7.14,17.06,17.06,0,0,0-.35-3.68,1.66,1.66,0,0,0-.56-.86,10.09,10.09,0,0,1-1.61-1.33c-1.22-1.73-3.43-1.92-4.65-3.22-.22,2.76-.45,5.57-.66,8.38a3,3,0,0,0,.1,1,11.34,11.34,0,0,1-.2,6.65,5.44,5.44,0,0,0-.24,2.67,6.27,6.27,0,0,0,1.27,1.94ZM6.54,8.38l.08-.21a15.27,15.27,0,0,0,2,.63,1.25,1.25,0,0,0,1.06-.23,1.29,1.29,0,0,0-.05-1.08A10.42,10.42,0,0,0,8.63,6l.26-.17c.41.59.81,1.2,1.25,1.78.18.24.48.63.67.59a3.06,3.06,0,0,0,1-.6c.09-.06.09-.22.14-.33.36-.93.74-1.14,1.68-.81a8,8,0,0,1,2.24,1c1.29,1,3,.39,4.27,1.24.05,0,.19-.14.29-.14a2.09,2.09,0,0,1,.79,0,7.67,7.67,0,0,1,1.07.54c.34-.88.89-.66,1.48-.33s.55.27.9-.21c-1.66-1-3.38-1.93-5-3S16.71,3.12,15.1,2A10.36,10.36,0,0,0,12,.6,5.14,5.14,0,0,0,8.19.76L9.25.94l-3,.58a2.34,2.34,0,0,0,1.11,0c.35,0,.71,0,1.06,0v.29L5.29,2a2.67,2.67,0,0,1,0,.31H8.35v.18l-2.89.23v.07L8,3.05l0,.25L5.08,3.14l-.17.69L7.5,5l-.1.23L5,4.24,4,5.33l.85,1.49-.13.09-1.1-1.4-.29.13.53,1.69-.17.07L2.86,5.71l-.24,0L3,7.9l-.15,0L2.21,6l-.09.08.21,1.93-.18,0-.32-.81c-1,2.61,1.48,6.19,3.09,6.32C3.44,12.17,2.74,11,2.7,9.8c.18.22.26.5.42.72a32.25,32.25,0,0,0,2,2.65.8.8,0,0,0,1.32-.07L4,10.62a27.74,27.74,0,0,1,2.42,1.75c.88.61,1.41.29,1.54-.66L5.08,9.6l.18-.24A17.82,17.82,0,0,0,7,10.62a1.22,1.22,0,0,0,1.06.07c.21-.16.25-.7.17-1A1.46,1.46,0,0,0,7.65,9,8.93,8.93,0,0,0,6.54,8.38ZM19.77,44.25c.21-1.28.46-2.51.62-3.74a12.84,12.84,0,0,0,.35-4,21.7,21.7,0,0,1,0-5.75,56.91,56.91,0,0,0-.05-5.84,2.28,2.28,0,0,0-.57-1.35,3.71,3.71,0,0,0-4.15-1c-.51.16-.69.3-.73.81a35.93,35.93,0,0,0,1.06,9.58c.93.64.38,1.46.24,2.19a13.93,13.93,0,0,0,.66,6.31c.58,2.19,1.17,4.37.12,6.59,0,0,.05.07.11.17l.88-1.51.26.12a6.28,6.28,0,0,0-.86,1.94,8,8,0,0,0,.49,2.23,4.23,4.23,0,0,0,.18-1.74,1.24,1.24,0,0,1,.8-1.44c.36-.18.58-.69.8-1.08a3.07,3.07,0,0,0,.15-.88l.44.9c1.14-.66,1.05-1.09-.31-2.06l-1.22.47.4-1.09ZM43.34,31.89c-3-2-4.26-5.08-5.14-8.4A30.22,30.22,0,0,0,34.82,15a19.68,19.68,0,0,0-1.94-2.28l-.2.17c1.78,2.52,2.14,3,2,5.6-.08,2.1.27,4.15.26,6.22s-.15,4.38-.37,6.56c-.12,1.19-.72,2.34-.18,3.56a.64.64,0,0,1-.07.44c-.51,1.19.08,2.29.16,3.51.57,0,1-.06,1.46-.12a5.76,5.76,0,0,0,3-1.7A19.66,19.66,0,0,0,43.34,31.89Zm-3.51,5.37a6.59,6.59,0,0,1-5.38,2.8c1.36.58,2.48-.13,3.68-.43a4.66,4.66,0,0,1-3.43,1l.74,1.84c1.75-1.2,3.27-2.45,5-3.38,1.9-1,3.89-2.23,6.14-.72.05,0,.13.06.17,0,.8-.37,1.16.28,1.42.76a23.86,23.86,0,0,1,1,2.52c.11.27.15.67.36.79a2.86,2.86,0,0,1,1.34,2.71A6.42,6.42,0,0,0,51,46.41a1.93,1.93,0,0,0,.68-2.19c-.32-1.35-.59-2.72-.9-4.07a1.71,1.71,0,0,0-.27-.56c-.67-1-1.3-2-2-2.9S46.89,34.91,46,33.9l-.15,1c-.17-.21-.14-.43-.21-.61a10.29,10.29,0,0,0-.46-1,6.23,6.23,0,0,0-.82.61c-.36.39-.66.83-1,1.25l-.13-.1,1.27-2.23-.24-.14-1.06,1.24L43,33.77l1-1.51c-.29.11-.36.11-.4.15-1.49,1.63-2.94,3.3-4.49,4.87a6.36,6.36,0,0,1-3.5,1.85c-.34,0-.69,0-1,.08a2.35,2.35,0,0,0,1.33.21A8.13,8.13,0,0,0,39.83,37.26ZM1.63,3.92c.69.28.71,1.33,1.79,1.19L2.06,3.49l.16-.13L4.07,4.93C4.37,3.34,3,3.27,2.53,2.46l2,1c0-1-1-.93-1.42-1.59l1.77.76L5,2.45,3.15,1.51l1.32.17a1.26,1.26,0,0,0-1-.43c-.46.05-1.27.21-1.3.42A1.82,1.82,0,0,1,.5,3.34l.5,2a.6.6,0,0,0,.1-.56c0-.18,0-.36,0-.66.78,1.46.78,1.46,1.34,1.39ZM34.26,41l-.88,3.69.16,0L35.17,43Zm15.81,2.67h-.25l-.57,1.53h1.23ZM1.54,2.42c-.61-.63-.33-1.11.28-1.54C.6.66,1,2,.35,2.35Z"/><path class="cls-1" d="M49.25,45.22l.57-1.53h.25"/><path class="cls-1" d="M33,61.46l-.54-3,.36-.06.46,3Z"/><path class="cls-1" d="M9.88,14l1.39-3,.29.12-1.34,3Z"/><path class="cls-1" d="M12.22,11.85l-1,2.21-.34-.15.94-2.22Z"/><path class="cls-1" d="M19.56,60.1a4.92,4.92,0,0,1,.41-4Z"/><path class="cls-1" d="M31.31,33.13l.44,5.5C31,37.52,30.7,33.86,31.31,33.13Z"/><path class="cls-1" d="M30.33,27.77l.19-2.55.91,1.58-.57-.08-.27,1.12Z"/><path class="cls-1" d="M9.93,1.39a8.44,8.44,0,0,1,2,.31,30,30,0,0,1,4,1.93C18,4.89,20,6.27,22,7.61c.06,0,.1.12.07.35-.4-.21-.81-.4-1.19-.65-1.47-1-2.95-1.92-4.4-2.93A13.15,13.15,0,0,0,9.87,1.76Z"/><path class="cls-1" d="M16.67,6.42A18.31,18.31,0,0,0,10,2.68,11.71,11.71,0,0,1,16.67,6.42Z"/><path class="cls-1" d="M11.87,5.86,9.57,4.31l.15-.23L12,5.65Z"/><path class="cls-1" d="M36.07,29.43l3.79,5.45c-2.21-1-2.58-3.54-4-5.24Z"/><path class="cls-1" d="M35.05,32.77a1.69,1.69,0,0,1,.32.27c.61.93,1.25,1.85,1.8,2.81A1.53,1.53,0,0,1,36.62,38a3.11,3.11,0,0,0,.26-.84,3.33,3.33,0,0,0-.23-1.46c-.54-.94-1.21-1.81-1.83-2.71Z"/></g></g></svg>