<svg xmlns="http://www.w3.org/2000/svg" viewBox="0 0 49.65 41"><defs><style>.cls-1{fill:none;stroke:#babcbe;stroke-miterlimit:10;}</style></defs><title>Ресурс 44</title><g id="Слой_2" data-name="Слой 2"><g id="Layer_2" data-name="Layer 2"><path class="cls-1" d="M4.94,10.66C9.66,6.6,13.4,3.4,23.52,9.12c4.86,2.74,8.78,3.78,12.05,3.78C41.28,12.9,45,9.72,48.19,7a2.79,2.79,0,0,0,.33-3.88,2.67,2.67,0,0,0-3.81-.34C40,6.8,36.26,10,26.13,4.28,12.76-3.27,6.5,2.11,1.46,6.43a2.8,2.8,0,0,0-.33,3.89,2.67,2.67,0,0,0,3.81.34Zm39.77,5.88C40,20.6,36.26,23.8,26.13,18.08,12.76,10.53,6.5,15.91,1.46,20.24a2.79,2.79,0,0,0-.33,3.88,2.67,2.67,0,0,0,3.81.34c4.72-4.06,8.46-7.26,18.58-1.54,4.86,2.74,8.78,3.78,12.05,3.78,5.71,0,9.42-3.18,12.62-5.93a2.81,2.81,0,0,0,.33-3.89,2.67,2.67,0,0,0-3.81-.34Zm0,13.8C40,34.4,36.26,37.61,26.13,31.89,12.76,24.33,6.5,29.71,1.46,34a2.8,2.8,0,0,0-.33,3.89,2.67,2.67,0,0,0,3.81.33c4.72-4,8.45-7.26,18.58-1.54,4.86,2.75,8.78,3.78,12.05,3.78,5.71,0,9.42-3.18,12.62-5.93a2.8,2.8,0,0,0,.33-3.89,2.67,2.67,0,0,0-3.81-.34Z"/></g></g></svg>