<svg xmlns="http://www.w3.org/2000/svg" viewBox="0 0 101.2 17.54"><defs><style>.cls-1{fill:none;stroke:#babcbe;stroke-miterlimit:10;stroke-width:1.2px;}</style></defs><title>Ресурс 50</title><g id="Слой_2" data-name="Слой 2"><g id="Layer_2" data-name="Layer 2"><path class="cls-1" d="M33.08.6c2.26.4,4.52.84,6.79,1.18,1.93.29,3.88.51,5.83.65a43.45,43.45,0,0,0,4.42,0A38.54,38.54,0,0,1,62.38,4.08a6.28,6.28,0,0,0,2.11.27,11.36,11.36,0,0,1,6.05,1.33A3.61,3.61,0,0,0,72.21,6c3.93,0,7.88.09,11.79-.2,2.36-.18,4.64-1.16,7-1.52,2.63-.39,5.31-.56,8-.7,1.43-.08,2,1,1.33,2.22a4,4,0,0,1-1.54,1.42C97.19,8,95.54,8.69,94,9.47a7.64,7.64,0,0,0-1.48,1.13,2.51,2.51,0,0,1-3,.55,7,7,0,0,0-6.44-.05c-2.86,1.26-5.79,1.35-8.77,1.37-2.42,0-4.84-.19-7.24-.06-2.88.16-5.75.56-8.63.89a3.07,3.07,0,0,0-.9.46,10.94,10.94,0,0,0-7.93-1.91c-.78.08,7.91,3.64,6.45,3.64-2.5,0-7.32-.38-9.83-.37-5.66,0-11.32.14-17,.25-2.14,0-4.29.29-6.41.17a10,10,0,0,1-3.77-1,11.84,11.84,0,0,0-5.14-1.65c-1.48,0-1.73.11-2.67,1.49a.81.81,0,0,1-.62.21c-.48,0-.94-.18-1.58-.31l.47,1-.82.17.51,1c-.91-.33-1.69-.92-2.18-.74-1.1.42-2.13,0-3.18.09-.52.07-1.19-.51-1.66-.94A18.38,18.38,0,0,1,.6,13V11.34A11.62,11.62,0,0,0,3,6.56,3,3,0,0,1,5.86,4.35c2-.15,4.06,0,5.41-1.16.82.45,1.43,1.09,1.9,1,1.69-.33,2.36.46,2.64,1.93A3,3,0,0,0,16,6.7c1.68.45,2.85-.32,3.95-1.4,2-2,4.22-3.64,7.3-3.73a21.43,21.43,0,0,0,4.22-1Z"/></g></g></svg>