<svg xmlns="http://www.w3.org/2000/svg" viewBox="0 0 59.02 81.2"><defs><style>.cls-1{fill:none;stroke:#babcbe;stroke-miterlimit:10;stroke-width:1.2px;}</style></defs><title>Ресурс 52</title><g id="Слой_2" data-name="Слой 2"><g id="Layer_2" data-name="Layer 2"><path class="cls-1" d="M18.67,5.28a3.39,3.39,0,0,1,2.25-3.41c1.58-.51,2.81.24,4.06,1.52,2,2,2.27-2.83,4.63-2.79s3,1.73,3.66,4c1.2-2.1,2.51-3.44,4.72-2.78s2.59,2.24,2.59,4.53c1.79-1.6,3.37-2.11,5.24-.77s1.83,3,1,4.87a15.24,15.24,0,0,1,3.6-.22,2.61,2.61,0,0,1,2.28,2.68,17.45,17.45,0,0,1-.85,3.53c1.74-.17,3.65,0,4.5,2.14s.44,3.63-1.8,4.91c2.26.56,3.64,1.07,3.83,3.43s-.69,3.57-3.19,4.2c2.08,1.1,3.13,2,2.75,4.28-.31,1.85-1.22,3-4.25,3.35.16.32.07.23.26.44,1.44,1.57,1.75,3.25.83,4.72-.78,1.25-2.53,1.66-4.4,1a3.52,3.52,0,0,1-.83-.55,3.42,3.42,0,0,1-.56-4.2,3.32,3.32,0,0,1,3.77-1.6c.17,0-1.84-2.64-1.47-4.53s1.33-2.47,3-3c-1.66-.77-2.55-1.53-2.67-3.53s.86-3,2.37-3.93c-1.86-.23-3.1-.53-3.87-2.37s-.2-3,1-4.42c-1.82.35-3.08.27-4.34-1.24s-.57-3.2-.08-4.93c-1.63,1.18-3.2,1.58-4.83.43s-1.76-2.49-1.5-4.29C39,8.16,37.94,8.94,36,8.31S33.65,6.53,33.24,4.8c-.89,1.67-1.73,2.57-3.75,2.57s-3.67-2.8-3.69-2.59A4.07,4.07,0,0,1,23,8.34,3.33,3.33,0,0,1,19.23,7,4.56,4.56,0,0,1,18.67,5.28Z"/><path class="cls-1" d="M37.16,56c-.72,1.9-2.28,2.38-4.36,2.09.82,1.53,1.53,2.92,1,4.61a4.87,4.87,0,0,1-3.45,3.1c1.72,1.61,1.72,2.46.09,3.9a1.3,1.3,0,0,0-.37,1,97.9,97.9,0,0,0,1.58,9.92,26.79,26.79,0,0,1-4,0A23.73,23.73,0,0,0,29.34,71a1.74,1.74,0,0,0-.41-1.24c-1.75-1.51-1.8-2.35,0-3.91-1.56-.58-2.92-1.35-3.45-3a4.71,4.71,0,0,1,1-4.66c-.72,0-1.23,0-1.74,0a3.33,3.33,0,0,1-3-3,13.62,13.62,0,0,0-.3-1.38s.73-.66,1.06-1a3.33,3.33,0,0,1,3.26-1.2,3.12,3.12,0,0,1,2.6,2.29c.2.74.34,1.19,1.27,1.19s1-.52,1.19-1.15a3.18,3.18,0,0,1,2.7-2.35,3.33,3.33,0,0,1,3.31,1.41A6.33,6.33,0,0,1,37.16,56Z"/><path class="cls-1" d="M9.4,45.19c-.42,0-.84.05-1.25.13a3.53,3.53,0,0,1-4-1.84,3.47,3.47,0,0,1,1-4.16,7.35,7.35,0,0,0,.65-.87c-2.12-.15-4-.5-4.53-2.74s.75-3.56,3-4.42a8.71,8.71,0,0,0-1-.66C1.41,29.92.43,28.55.62,27a3.54,3.54,0,0,1,3.23-3.06c.28-.05.56-.08.84-.11l0,0a3.64,3.64,0,0,0,.48.32,3.44,3.44,0,0,1-.32,6.56c-.23.07-.4.31-.75.61,1.92.37,3.38,1.06,3.78,3s-.84,3.1-2.2,4.13c.29.23.33.29.37.29a1.19,1.19,0,0,0,.42,0,3.23,3.23,0,0,1,3.62,1.59,3.24,3.24,0,0,1-.31,3.94,4.17,4.17,0,0,0-.4,1Z"/><path class="cls-1" d="M50.05,45.82c1,1.7.87,3.4-.3,4.56s-2.89,1.29-4.65.16c-.15-.1-.68.57-.62.93a3.43,3.43,0,0,1-6,3,5,5,0,0,1-.67-2.09,3.2,3.2,0,0,1,1.91-3,3.34,3.34,0,0,1,3.59.39c.27.2,1.2.44,1.14.27-.51-1.36-.74-3.14.34-4.26A3.39,3.39,0,0,1,48.93,45,3.43,3.43,0,0,1,50.05,45.82Z"/><path class="cls-1" d="M4.69,23.83a10.08,10.08,0,0,0-1-1.16,3.38,3.38,0,0,1-1-4.08,3.5,3.5,0,0,1,3.58-2,4.92,4.92,0,0,1,1.79.82,3.36,3.36,0,0,1,.83,3.89,3.42,3.42,0,0,1-3.22,2.13,4,4,0,0,0-1,.35Z"/><path class="cls-1" d="M6.32,13.11c0-2.3,2.45-3.6,4.65-2.78a5.17,5.17,0,0,1,1.7,1.59,3.4,3.4,0,0,1-3.81,4.84c-.42-.08-.84-.2-1.26-.3A10.07,10.07,0,0,1,6.32,13.11Z"/><path class="cls-1" d="M12.06,9.64a3.47,3.47,0,0,1,1.27-4.13A3.58,3.58,0,0,1,17.65,6a5.1,5.1,0,0,1,.87,1.67,3.21,3.21,0,0,1-1.42,3.53,3.21,3.21,0,0,1-3.81,0A5.48,5.48,0,0,1,12.06,9.64Z"/><path class="cls-1" d="M12.62,51.26A3.17,3.17,0,0,1,9.1,50.07a3.65,3.65,0,0,1-.2-4,8.47,8.47,0,0,1,.5-.87l.13-.07c.36-.11.55-.1.91-.24a3.31,3.31,0,0,1,3.94.93c1.2,1.4.8,2.89.25,4.4A9.83,9.83,0,0,1,12.62,51.26Z"/><path class="cls-1" d="M21.41,53.69c-.27.27-.56.52-.81.8a3.39,3.39,0,0,1-6-2.68,5.08,5.08,0,0,1,1.28-2.16,3.45,3.45,0,0,1,3.59-.28,3.29,3.29,0,0,1,1.87,3.07C21.37,52.87,21.41,53.69,21.41,53.69Z"/></g></g></svg>