<svg xmlns="http://www.w3.org/2000/svg" viewBox="0 0 33.39 71.23"><defs><style>.cls-1{fill:none;stroke:#babcbe;stroke-miterlimit:10;stroke-width:1.2px;}</style></defs><title>Ресурс 49</title><g id="Слой_2" data-name="Слой 2"><g id="Layer_2" data-name="Layer 2"><path class="cls-1" d="M2.44,51.59a7,7,0,0,1,1.89-8.8,5.52,5.52,0,0,0-.11-.65,21.53,21.53,0,0,1,.07-10.37,5.61,5.61,0,0,0-.85-4.88,9.33,9.33,0,0,1-1.32-6.64c.15-1.44.41-2.87.54-4.31.1-1.15.12-2.31.12-3.46,0-.72-.1-.8-.87-1A1.39,1.39,0,0,1,.6,9.93a3.14,3.14,0,0,1,.58-1.84A9.55,9.55,0,0,0,3,3.33a.78.78,0,0,1,.14-.42,2,2,0,0,0,.36-1.33c0-.69.32-.9,1.17-.95.06.48.13,1,.2,1.46.14,1,.28,2,.44,3a9,9,0,0,0,.38,1.55,10.23,10.23,0,0,1,.66,3.83c-.11,3.49.63,6.88,1.18,10.29.12.76.28,1.52.39,2.28a10.52,10.52,0,0,0,.85,3.15,4.06,4.06,0,0,1,.38,1.36,52,52,0,0,0,1.57,7.1c.57,2.29,1.26,18.31,1.28,19.29a2.33,2.33,0,0,0,.5,1.54c.41-.07.84-.12,1.27-.23a2.2,2.2,0,0,1,2.38.8,9.26,9.26,0,0,1,1.16,1.87c.45.9.81,1.84,1.23,2.76a4.09,4.09,0,0,0,1.21,1.72,6.38,6.38,0,0,0,1.7,1.42c-.17-.39-.29-.66-.4-.94-.28-.7-.1-.87.56-1.27S23,61,23.43,60.35a.5.5,0,0,1,.72-.06,1.91,1.91,0,0,0,2,.07,2,2,0,0,1,.78-.11c.56,0,1.12,0,1.68,0a2.85,2.85,0,0,1,2.81,2.27,13.67,13.67,0,0,1,.28,1.92c0,.61,0,1.22,0,1.88.12.06.29.11.44.19a.94.94,0,0,1,.51,1.33c-.13.34-.31.63,0,1,0,.08,0,.27-.08.4a6.19,6.19,0,0,1-.38,1,.88.88,0,0,1-.41.42c-.58.22-8.07-.85-8.41-1.25-.05,0-.32.07-.49.13-.43.17-1.55-.93-1.17-1.42a1.11,1.11,0,0,0-1.08.43,4.6,4.6,0,0,1-3.81,1.29,11.33,11.33,0,0,0-2,0,27.62,27.62,0,0,1-3,.18c-1.83,0-3.67-.08-5.5-.17a6.86,6.86,0,0,1-1.47-.3.82.82,0,0,1-.58-.89c0-1.12-.06-2.25,0-3.37,0-1.74.1-3.49.2-5.23a3.32,3.32,0,0,0-.51-2.1,7.27,7.27,0,0,1-.78-2.6,4.94,4.94,0,0,0-.9-2.61C1.65,52.15,1.7,52.08,2.44,51.59Zm8.93,14.27C10.54,65.24,9.71,64.68,9,64s-1.47-1.41-2.25-2.18l.7,4.75s0,0,.07,0q1.81-.3,3.63-.63C11.19,66,11.26,65.93,11.37,65.86Z"/></g></g></svg>