<svg xmlns="http://www.w3.org/2000/svg" viewBox="0 0 101 26.99"><defs><style>.cls-1{fill:none;stroke:#babcbe;stroke-miterlimit:10;}</style></defs><title>Ресурс 51</title><g id="Слой_2" data-name="Слой 2"><g id="Layer_2" data-name="Layer 2"><path class="cls-1" d="M.5,8.56a10.55,10.55,0,0,1,.79-.71A34.92,34.92,0,0,1,7.5,4.19a39.3,39.3,0,0,1,5.77-2.08A45.15,45.15,0,0,1,22,.73a42.64,42.64,0,0,1,6-.18,18.16,18.16,0,0,1,5.33,1.2,22.78,22.78,0,0,1,5.1,2.68,15.07,15.07,0,0,1,3.3,3.08v.32a2.08,2.08,0,0,1-.6.22c-1.63,0-3.26.11-4.9.09a49,49,0,0,1-8.11-.64c-1.49-.26-3-.61-4.44-.94A27.17,27.17,0,0,0,18.72,6a43.7,43.7,0,0,0-6.37.16A36,36,0,0,0,5.82,7.33c-1.36.4-2.71.86-4.06,1.29-.23.08-.46.14-.69.23A.48.48,0,0,1,.5,8.76Z"/><path class="cls-1" d="M39.28,16.24l1.54,2.06a1.12,1.12,0,0,1-.42,1.82,1.06,1.06,0,0,1-1.26-.36c-.53-.69-1-1.38-1.56-2.07-.08-.11-.17-.21-.21-.26l-5.69,2.78c.12.3.25.66.39,1,.29.78.6,1.55.89,2.33A1.13,1.13,0,0,1,32.43,25a1.08,1.08,0,0,1-1.49-.57c-.31-.69-.56-1.42-.83-2.14-.16-.42-.32-.84-.47-1.26-.07-.19-.15-.26-.37-.2a25.41,25.41,0,0,1-5.27.92c-.25,0-.23.17-.23.34,0,1.05,0,2.1,0,3.15a1.11,1.11,0,1,1-2.21.07c0-1,0-2.08,0-3.13,0-.33-.1-.42-.42-.43a25.06,25.06,0,0,1-5-.76c-.27-.06-.34,0-.4.26-.32,1.09-.64,2.18-1,3.26a1.09,1.09,0,1,1-2.05-.73c.31-1.1.63-2.19,1-3.28.07-.21,0-.3-.16-.37A26.3,26.3,0,0,1,9.05,18l-.58.91c-.51.85-1,1.7-1.53,2.53a1.11,1.11,0,0,1-2,.16,1.08,1.08,0,0,1,0-1.26L7.06,17a.77.77,0,0,0,.1-.18c-.37-.31-.75-.58-1.09-.9A1.1,1.1,0,0,1,6.41,14a1.19,1.19,0,0,1,1.25.28c.45.38.91.76,1.38,1.1a23.4,23.4,0,0,0,5,2.71,22,22,0,0,0,9.1,1.55,24.62,24.62,0,0,0,8-1.73,33.11,33.11,0,0,0,5.88-3c.41-.26.82-.55,1.24-.8a1,1,0,0,1,1.2.1,1,1,0,0,1,.38,1.11A4.83,4.83,0,0,1,39.28,16.24Z"/><path class="cls-1" d="M100.5,8.56a10.55,10.55,0,0,0-.79-.71A34.92,34.92,0,0,0,93.5,4.19a39.3,39.3,0,0,0-5.77-2.08A45.15,45.15,0,0,0,79,.73a42.64,42.64,0,0,0-6-.18,18.16,18.16,0,0,0-5.33,1.2,22.78,22.78,0,0,0-5.1,2.68,15.07,15.07,0,0,0-3.3,3.08v.32a2.08,2.08,0,0,0,.6.22c1.63,0,3.26.11,4.9.09a49,49,0,0,0,8.11-.64c1.49-.26,3-.61,4.44-.94A27.17,27.17,0,0,1,82.28,6a43.7,43.7,0,0,1,6.37.16,36,36,0,0,1,6.53,1.17c1.36.4,2.71.86,4.06,1.29.23.08.46.14.69.23a.48.48,0,0,0,.57-.09Z"/><path class="cls-1" d="M61.72,16.24,60.18,18.3a1.12,1.12,0,0,0,.42,1.82,1.06,1.06,0,0,0,1.26-.36c.53-.69,1-1.38,1.56-2.07.08-.11.17-.21.21-.26l5.69,2.78c-.12.3-.25.66-.39,1-.29.78-.6,1.55-.89,2.33A1.13,1.13,0,0,0,68.57,25a1.08,1.08,0,0,0,1.49-.57c.31-.69.56-1.42.83-2.14.16-.42.32-.84.47-1.26.07-.19.15-.26.37-.2a25.41,25.41,0,0,0,5.27.92c.25,0,.23.17.23.34,0,1.05,0,2.1,0,3.15a1.11,1.11,0,1,0,2.21.07c0-1,0-2.08,0-3.13,0-.33.1-.42.42-.43a25.06,25.06,0,0,0,5-.76c.27-.06.34,0,.4.26.32,1.09.64,2.18,1,3.26a1.09,1.09,0,1,0,2-.73c-.31-1.1-.63-2.19-1-3.28-.07-.21,0-.3.16-.37A26.3,26.3,0,0,0,92,18l.58.91c.51.85,1,1.7,1.53,2.53a1.11,1.11,0,0,0,2,.16,1.08,1.08,0,0,0,0-1.26l-2-3.41a.77.77,0,0,1-.1-.18c.37-.31.75-.58,1.09-.9A1.1,1.1,0,0,0,94.59,14a1.19,1.19,0,0,0-1.25.28c-.45.38-.91.76-1.38,1.1a23.4,23.4,0,0,1-5,2.71,22,22,0,0,1-9.1,1.55,24.62,24.62,0,0,1-8-1.73,33.11,33.11,0,0,1-5.88-3c-.41-.26-.82-.55-1.24-.8a1,1,0,0,0-1.2.1,1,1,0,0,0-.38,1.11A4.83,4.83,0,0,0,61.72,16.24Z"/></g></g></svg>