<svg xmlns="http://www.w3.org/2000/svg" viewBox="0 0 53.76 40"><defs><style>.cls-1{fill:#babcbe;}</style></defs><title>Ресурс 5</title><g id="Слой_2" data-name="Слой 2"><g id="Layer_2" data-name="Layer 2"><path class="cls-1" d="M53.15,1A.94.94,0,0,0,52,1.32c-.45.64-1,1.42-1.55,2.24L50.7,1V1A.94.94,0,0,0,50,0a.92.92,0,0,0-1.07.5c-1.2,2.36-3.2,6.47-3.81,8.05a64.38,64.38,0,0,1-5.28,9.6,1.43,1.43,0,0,1-.2.23,5.3,5.3,0,0,1-.52.43l-2.87,2c-2-.37-9.48-1.32-11.16-.9a11.63,11.63,0,0,1-4.1-.48,27.1,27.1,0,0,1-4.3-1.33c-1.47-.68-3.75-.21-4.64,0l-.38-1.08,1.17-.29a1.75,1.75,0,0,0,1.33-1.71c0-1.88-.15-4.35-.7-5.52C12.27,7.08,9,7.2,7.58,7.65a5.08,5.08,0,0,0-3.67,4.59c-.2-.06-.39-.08-.63-.13A2.61,2.61,0,0,0,.5,13.34c-2.09,3.47,3,10.31,3.22,10.6A.36.36,0,0,0,4,24.1a.4.4,0,0,0,.15,0,.39.39,0,0,0,.24-.41c0-.06-.7-6-.7-8.22a1.86,1.86,0,0,1,.44-1.38,8.66,8.66,0,0,0,2,2.72,8.52,8.52,0,0,1,1.08,1.27,5.85,5.85,0,0,1,.25,3.36,2.4,2.4,0,0,0-.83,1.65c-.29,3.15,4.88,7.17,7.06,8.12,1.91.84,5.22,5.17,5.46,5.5A6.84,6.84,0,0,0,24.8,40H25a2.94,2.94,0,0,0,.91-.2,5.22,5.22,0,0,0,1,.08,7,7,0,0,0,.92-.06c1.62-.25,3.78-2.32,6.44-6.17a69.55,69.55,0,0,0,4.44-7.44H39a2.75,2.75,0,0,0,1.42-.53l.26-.2a1.63,1.63,0,0,0,.6-1.73l.07,0a13.77,13.77,0,0,0,5.13-5c.54-1,1-2.16,1.5-3.25.75-1.73,1.6-3.69,2.21-3.9l1.36-.44a1.87,1.87,0,0,0,1.32-1.92l-.15-2.32a2.3,2.3,0,0,1,.06-.74l1-4.09s0,0,0,0a.93.93,0,0,0-.6-1ZM45.82,8.86c.59-1.56,2.58-5.63,3.77-8a.16.16,0,0,1,.19-.09.16.16,0,0,1,.13.15l-.35,4c-1,1.54-2,3-2.46,3.85a56.46,56.46,0,0,1-4.21,5.93,53.2,53.2,0,0,0,2.93-5.82Zm-29.5,10c1.62.75,7.15,2.3,8.92,1.86,1-.26,5.14.12,8.2.52-2.84.06-6.79.15-7.77.15h-.06a4.9,4.9,0,0,0-2,.37,4.35,4.35,0,0,1-1.16.29h-.14a42.75,42.75,0,0,1-4.82-.65c-.31-.44-1.32-1.52-4.34-2.68a6,6,0,0,1,3.14.14Zm-1.58,1.42a9.7,9.7,0,0,1,1.43.89l-2-.36a2.5,2.5,0,0,0,.6-.53ZM2.93,15.44c0,1.57.32,4.8.53,6.74A27.8,27.8,0,0,1,2,19.67c-.9-1.85-1.79-4.38-.86-5.92a1.8,1.8,0,0,1,1.57-.91,1.55,1.55,0,0,1,.37,0,3.28,3.28,0,0,1,.8.27s0,.06,0,.1a2.33,2.33,0,0,0-1,2.19Zm5,2.21a8.81,8.81,0,0,0-1.18-1.41c-1-1-2-2.14-2-3.5A4.35,4.35,0,0,1,7.82,8.4c1.14-.36,4-.49,4.9,1.5a15.65,15.65,0,0,1,.62,5.18.94.94,0,0,1-.73.94l-1.6.4a.41.41,0,0,0-.25.2.4.4,0,0,0,0,.32l.66,1.84a.37.37,0,0,0,.24.23,24,24,0,0,1,2.37.91,2.25,2.25,0,0,1-1.7.55,11.91,11.91,0,0,0-1.19-.06,7,7,0,0,0-2.77.47,5.59,5.59,0,0,0-.45-3.23ZM25,39.21A6,6,0,0,1,20,36.42a18.13,18.13,0,0,1,5.29-7L31.61,25c1.36-.07,3-.15,3.81-.21a3,3,0,0,0,2.07,1.3c-.18.24-.35.48-.49.71-1.24,2.08-8.61,12.27-12,12.39Zm0-10.55a11.73,11.73,0,0,1-3.36-2.75c1.7-.28,2.95-.54,3.17-.59l5.34-.24L25,28.66Zm8.63,4.54c-2.46,3.56-4.55,5.63-5.9,5.84l-.39,0c2.63-1.73,5.8-5.55,8-8.42-.53.84-1.08,1.71-1.66,2.54Zm6.59-8.35L40,25a1.86,1.86,0,0,1-1,.37,5,5,0,0,1-.67,0A2.48,2.48,0,0,1,36,24.22.42.42,0,0,0,35.6,24c-.51,0-1.94.12-4.14.23l-6.73.3h-.06s-1.6.34-3.72.68c-2.85.45-8,1.11-10.52.38a.4.4,0,0,0-.49.27.39.39,0,0,0,.27.48,12.48,12.48,0,0,0,3.35.36A50.09,50.09,0,0,0,20.79,26a10.64,10.64,0,0,0,3.51,3.12,18.85,18.85,0,0,0-4.89,6.53c-1-1.28-3.63-4.46-5.39-5.23-2.07-.9-6.82-4.71-6.59-7.33.07-.72.64-1.94,3.69-1.94.59,0,1,.06,1.11.06.48.1,8.33,1.59,10.11,1.59h.22a4.62,4.62,0,0,0,1.35-.34,4.35,4.35,0,0,1,1.76-.31c1.33,0,8.15-.16,10.21-.21l1.59,0h0a1.54,1.54,0,0,1,.93.3l1.75,1.25a.73.73,0,0,1,.26.29.87.87,0,0,1-.24,1.08ZM41,23h0l0,0a1.7,1.7,0,0,0-.24-.22L38.9,21.59a2.4,2.4,0,0,0-1.39-.45h-.35l2.38-1.67a7.37,7.37,0,0,0,.72-.61.46.46,0,0,0,.07-.07h0a40.06,40.06,0,0,0,2.88-3.26,5.73,5.73,0,0,1,3,1.88l-.45.91A13.38,13.38,0,0,1,41,23ZM52,5.94a3.54,3.54,0,0,0-.08,1l.16,2.32a1.1,1.1,0,0,1-.77,1.12l-1.38.45c-.9.3-1.61,1.84-2.68,4.33-.22.49-.43,1-.65,1.48a7,7,0,0,0-2.88-1.73,54.44,54.44,0,0,0,4.06-5.75c.81-1.46,3.42-5.29,4.87-7.36a.16.16,0,0,1,.2-.06.15.15,0,0,1,.11.17Z"/></g></g></svg>