<svg xmlns="http://www.w3.org/2000/svg" viewBox="0 0 34 40.75"><defs><style>.cls-1{fill:none;stroke:#babcbe;stroke-miterlimit:10;stroke-width:0.75px;}</style></defs><title>Ресурс 3</title><g id="Слой_2" data-name="Слой 2"><g id="Layer_2" data-name="Layer 2"><path class="cls-1" d="M14.7.39a.92.92,0,0,0-1,.54L7.51,15.39c-1.91,4.21-.15,9.24.6,11L.7,32.55a.88.88,0,0,0-.32.62.93.93,0,0,0,.22.68l5.47,6.22a.93.93,0,0,0,.68.31h0A.89.89,0,0,0,7.49,40l7.75-10.87a.87.87,0,0,0,.17-.52V27.3c0-5.52,0-25,0-26A.91.91,0,0,0,14.7.39Z"/><path class="cls-1" d="M33.62,33.17a.89.89,0,0,0-.33-.62l-7.4-6.14c.75-1.78,2.5-6.81.6-11L20.32.93a.91.91,0,0,0-1.75.35c0,1,0,20.5,0,26v1.3a.94.94,0,0,0,.16.52L26.51,40a.87.87,0,0,0,.69.38h.05a.93.93,0,0,0,.68-.31l5.47-6.22a.93.93,0,0,0,.22-.68Z"/></g></g></svg>