<svg xmlns="http://www.w3.org/2000/svg" viewBox="0 0 41 41"><defs><style>.cls-1{fill:none;stroke:#babcbe;stroke-miterlimit:10;fill-rule:evenodd;}</style></defs><title>Ресурс 6</title><g id="Слой_2" data-name="Слой 2"><g id="Layer_2" data-name="Layer 2"><path class="cls-1" d="M5.5,19.25H1.75a1.25,1.25,0,0,0,0,2.5H5.5a1.25,1.25,0,0,0,0-2.5Zm15-12.5A1.25,1.25,0,0,0,21.75,5.5V1.75a1.25,1.25,0,0,0-2.5,0V5.5A1.25,1.25,0,0,0,20.5,6.75Zm12,3.47L35.15,7.6a1.24,1.24,0,0,0,0-1.75,1.23,1.23,0,0,0-1.75,0L30.77,8.47a1.24,1.24,0,0,0,0,1.75,1.23,1.23,0,0,0,1.75,0ZM9.76,29.48,7.13,32.11a1.24,1.24,0,1,0,1.76,1.75l2.62-2.62a1.24,1.24,0,0,0-1.75-1.76ZM9,10.78A1.25,1.25,0,0,0,10.78,9L8.12,6.36A1.24,1.24,0,0,0,6.36,8.12ZM20.5,34.25a1.25,1.25,0,0,0-1.25,1.24v3.76a1.25,1.25,0,0,0,2.5,0V35.49a1.25,1.25,0,0,0-1.25-1.24Zm11.49-4A1.25,1.25,0,1,0,30.22,32l2.65,2.65a1.25,1.25,0,0,0,1.77-1.77Zm7.26-11H35.49a1.25,1.25,0,0,0,0,2.5h3.76a1.25,1.25,0,0,0,0-2.5ZM20.5,30.7A10.2,10.2,0,1,1,30.7,20.5,10.2,10.2,0,0,1,20.5,30.7Z"/></g></g></svg>