<svg xmlns="http://www.w3.org/2000/svg" viewBox="0 0 72.5 61.2"><defs><style>.cls-1{fill:none;stroke:#babcbe;stroke-miterlimit:10;stroke-width:1.2px;}</style></defs><title>Ресурс 27</title><g id="Слой_2" data-name="Слой 2"><g id="Layer_2" data-name="Layer 2"><path class="cls-1" d="M43.63,10.9a13,13,0,0,1,6,9.62,10.33,10.33,0,0,0,4.41,1A10.46,10.46,0,1,0,43.63,10.9Z"/><path class="cls-1" d="M36.77,32.31A10.46,10.46,0,1,0,26.32,21.85,10.46,10.46,0,0,0,36.77,32.31Z"/><path class="cls-1" d="M41.21,33H32.34A13.41,13.41,0,0,0,19,46.41V57.26l0,.17.75.24a60.9,60.9,0,0,0,18.2,2.93c9.84,0,15.54-2.8,15.9-3l.69-.35h.08V46.41A13.41,13.41,0,0,0,41.21,33Z"/><path class="cls-1" d="M58.51,22.23h-8.8a12.89,12.89,0,0,1-4,9A15.91,15.91,0,0,1,57.09,46.43v3.34c8.7-.32,13.71-2.78,14-3l.69-.35h.08V35.61A13.4,13.4,0,0,0,58.51,22.23Z"/><path class="cls-1" d="M18.43,21.51A10.36,10.36,0,0,0,24,19.9a13,13,0,0,1,4.86-8.26c0-.19,0-.38,0-.58A10.46,10.46,0,1,0,18.43,21.51Z"/><path class="cls-1" d="M27.82,31.2a12.88,12.88,0,0,1-4-8.92c-.32,0-.65-.05-1-.05H14A13.39,13.39,0,0,0,.6,35.61V46.47l0,.17.74.23A62.76,62.76,0,0,0,16.45,49.7V46.43A15.91,15.91,0,0,1,27.82,31.2Z"/></g></g></svg>