<svg xmlns="http://www.w3.org/2000/svg" viewBox="0 0 44.95 61.28"><defs><style>.cls-1{fill:none;stroke:#babcbe;stroke-miterlimit:10;stroke-width:1.2px;}</style></defs><title>Ресурс 28</title><g id="Слой_2" data-name="Слой 2"><g id="Layer_2" data-name="Layer 2"><path class="cls-1" d="M21.91,24.79l22.44-3.63V51.55c0,2.52-1.88,4.53-4.82,5.27-3.21.79-6.3-.55-6.93-3s1.49-5.12,4.7-5.93a7.21,7.21,0,0,1,4.09.15V29.71L25,32.71l-.08,22.78c0,2.16-2,4.29-4.76,5-3.17.8-6.5-.71-6.85-3-.61-2.44,1.46-5.06,4.65-5.86a7.08,7.08,0,0,1,4,.12ZM13.49,35.94l.08-28.15s6.14-.34,12.13,9.07a11.41,11.41,0,0,0-4.59-8.41c-9-6.28-9-7.77-9-7.77a2,2,0,0,0-1.9,1.5V31.83a7.67,7.67,0,0,0-4.4-.13c-3.5.86-5.78,3.75-5.11,6.44.39,2.47,4,4.14,7.54,3.26,3.06-.76,5.21-3.09,5.23-5.46Z"/></g></g></svg>