<svg xmlns="http://www.w3.org/2000/svg" viewBox="0 0 61 43.27"><defs><style>.cls-1{fill:none;stroke:#babcbe;stroke-miterlimit:10;}</style></defs><title>Ресурс 35</title><g id="Слой_2" data-name="Слой 2"><g id="Layer_2" data-name="Layer 2"><path class="cls-1" d="M-167.45-145.41a4.09,4.09,0,0,1,4.09-4.09h15.68v34.09h-15.68a4.09,4.09,0,0,0-4.09,4.09Z" transform="translate(200 150)"/><path class="cls-1" d="M-171.55-111.32a4.09,4.09,0,0,0-4.09-4.09h-15.68V-149.5h15.68a4.09,4.09,0,0,1,4.09,4.09Z" transform="translate(200 150)"/><path class="cls-1" d="M-143.59-145.41v34.09h-15.68a4.09,4.09,0,0,0-4.09,4.09h23.86v-38.18Z" transform="translate(200 150)"/><path class="cls-1" d="M-179.73-111.32h-15.68v-34.09h-4.09v38.18h23.86A4.09,4.09,0,0,0-179.73-111.32Z" transform="translate(200 150)"/></g></g></svg>