<svg xmlns="http://www.w3.org/2000/svg" viewBox="0 0 62.65 61.2"><defs><style>.cls-1{fill:none;stroke:#babcbe;stroke-miterlimit:10;stroke-width:1.2px;}</style></defs><title>Ресурс 24</title><g id="Слой_2" data-name="Слой 2"><g id="Layer_2" data-name="Layer 2"><path class="cls-1" d="M6.72,52.56C1.58,52.1-.34,50.67,1,48.12c.41.71.78.35,1.27,1.21a23.6,23.6,0,0,1,1-2.56,3.69,3.69,0,0,1,.73-1c.28.33.79.63.82,1C5,48.17,6.28,47.88,7,48.38c.1.07.56-.26.76-.49,1.12-1.23,2.22-2.47,3.29-3.74A36.37,36.37,0,0,1,13.58,41a11.34,11.34,0,0,0,3.35-7.43c.34-3.35.66-6.69,1.05-10s1-3.85,4.14-4.67a28,28,0,0,0,3.6-1.16c1.93-.79,2.43-2.18,1.69-4.12-.59-1.55-1.13-3.12-1.59-4.71-.1-.37.23-.85.29-1.29a7.85,7.85,0,0,0,.05-1.37C26,3,28,.72,31.09.6a5.11,5.11,0,0,1,5.49,5.46,7.63,7.63,0,0,0,.26,2c.22,1-.39,2.11-.68,3.17-.1.35-.85,2.24-1.08,2.84a2.72,2.72,0,0,0,1.14,3.3,42.28,42.28,0,0,0,4,1.52c.44.15.91.24,1.36.35A3.44,3.44,0,0,1,44.5,22.3c.38,3.23.68,6.47,1.06,9.7a24.3,24.3,0,0,0,.72,4.26A10.84,10.84,0,0,0,48,39.68c2.14,2.73,4.41,5.35,6.69,8a1.79,1.79,0,0,0,3.07-.78,4.08,4.08,0,0,1,.8-1c.28.32.68.6.81,1,.36,1,1.49,2.72,1.66,2.42a11.7,11.7,0,0,0,.52-1.06,2.15,2.15,0,0,1-.23,3,6.31,6.31,0,0,1-4.13,1.38c-.38,0-.77,0-1.3,0,.18.24.28.37.39.49,2.39,2.62,1.7,5.81-1.63,7.13a8.78,8.78,0,0,1-3.07.49c-6.68.09-13.28-.47-19.6-2.9a2.19,2.19,0,0,0-1.43,0c-6.71,2.57-13.69,3.07-20.78,2.82A5,5,0,0,1,5.9,58.48a3.49,3.49,0,0,1-.14-4.75C6,53.35,6.35,53,6.72,52.56Zm43.21-3.9c-1.94-2-4.12-4-6-6.3s-2.48-5.37-3-8.3c-.33,0-.54,0-.76,0a4,4,0,0,0-.45.08c-1.52,4.8.87,8.61,2.72,12.56,2.39-.85,4.07-.86,3.85,1.57Zm-29.54-2c.88-2.09,1.84-4.18,2.64-6.34a8.05,8.05,0,0,0,.31-2.74c0-.86-.28-1.72-.32-2.58s-.41-1.15-1.41-.78c-.37,6.4-4.28,10.74-9.06,14.51l3.89-.47C16.33,46.09,16.92,45.85,20.39,46.64Z"/></g></g></svg>