<svg xmlns="http://www.w3.org/2000/svg" viewBox="0 0 95.81 16.68"><defs><style>.cls-1{fill:none;stroke:#babcbe;stroke-miterlimit:10;stroke-width:1.2px;}</style></defs><title>Ресурс 21</title><g id="Слой_2" data-name="Слой 2"><g id="Layer_2" data-name="Layer 2"><path class="cls-1" d="M31.33.6c2.14.38,4.27.8,6.42,1.12,1.83.27,3.68.48,5.52.61a41.63,41.63,0,0,0,4.18,0,36.73,36.73,0,0,1,11.6,1.52,5.86,5.86,0,0,0,2,.26,10.65,10.65,0,0,1,5.72,1.26,3.48,3.48,0,0,0,1.58.3c3.72,0,7.45.09,11.15-.19,2.23-.17,4.4-1.1,6.63-1.43,2.49-.38,5-.53,7.54-.67,1.35-.08,1.94.94,1.25,2.1a3.74,3.74,0,0,1-1.45,1.34c-1.49.77-3,1.39-4.56,2.14a7,7,0,0,0-1.39,1.06,2.38,2.38,0,0,1-2.81.52,6.56,6.56,0,0,0-6.09,0,20.24,20.24,0,0,1-8.3,1.29c-2.28,0-4.57-.18-6.84-.05-2.73.15-5.45.52-8.17.83a3,3,0,0,0-.85.44A10.4,10.4,0,0,0,47,11.24c-.74.08,7.48,3.44,6.1,3.45-2.37,0-6.93-.36-9.3-.35-5.35,0-10.7.13-16.06.23-2,0-4.05.28-6.06.17a9.84,9.84,0,0,1-3.57-1,11.13,11.13,0,0,0-4.86-1.56c-1.4,0-1.63.11-2.53,1.41a.72.72,0,0,1-.58.2c-.45,0-.89-.17-1.5-.29l.45,1-.78.16.48,1c-.86-.32-1.6-.88-2.06-.7-1,.39-2,0-3,.08-.49.06-1.13-.48-1.57-.89A17.66,17.66,0,0,1,.6,12.28V10.76A11.13,11.13,0,0,0,2.85,6.24,2.79,2.79,0,0,1,5.57,4.15c1.9-.14,3.85,0,5.12-1.1.78.43,1.36,1,1.8.94,1.6-.31,2.23.44,2.5,1.83a2.73,2.73,0,0,0,.18.55c1.59.43,2.69-.3,3.74-1.33,1.92-1.89,4-3.44,6.9-3.52a20.37,20.37,0,0,0,4-.92Z"/></g></g></svg>