<svg xmlns="http://www.w3.org/2000/svg" viewBox="0 0 55.56 60"><defs><style>.cls-1{fill:#babcbe;}</style></defs><title>Ресурс 25</title><g id="Слой_2" data-name="Слой 2"><g id="Layer_2" data-name="Layer 2"><path class="cls-1" d="M55.19,34.56a16.63,16.63,0,0,0-4.1-9.37c-3.47-3.79-8-4.87-12.3-2.94-3.21,1.43-5.06,4.2-6.3,6.44-.31.56-.58,1.14-.86,1.72a19.08,19.08,0,0,1-1.31,2.46c-1.38,2-2.29,2.45-3.23,2.45a4.21,4.21,0,0,1-1-.13,13.48,13.48,0,0,1-2.48-1l-.24-.12a11.74,11.74,0,0,0,3.73-3.9A10.85,10.85,0,0,0,28.39,21c-1.23-3.81-4-5.9-8.29-6.21A20.7,20.7,0,0,0,6.18,18.81a1.42,1.42,0,0,0-.49,2.07c.53,1,1,1.93,1.54,2.9l2,3.93.8-.52.36-.24A22,22,0,0,1,17,23.53a6.85,6.85,0,0,1,5.11.28,2.76,2.76,0,0,1,1.73,2.66A2.69,2.69,0,0,1,22.21,29a10.72,10.72,0,0,1-7.44,1l-1.6-.33-1.23-.25.31,1a11.88,11.88,0,0,1,.23,3.83c-.09,2.39-.2,4.87,2,5.75,1.15.46,2.68.08,4.06-.34a5.73,5.73,0,0,1,2.5-.43A4.81,4.81,0,0,1,25,42.06a5.78,5.78,0,0,1-1.13,6.09A8.42,8.42,0,0,1,18.3,51,11.56,11.56,0,0,1,7.41,47.3,22.51,22.51,0,0,1,2.32,37.08c-.2-.83-.34-1.71-.47-2.55-.07-.4-.13-.8-.2-1.19l-.08-.44L.43,32.78l-.17,1A9.34,9.34,0,0,0,.1,34.83a28.19,28.19,0,0,0,3,15.06A18,18,0,0,0,13,59a15.27,15.27,0,0,0,5.52,1,15.55,15.55,0,0,0,4.5-.68,10.53,10.53,0,0,0,6.12-4.47c2.62-4.22,2.87-9,.76-14.68a11.91,11.91,0,0,0-.49-1.1,11.34,11.34,0,0,0,1.4.12h.47a10.69,10.69,0,0,0,3-.37l-.57,1.11-.23.46a1.41,1.41,0,0,0-.13.49,16.38,16.38,0,0,0,1.25,9.4,9.17,9.17,0,0,0,8.44,5.3,10,10,0,0,0,4.86-1.28c4.69-2.66,7.17-7,7.59-13.16a33.12,33.12,0,0,0-.32-6.59Zm-.87,6.52c-.39,5.76-2.67,9.75-7,12.2a8.7,8.7,0,0,1-4.27,1.12,8,8,0,0,1-7.36-4.62,14.16,14.16,0,0,1-1.3-7.06A6.71,6.71,0,0,0,39.34,47a10.1,10.1,0,0,0,2.11.23,10.88,10.88,0,0,0,10.13-7.65A14.39,14.39,0,0,0,51,29.21a4.85,4.85,0,0,0-4.45-3.06,5.15,5.15,0,0,0-3.26,1.2,15.07,15.07,0,0,0-3.18,4l-.24.41a18.09,18.09,0,0,1-3.58,4.75,7.11,7.11,0,0,1-5,1.53h-.44a15,15,0,0,1-1.53-.14l-.85-.1-1.05-.11.45,1c.11.24.22.47.34.69.21.44.43.86.59,1.29,2,5.37,1.79,9.7-.66,13.64a9.34,9.34,0,0,1-5.46,4,14,14,0,0,1-9.24-.34,16.85,16.85,0,0,1-9.28-8.48A27.38,27.38,0,0,1,1.2,37.5,23.57,23.57,0,0,0,6.53,48.1a12.68,12.68,0,0,0,12,4.06,9.54,9.54,0,0,0,6.29-3.25,6.93,6.93,0,0,0,1.33-7.28A6,6,0,0,0,21.33,38a6.73,6.73,0,0,0-3.08.47,5.79,5.79,0,0,1-3.28.37c-1.36-.54-1.4-2.09-1.3-4.6a17.15,17.15,0,0,0-.06-3.29l.93.19A12,12,0,0,0,22.78,30,3.92,3.92,0,0,0,25,26.47a4,4,0,0,0-2.42-3.73,8,8,0,0,0-6-.34A23.27,23.27,0,0,0,9.72,26L8.29,23.23c-.51-1-1-2-1.55-2.93-.17-.29-.17-.3.12-.51A19.51,19.51,0,0,1,20,15.94c3.74.27,6.18,2.09,7.24,5.39a9.65,9.65,0,0,1-1.15,8.21,10.41,10.41,0,0,1-3.82,3.81,1.36,1.36,0,0,0-.33.22l-1,.7,1,.43c.4.17.79.36,1.18.55a13.68,13.68,0,0,0,2.72,1.09c2.31.57,3.7-.16,5.48-2.81a20,20,0,0,0,1.41-2.61c.26-.56.52-1.11.82-1.65,1.16-2.08,2.86-4.64,5.74-5.93,3.86-1.72,7.83-.75,10.95,2.65A15.5,15.5,0,0,1,54,34.72a31.56,31.56,0,0,1,.31,6.36Zm-19.54-2.4A7,7,0,0,0,37,37.39a19.61,19.61,0,0,0,3.83-5l.25-.42A13.7,13.7,0,0,1,44,28.27a4,4,0,0,1,2.51-.92,3.64,3.64,0,0,1,3.36,2.34,13.26,13.26,0,0,1,.58,9.54,9.67,9.67,0,0,1-9,6.82,8.42,8.42,0,0,1-1.86-.21,5.43,5.43,0,0,1-4.27-4.32c-.06-.34-.13-.68-.2-1.07Z"/><path class="cls-1" d="M28.33,16.4a11.42,11.42,0,0,0,7.31,3.38q.73.06,1.47.06a20,20,0,0,0,10-2.81,16,16,0,0,0,3.74-3,1.54,1.54,0,0,0,.49-1.18c-.06-1.14-1.36-2.21-2.86-3.44a15.27,15.27,0,0,1-2.24-2l-.45-.58-.8,1c-.2.23-.37.44-.54.65a13.61,13.61,0,0,1-4.31,3.22q-6.1,3-11.25-1.09a10.34,10.34,0,0,1-3.68-5.08L24.5,3.2,24,5.54a9.71,9.71,0,0,0,.35,4.83,14.42,14.42,0,0,0,3.94,6Zm-.2-4.91c3.78,3,8,3.42,12.51,1.23a14.88,14.88,0,0,0,4.68-3.51c.16-.17.31-.36.46-.55a23.19,23.19,0,0,0,1.93,1.67c1.06.88,2.39,2,2.42,2.57a.34.34,0,0,1-.13.28A14.41,14.41,0,0,1,46.51,16a18.27,18.27,0,0,1-10.77,2.6,10.17,10.17,0,0,1-6.56-3A13.15,13.15,0,0,1,25.54,10a11,11,0,0,1-.4-1.81,12.83,12.83,0,0,0,3,3.27Z"/><path class="cls-1" d="M30.63,7.69l2.65,2.47,1.53,1.41L36.42,10C37.65,8.8,38.85,7.64,40,6.45a1.26,1.26,0,0,0,.08-1.56c-1.31-1.28-2.63-2.53-3.86-3.68L35,0l-.4.37L33.23,1.55c-.93.82-1.81,1.59-2.65,2.42S29.3,5.21,29.31,5.84s.47,1.06,1.32,1.85Zm.78-2.87C32.23,4,33.1,3.26,34,2.45L35,1.62l.48.45c1.19,1.12,2.47,2.33,3.74,3.56C38,6.81,36.81,8,35.59,9.16l-.8.77-.7-.65L31.44,6.82a5.29,5.29,0,0,1-.94-1,5,5,0,0,1,.91-1Z"/></g></g></svg>