<svg xmlns="http://www.w3.org/2000/svg" viewBox="0 0 62.03 61.18"><defs><style>.cls-1{fill:none;stroke:#babcbe;stroke-miterlimit:10;}</style></defs><title>Ресурс 30</title><g id="Слой_2" data-name="Слой 2"><g id="Layer_2" data-name="Layer 2"><path class="cls-1" d="M40.67,20.87v19H21.92V20.87ZM37.78,25H24.23c2.28,4,4.48,7.86,6.78,11.9Z"/><path class="cls-1" d="M18.32,17.43c-.1-2.95.25-5.65,2.31-7.78a12.8,12.8,0,0,1,2.93-2.32A19.24,19.24,0,0,0,30.82.52c.15,0,.3,0,.33,0a21.3,21.3,0,0,0,7.71,7c3.69,2.11,5.09,5.48,4.81,9.8C35.21,10.57,26.83,10.59,18.32,17.43Z"/><path class="cls-1" d="M18.13,17.64c-6.85,9.74-6.89,15.5-.19,25.77-3.2.15-6-.5-8.17-2.93a10,10,0,0,1-1.43-1.94,19.5,19.5,0,0,0-7.33-8C4.83,28.44,6.83,25,9,21.66S14.29,17.53,18.13,17.64Z"/><path class="cls-1" d="M61,30.59c-3.81,2.07-5.78,5.47-7.9,8.8s-5.23,4.25-9,4c6.68-8.6,6.67-17.08-.08-25.74,2.85-.08,5.42.3,7.53,2.25a10.18,10.18,0,0,1,2,2.44A20.58,20.58,0,0,0,61,30.59Z"/><path class="cls-1" d="M18.23,43.69c8,7.06,18.31,6.62,25.5,0,.09,3.22-.43,6.05-2.8,8.21a14,14,0,0,1-2.42,1.78,18.6,18.6,0,0,0-7.31,6.8c-.2-.1-.38-.12-.45-.23a19.15,19.15,0,0,0-7.14-6.53c-2.6-1.46-4.54-3.49-5.06-6.59C18.38,46.13,18.35,45.07,18.23,43.69Z"/><path class="cls-1" d="M19.75,41.44a15.81,15.81,0,0,1,0-21.69Z"/><path class="cls-1" d="M20.29,42H41.61C37,47.22,26.78,48.47,20.29,42Z"/><path class="cls-1" d="M41.2,18.69H21.13C24.5,14.54,34.41,12.57,41.2,18.69Z"/><path class="cls-1" d="M42.77,40.77V20.46C47.73,25.34,48,35.36,42.77,40.77Z"/></g></g></svg>