<svg xmlns="http://www.w3.org/2000/svg" viewBox="0 0 58.34 80"><defs><style>.cls-1{fill:#babcbe;}</style></defs><title>Ресурс 17</title><g id="Слой_2" data-name="Слой 2"><g id="Layer_2" data-name="Layer 2"><path class="cls-1" d="M50.63,17.64c-.13-1.89-1.28-5.14-4.9-5.14a6.38,6.38,0,0,0-1.12.1,91.54,91.54,0,0,1-9.46,1L24.39,6.48c-.28-.18-.56-.38-.83-.58-.84-.59-3.88-2.2-14.08-4.37a1.76,1.76,0,0,1-.9-.48L8.53,1A3.74,3.74,0,0,0,6,0a4.6,4.6,0,0,0-.64.05L1.73.65A2.06,2.06,0,0,0,.09,2.11,2,2,0,0,0,.67,4.22l.41.38a4,4,0,0,0,2.22,1l.79.1A9.7,9.7,0,0,0,7.65,7.15c1.55,1,8.59,4.79,13.37,5.61a4.38,4.38,0,0,1,2.38,1.29c-.24.45-.49,1-.74,1.5-1.17,2.5-1.64,4.4-1.41,5.63A5.73,5.73,0,0,0,24,24.91,7.14,7.14,0,0,0,27.77,26h.3A12.84,12.84,0,0,0,26.7,32a18.91,18.91,0,0,0,2.54,8.59.53.53,0,0,0,.44.25h.08a.51.51,0,0,0,.42-.39c.05-.25,1.37-6.14,1.2-8.81a18.66,18.66,0,0,0-1.81-5.9,4.21,4.21,0,0,0,.48-.12,5.6,5.6,0,0,0,3.35-3.46l.35.2c.41.22,4.16,2.21,7.42,4.4,4.41,3,4.45,3.95,4.43,4.08-.52.75-5.12,7.64-1.82,11.1-.41,1.43-1.11,3.46-1.78,5.42-.8,2.33-1.56,4.54-1.86,5.76-1.88,2.36-5.08,6.76-6,10.3a75.18,75.18,0,0,1-2.48,7.19c-.43,1.12-.83,2.17-1.13,3a7.76,7.76,0,0,0-.29,3v0a2,2,0,0,0,1.33,1.56,34,34,0,0,0,9,1.71,4.43,4.43,0,0,0,2.87-.71,1.13,1.13,0,0,0,.47-.92,2,2,0,0,0-1-1.79A10.1,10.1,0,0,0,41.83,76a1.11,1.11,0,0,0-.18-1.86l-4.13-2.17c1.58-1.8,6.94-8,8.14-10.34a17.64,17.64,0,0,1,4-4.77,25.67,25.67,0,0,0,4.32-5.14,24.56,24.56,0,0,0,4.19-13c0-.21,0-1,.05-1.24.31-3,1.12-11.1-7.54-19.85ZM29.47,38.87A16.82,16.82,0,0,1,27.72,32a12.11,12.11,0,0,1,1.14-5.37,16.66,16.66,0,0,1,1.5,5.06,36.2,36.2,0,0,1-.89,7.14ZM21.19,11.76C16.5,11,9.26,7.05,8.11,6.23a.47.47,0,0,0-.3-.1,4.18,4.18,0,0,1-1.33-.32l.69-.07a3.84,3.84,0,0,1,2.33.45c3.1,1.68,9.36,4.77,13.08,5.65a4.16,4.16,0,0,1,1.61.78c-.08.14-.18.3-.28.5a5.29,5.29,0,0,0-2.72-1.36Zm8.58,12.91A6.52,6.52,0,0,1,24.5,24,4.81,4.81,0,0,1,22.25,21c-.35-1.84,1.57-5.68,2.68-7.63a59.58,59.58,0,0,0,7.61,8.22,4.64,4.64,0,0,1-2.77,3.09Zm-4.12-12a5.2,5.2,0,0,0-2.83-1.78C19.2,10,13.05,7,10,5.29A4.93,4.93,0,0,0,7,4.73a9.86,9.86,0,0,1-1.28.08,16.21,16.21,0,0,1-2.31-.18,3.05,3.05,0,0,1-1.67-.78l-.41-.38A1,1,0,0,1,1.9,1.66l3.59-.6A2.42,2.42,0,0,1,6,1a2.73,2.73,0,0,1,1.87.73l0,0a2.93,2.93,0,0,0,1.4.74C19.57,4.72,22.36,6.3,23,6.74l.86.59,10.36,6.86s.84.56,1.15.75a4.67,4.67,0,0,0,2.14.73,2.1,2.1,0,0,0,.36,0,.51.51,0,0,0-.22-1,1.54,1.54,0,0,1-.8-.12c.64,0,1.43-.11,2.32-.2.71.41,4.21,2.55,2.9,5.18a8.41,8.41,0,0,1-4.21,4c-1.35-.79-2.63-1.5-3.6-2-2.39-1.27-6.72-6.59-8.57-8.86ZM46.47,31.41l0-.07c.37-.77.16-2.08-4.77-5.4-.91-.6-1.89-1.22-2.86-1.81A9.48,9.48,0,0,0,42.94,20c1.2-2.41-.5-4.55-2.19-5.81,1.24-.14,2.6-.32,4-.55a6.65,6.65,0,0,1,1-.08c3.66,0,3.88,4.08,3.89,4.34a1.6,1.6,0,0,1-.38,1,.51.51,0,0,0,.78.66,2.78,2.78,0,0,0,.4-.65c7.77,8.2,7,15.65,6.74,18.5q0,.2,0,.36c-8.61,4.06-12.36-2.09-12.52-2.36,0-.06-.09-.16-.15-.27a21.15,21.15,0,0,1,2-3.71ZM44,36.35a10,10,0,0,0,.74.87,7.42,7.42,0,0,0-.89,3A6.16,6.16,0,0,1,44,36.35ZM41,53.7a.51.51,0,0,0,.1-.21c.26-1.14,1.07-3.49,1.85-5.77.57-1.67,1.16-3.37,1.58-4.74a5,5,0,0,0,1.36,1.4c-1.35,2.79-3.8,9.93-4.19,11.07a18.57,18.57,0,0,0-1.78,1.7l-.8-1c.68-1,1.34-1.81,1.88-2.48Zm-5.77,9.68a24.55,24.55,0,0,1,3.28-6.33l.72.86a40.75,40.75,0,0,0-4,5.47ZM41.18,75a.1.1,0,0,1,0,.11.08.08,0,0,1-.09.07l-.5.06a2,2,0,0,1-.9-.12L36,73.61l.79-.9Zm-4.86-3.27h0l-1.53,1.74a.49.49,0,0,0-.11.45.52.52,0,0,0,.3.36l4.93,2h0a11.53,11.53,0,0,1,2.43,1.13,1.07,1.07,0,0,1,.53.71.49.49,0,0,1,0,.3l-.06,0a3.34,3.34,0,0,1-2.23.49,33.55,33.55,0,0,1-8.65-1.65,1,1,0,0,1-.66-.76A6.62,6.62,0,0,1,31.53,74c.29-.83.69-1.88,1.11-3l.9-2.38a48.26,48.26,0,0,1,5-8.27l4,4c-2.54,3.27-6.17,7.34-6.22,7.39ZM49,56a17.77,17.77,0,0,0-4.21,5.1,19.39,19.39,0,0,1-1.59,2.38l-3.95-4a23.35,23.35,0,0,1,3.24-3.39.46.46,0,0,0,.17-.24c0-.09,3.07-9,4.39-11.48a.51.51,0,0,0-.19-.68c-2.78-1.67-2-4.43-1.28-5.81A9.9,9.9,0,0,0,47.14,39a9.38,9.38,0,0,0,4.48,1.1,13.83,13.83,0,0,0,5.47-1.26C56.85,49.12,49,56,49,56Z"/></g></g></svg>