<svg xmlns="http://www.w3.org/2000/svg" viewBox="0 0 63.22 61.88"><defs><style>.cls-1{fill:none;stroke:#babcbe;stroke-miterlimit:10;stroke-width:1.2px;}</style></defs><title>Ресурс 26</title><g id="Слой_2" data-name="Слой 2"><g id="Layer_2" data-name="Layer 2"><path class="cls-1" d="M16.68,32.6a17,17,0,0,1,1.81-.37A21.27,21.27,0,0,1,21.75,32c5.55,0,8.39,2,9.58,3.26h7.84a5.92,5.92,0,0,1,4.95,2.69l5.71-2.63,5.59-7.4h0l.29-.38A5.88,5.88,0,0,1,57.47,26a6,6,0,0,1,1.85-.68c0-.21,0-.43,0-.65v-2H38.14v-.8h0c2.75-1,4.44-2.64,5-4.88,1.48-5.52-4.85-12.22-5.71-13.1L35.1,1.28l-.74,3.49a8.21,8.21,0,0,1-1.12,3,11,11,0,0,1-1.16,1.27,14.73,14.73,0,0,0-1.2,1.27,7.25,7.25,0,0,0-1.53,3.39,7.2,7.2,0,0,0,2.34,6.77A10.89,10.89,0,0,0,34.51,22v.67H13.36l0,1.77a1.21,1.21,0,0,0,0,.19A23.15,23.15,0,0,0,15,33.17,16.73,16.73,0,0,1,16.68,32.6Z"/><path class="cls-1" d="M61.72,29.26a2.22,2.22,0,0,0-2.86.18,1.55,1.55,0,0,0-.24.27l-2,2.69-2.28,3h0l-.36.48-1.77,2.34-7.12,3.28a5.94,5.94,0,0,1-1.15,3.14A5.9,5.9,0,0,1,39.17,47h-13V43.41h13a2.26,2.26,0,0,0,1.76-.84,2.29,2.29,0,0,0,.5-1.42,2.22,2.22,0,0,0,0-.37,2.15,2.15,0,0,0-.15-.51,2.25,2.25,0,0,0-2.08-1.38H29.44L29,38.06c-.18-.25-2-2.44-7.22-2.44a18.25,18.25,0,0,0-2.05.11,15.2,15.2,0,0,0-1.8.31,10,10,0,0,0-1.73.57,6.11,6.11,0,0,0-2.06,1.31L14,38l-.06,0-9.81,9.6L.6,51.12V61.28H5.17l9.27-8.23H41.32l12.49-9.12L62.2,32.36A2.24,2.24,0,0,0,61.72,29.26Z"/></g></g></svg>