<svg xmlns="http://www.w3.org/2000/svg" viewBox="0 0 37.98 81.23"><defs><style>.cls-1{fill:none;stroke:#babcbe;stroke-miterlimit:10;stroke-width:1.2px;}</style></defs><title>Ресурс 20</title><g id="Слой_2" data-name="Слой 2"><g id="Layer_2" data-name="Layer 2"><path class="cls-1" d="M2.7,58.87a8,8,0,0,1,2.16-10,7.39,7.39,0,0,0-.13-.75,24.61,24.61,0,0,1,.09-11.85,6.47,6.47,0,0,0-1-5.58c-1.63-2.28-1.79-4.91-1.51-7.58.17-1.65.46-3.29.61-4.94.12-1.31.14-2.63.15-4,0-.82-.12-.91-1-1.09A1.61,1.61,0,0,1,.6,11.25a3.52,3.52,0,0,1,.67-2.09,11.09,11.09,0,0,0,2-5.45.86.86,0,0,1,.16-.47,2.28,2.28,0,0,0,.41-1.52c0-.79.36-1,1.33-1.09.08.55.15,1.11.24,1.67.16,1.13.31,2.27.5,3.4a10.87,10.87,0,0,0,.43,1.77,11.66,11.66,0,0,1,.75,4.37c-.12,4,.72,7.86,1.36,11.77.14.86.31,1.73.45,2.59a12.21,12.21,0,0,0,1,3.61,4.72,4.72,0,0,1,.44,1.56,57.39,57.39,0,0,0,1.79,8.1c.65,2.63,1.44,20.93,1.46,22.05a2.66,2.66,0,0,0,.58,1.76c.46-.08,1-.14,1.44-.26a2.53,2.53,0,0,1,2.73.91,11.44,11.44,0,0,1,1.33,2.14c.51,1,.92,2.1,1.4,3.15a4.56,4.56,0,0,0,1.39,2,7,7,0,0,0,1.93,1.62c-.19-.44-.33-.75-.46-1.07-.31-.8-.1-1,.64-1.45s1.61-.65,2.13-1.4a.57.57,0,0,1,.83-.08,2.19,2.19,0,0,0,2.3.09,2.24,2.24,0,0,1,.9-.13c.64,0,1.28,0,1.92,0a3.28,3.28,0,0,1,3.21,2.6,16.26,16.26,0,0,1,.31,2.19c.06.7,0,1.4,0,2.16.14.06.33.12.5.21a1.07,1.07,0,0,1,.58,1.52c-.14.39-.35.72,0,1.13.07.09,0,.31-.08.46a8.7,8.7,0,0,1-.44,1.1,1.09,1.09,0,0,1-.47.48c-.66.25-9.22-1-9.61-1.43-.05-.06-.37.07-.55.14-.5.2-1.78-1.06-1.35-1.61a1.24,1.24,0,0,0-1.23.49,5.24,5.24,0,0,1-4.35,1.46,13.81,13.81,0,0,0-2.32,0,30.36,30.36,0,0,1-3.43.21c-2.1,0-4.2-.09-6.29-.19a8.14,8.14,0,0,1-1.67-.35.93.93,0,0,1-.67-1c0-1.29-.07-2.57,0-3.85q.06-3,.23-6a3.86,3.86,0,0,0-.58-2.41,8.42,8.42,0,0,1-.9-3c-.22-1-.21-2.13-1-3C1.8,59.51,1.85,59.43,2.7,58.87Zm10.21,16.3c-.95-.7-1.9-1.34-2.76-2.08s-1.67-1.6-2.57-2.48c.27,1.86.53,3.61.8,5.42,0,0,0,0,.08,0,1.39-.23,2.77-.47,4.16-.72C12.7,75.34,12.78,75.26,12.91,75.17Z"/></g></g></svg>