<svg xmlns="http://www.w3.org/2000/svg" viewBox="0 0 81 21.79"><defs><style>.cls-1{fill:none;stroke:#babcbe;stroke-miterlimit:10;}</style></defs><title>Ресурс 22</title><g id="Слой_2" data-name="Слой 2"><g id="Layer_2" data-name="Layer 2"><path class="cls-1" d="M.5,7c.21-.19.41-.4.63-.57a27.6,27.6,0,0,1,5-2.93,31.39,31.39,0,0,1,4.62-1.66,35.76,35.76,0,0,1,7-1.1A31.78,31.78,0,0,1,22.47.54a14.55,14.55,0,0,1,4.26,1,18.25,18.25,0,0,1,4.08,2.14A12.1,12.1,0,0,1,33.45,6.1v.27a1.84,1.84,0,0,1-.48.17c-1.3,0-2.61.09-3.91.08a40.41,40.41,0,0,1-6.5-.52c-1.19-.21-2.37-.49-3.55-.75a22.54,22.54,0,0,0-3.94-.45A34.59,34.59,0,0,0,10,5,29.74,29.74,0,0,0,4.76,6c-1.09.32-2.17.69-3.25,1-.19.06-.37.11-.55.18A.38.38,0,0,1,.5,7.1Z"/><path class="cls-1" d="M31.52,13.09c.39.52.81,1.09,1.24,1.65a.9.9,0,0,1-.34,1.46.86.86,0,0,1-1-.29l-1.25-1.66-.16-.2-4.55,2.21c.09.24.19.54.3.83L26.47,19A.89.89,0,0,1,26,20.12a.87.87,0,0,1-1.19-.45c-.25-.56-.45-1.14-.66-1.71-.13-.34-.26-.67-.38-1,0-.15-.12-.21-.29-.16a20.16,20.16,0,0,1-4.22.73c-.2,0-.18.14-.18.27v2.53a.89.89,0,1,1-1.77.05c0-.83,0-1.67,0-2.5,0-.27-.08-.34-.34-.35a19.52,19.52,0,0,1-4-.6c-.22-.05-.27,0-.33.2-.25.88-.5,1.75-.79,2.61a.87.87,0,0,1-1.36.41.88.88,0,0,1-.29-1c.26-.88.51-1.75.78-2.63.05-.16,0-.24-.13-.29a21.25,21.25,0,0,1-3.53-1.71l-.46.74c-.41.67-.81,1.35-1.23,2a.88.88,0,0,1-1.56.13.87.87,0,0,1,0-1c.55-.9,1.09-1.81,1.64-2.72a1,1,0,0,0,.08-.15c-.3-.24-.6-.46-.87-.72a.88.88,0,0,1,.27-1.49.94.94,0,0,1,1,.23c.37.3.73.61,1.12.88a18.51,18.51,0,0,0,4,2.17,17.61,17.61,0,0,0,7.28,1.24,19.69,19.69,0,0,0,6.42-1.39A26.24,26.24,0,0,0,29.76,12c.33-.22.65-.44,1-.64a.8.8,0,0,1,1,.08.75.75,0,0,1,.3.88A3.22,3.22,0,0,1,31.52,13.09Z"/><path class="cls-1" d="M80.5,7c-.21-.19-.41-.4-.63-.57a27.6,27.6,0,0,0-5-2.93,31.39,31.39,0,0,0-4.62-1.66,35.76,35.76,0,0,0-7-1.1A31.78,31.78,0,0,0,58.53.54a14.55,14.55,0,0,0-4.26,1,18.25,18.25,0,0,0-4.08,2.14A12.1,12.1,0,0,0,47.55,6.1v.27a1.84,1.84,0,0,0,.48.17c1.3,0,2.61.09,3.91.08a40.41,40.41,0,0,0,6.5-.52c1.19-.21,2.37-.49,3.55-.75a22.54,22.54,0,0,1,3.94-.45A34.59,34.59,0,0,1,71,5,29.74,29.74,0,0,1,76.24,6c1.09.32,2.17.69,3.25,1,.19.06.37.11.55.18a.38.38,0,0,0,.46-.08Z"/><path class="cls-1" d="M49.48,13.09c-.39.52-.81,1.09-1.24,1.65a.9.9,0,0,0,.34,1.46.86.86,0,0,0,1-.29l1.25-1.66.16-.2,4.55,2.21c-.09.24-.19.54-.3.83L54.53,19A.89.89,0,0,0,55,20.12a.87.87,0,0,0,1.19-.45c.25-.56.45-1.14.66-1.71.13-.34.26-.67.38-1,.05-.15.12-.21.29-.16a20.16,20.16,0,0,0,4.22.73c.2,0,.18.14.18.27v2.53a.89.89,0,1,0,1.77.05c0-.83,0-1.67,0-2.5,0-.27.08-.34.34-.35a19.52,19.52,0,0,0,4-.6c.22-.05.27,0,.33.2.25.88.5,1.75.79,2.61a.87.87,0,0,0,1.36.41.88.88,0,0,0,.29-1c-.26-.88-.51-1.75-.78-2.63,0-.16,0-.24.13-.29a21.25,21.25,0,0,0,3.53-1.71l.46.74c.41.67.81,1.35,1.23,2a.88.88,0,0,0,1.56.13.87.87,0,0,0,0-1c-.55-.9-1.09-1.81-1.64-2.72a1,1,0,0,1-.08-.15c.3-.24.6-.46.87-.72a.88.88,0,0,0-.27-1.49.94.94,0,0,0-1,.23c-.37.3-.73.61-1.12.88a18.51,18.51,0,0,1-4,2.17,17.61,17.61,0,0,1-7.28,1.24A19.69,19.69,0,0,1,56,14.44,26.24,26.24,0,0,1,51.24,12c-.33-.22-.65-.44-1-.64a.8.8,0,0,0-1,.08.75.75,0,0,0-.3.88A3.22,3.22,0,0,0,49.48,13.09Z"/></g></g></svg>